<mxfile host="Electron" modified="2023-11-10T10:04:59.194Z" agent="Mozilla/5.0 (Windows NT 10.0; Win64; x64) AppleWebKit/537.36 (KHTML, like Gecko) draw.io/21.6.8 Chrome/114.0.5735.289 Electron/25.5.0 Safari/537.36" etag="dPxYX4babeeCB5NNeNwp" version="21.6.8" type="device">
  <diagram id="R2lEEEUBdFMjLlhIrx00" name="Page-1">
    <mxGraphModel dx="1036" dy="606" grid="1" gridSize="10" guides="1" tooltips="1" connect="1" arrows="1" fold="1" page="1" pageScale="1" pageWidth="850" pageHeight="1100" math="0" shadow="0" extFonts="Permanent Marker^https://fonts.googleapis.com/css?family=Permanent+Marker">
      <root>
        <mxCell id="0" />
        <mxCell id="1" parent="0" />
        <mxCell id="vcuSbffxkNOAJa39J86u-33" value="" style="group" parent="1" vertex="1" connectable="0">
          <mxGeometry x="300" y="540" width="210" height="210" as="geometry" />
        </mxCell>
        <mxCell id="vcuSbffxkNOAJa39J86u-6" value="User" style="shape=table;startSize=30;container=1;collapsible=1;childLayout=tableLayout;fixedRows=1;rowLines=0;fontStyle=1;align=center;resizeLast=1;html=1;" parent="vcuSbffxkNOAJa39J86u-33" vertex="1">
          <mxGeometry width="210" height="210" as="geometry" />
        </mxCell>
        <mxCell id="vcuSbffxkNOAJa39J86u-7" value="" style="shape=tableRow;horizontal=0;startSize=0;swimlaneHead=0;swimlaneBody=0;fillColor=none;collapsible=0;dropTarget=0;points=[[0,0.5],[1,0.5]];portConstraint=eastwest;top=0;left=0;right=0;bottom=1;" parent="vcuSbffxkNOAJa39J86u-6" vertex="1">
          <mxGeometry y="30" width="210" height="30" as="geometry" />
        </mxCell>
        <mxCell id="vcuSbffxkNOAJa39J86u-8" value="PK" style="shape=partialRectangle;connectable=0;fillColor=none;top=0;left=0;bottom=0;right=0;fontStyle=1;overflow=hidden;whiteSpace=wrap;html=1;" parent="vcuSbffxkNOAJa39J86u-7" vertex="1">
          <mxGeometry width="30" height="30" as="geometry">
            <mxRectangle width="30" height="30" as="alternateBounds" />
          </mxGeometry>
        </mxCell>
        <mxCell id="vcuSbffxkNOAJa39J86u-9" value="id serial NOT NULL" style="shape=partialRectangle;connectable=0;fillColor=none;top=0;left=0;bottom=0;right=0;align=left;spacingLeft=6;fontStyle=5;overflow=hidden;whiteSpace=wrap;html=1;" parent="vcuSbffxkNOAJa39J86u-7" vertex="1">
          <mxGeometry x="30" width="180" height="30" as="geometry">
            <mxRectangle width="180" height="30" as="alternateBounds" />
          </mxGeometry>
        </mxCell>
        <mxCell id="vcuSbffxkNOAJa39J86u-10" value="" style="shape=tableRow;horizontal=0;startSize=0;swimlaneHead=0;swimlaneBody=0;fillColor=none;collapsible=0;dropTarget=0;points=[[0,0.5],[1,0.5]];portConstraint=eastwest;top=0;left=0;right=0;bottom=0;" parent="vcuSbffxkNOAJa39J86u-6" vertex="1">
          <mxGeometry y="60" width="210" height="30" as="geometry" />
        </mxCell>
        <mxCell id="vcuSbffxkNOAJa39J86u-11" value="" style="shape=partialRectangle;connectable=0;fillColor=none;top=0;left=0;bottom=0;right=0;editable=1;overflow=hidden;whiteSpace=wrap;html=1;" parent="vcuSbffxkNOAJa39J86u-10" vertex="1">
          <mxGeometry width="30" height="30" as="geometry">
            <mxRectangle width="30" height="30" as="alternateBounds" />
          </mxGeometry>
        </mxCell>
        <mxCell id="vcuSbffxkNOAJa39J86u-12" value="email TEXT NOT NULL" style="shape=partialRectangle;connectable=0;fillColor=none;top=0;left=0;bottom=0;right=0;align=left;spacingLeft=6;overflow=hidden;whiteSpace=wrap;html=1;" parent="vcuSbffxkNOAJa39J86u-10" vertex="1">
          <mxGeometry x="30" width="180" height="30" as="geometry">
            <mxRectangle width="180" height="30" as="alternateBounds" />
          </mxGeometry>
        </mxCell>
        <mxCell id="vcuSbffxkNOAJa39J86u-13" value="" style="shape=tableRow;horizontal=0;startSize=0;swimlaneHead=0;swimlaneBody=0;fillColor=none;collapsible=0;dropTarget=0;points=[[0,0.5],[1,0.5]];portConstraint=eastwest;top=0;left=0;right=0;bottom=0;" parent="vcuSbffxkNOAJa39J86u-6" vertex="1">
          <mxGeometry y="90" width="210" height="30" as="geometry" />
        </mxCell>
        <mxCell id="vcuSbffxkNOAJa39J86u-14" value="" style="shape=partialRectangle;connectable=0;fillColor=none;top=0;left=0;bottom=0;right=0;editable=1;overflow=hidden;whiteSpace=wrap;html=1;" parent="vcuSbffxkNOAJa39J86u-13" vertex="1">
          <mxGeometry width="30" height="30" as="geometry">
            <mxRectangle width="30" height="30" as="alternateBounds" />
          </mxGeometry>
        </mxCell>
        <mxCell id="vcuSbffxkNOAJa39J86u-15" value="username TEXT NOT NULL" style="shape=partialRectangle;connectable=0;fillColor=none;top=0;left=0;bottom=0;right=0;align=left;spacingLeft=6;overflow=hidden;whiteSpace=wrap;html=1;" parent="vcuSbffxkNOAJa39J86u-13" vertex="1">
          <mxGeometry x="30" width="180" height="30" as="geometry">
            <mxRectangle width="180" height="30" as="alternateBounds" />
          </mxGeometry>
        </mxCell>
        <mxCell id="vcuSbffxkNOAJa39J86u-16" value="" style="shape=tableRow;horizontal=0;startSize=0;swimlaneHead=0;swimlaneBody=0;fillColor=none;collapsible=0;dropTarget=0;points=[[0,0.5],[1,0.5]];portConstraint=eastwest;top=0;left=0;right=0;bottom=0;" parent="vcuSbffxkNOAJa39J86u-6" vertex="1">
          <mxGeometry y="120" width="210" height="30" as="geometry" />
        </mxCell>
        <mxCell id="vcuSbffxkNOAJa39J86u-17" value="" style="shape=partialRectangle;connectable=0;fillColor=none;top=0;left=0;bottom=0;right=0;editable=1;overflow=hidden;whiteSpace=wrap;html=1;" parent="vcuSbffxkNOAJa39J86u-16" vertex="1">
          <mxGeometry width="30" height="30" as="geometry">
            <mxRectangle width="30" height="30" as="alternateBounds" />
          </mxGeometry>
        </mxCell>
        <mxCell id="vcuSbffxkNOAJa39J86u-18" value="password TEXT" style="shape=partialRectangle;connectable=0;fillColor=none;top=0;left=0;bottom=0;right=0;align=left;spacingLeft=6;overflow=hidden;whiteSpace=wrap;html=1;" parent="vcuSbffxkNOAJa39J86u-16" vertex="1">
          <mxGeometry x="30" width="180" height="30" as="geometry">
            <mxRectangle width="180" height="30" as="alternateBounds" />
          </mxGeometry>
        </mxCell>
        <mxCell id="vcuSbffxkNOAJa39J86u-20" value="oauth OAuth[]" style="shape=partialRectangle;fillColor=none;align=left;verticalAlign=middle;strokeColor=none;spacingLeft=34;rotatable=0;points=[[0,0.5],[1,0.5]];portConstraint=eastwest;dropTarget=0;" parent="vcuSbffxkNOAJa39J86u-33" vertex="1">
          <mxGeometry y="150" width="90" height="30" as="geometry" />
        </mxCell>
        <mxCell id="vcuSbffxkNOAJa39J86u-21" value="" style="shape=partialRectangle;top=0;left=0;bottom=0;fillColor=none;stokeWidth=1;align=left;verticalAlign=middle;spacingLeft=4;spacingRight=4;overflow=hidden;rotatable=0;points=[];portConstraint=eastwest;part=1;" parent="vcuSbffxkNOAJa39J86u-20" vertex="1" connectable="0">
          <mxGeometry width="30" height="30" as="geometry" />
        </mxCell>
        <mxCell id="vcuSbffxkNOAJa39J86u-22" value="role ROLE NOT NULL" style="shape=partialRectangle;fillColor=none;align=left;verticalAlign=middle;strokeColor=none;spacingLeft=34;rotatable=0;points=[[0,0.5],[1,0.5]];portConstraint=eastwest;dropTarget=0;" parent="vcuSbffxkNOAJa39J86u-33" vertex="1">
          <mxGeometry y="180" width="90" height="30" as="geometry" />
        </mxCell>
        <mxCell id="vcuSbffxkNOAJa39J86u-23" value="" style="shape=partialRectangle;top=0;left=0;bottom=0;fillColor=none;stokeWidth=1;align=left;verticalAlign=middle;spacingLeft=4;spacingRight=4;overflow=hidden;rotatable=0;points=[];portConstraint=eastwest;part=1;" parent="vcuSbffxkNOAJa39J86u-22" vertex="1" connectable="0">
          <mxGeometry width="30" height="30" as="geometry" />
        </mxCell>
        <mxCell id="vcuSbffxkNOAJa39J86u-34" value="OAuth" style="swimlane;fontStyle=1;childLayout=stackLayout;horizontal=1;startSize=26;horizontalStack=0;resizeParent=1;resizeParentMax=0;resizeLast=0;collapsible=1;marginBottom=0;align=center;fontSize=14;" parent="1" vertex="1">
          <mxGeometry x="210" y="270" width="160" height="86" as="geometry" />
        </mxCell>
        <mxCell id="vcuSbffxkNOAJa39J86u-35" value="google TEXT" style="text;strokeColor=none;fillColor=none;spacingLeft=4;spacingRight=4;overflow=hidden;rotatable=0;points=[[0,0.5],[1,0.5]];portConstraint=eastwest;fontSize=12;whiteSpace=wrap;html=1;" parent="vcuSbffxkNOAJa39J86u-34" vertex="1">
          <mxGeometry y="26" width="160" height="30" as="geometry" />
        </mxCell>
        <mxCell id="vcuSbffxkNOAJa39J86u-36" value="github TEXT" style="text;strokeColor=none;fillColor=none;spacingLeft=4;spacingRight=4;overflow=hidden;rotatable=0;points=[[0,0.5],[1,0.5]];portConstraint=eastwest;fontSize=12;whiteSpace=wrap;html=1;" parent="vcuSbffxkNOAJa39J86u-34" vertex="1">
          <mxGeometry y="56" width="160" height="30" as="geometry" />
        </mxCell>
        <mxCell id="vcuSbffxkNOAJa39J86u-38" value="    Role" style="swimlane;fontStyle=1;childLayout=stackLayout;horizontal=1;startSize=26;horizontalStack=0;resizeParent=1;resizeParentMax=0;resizeLast=0;collapsible=1;marginBottom=0;align=center;fontSize=14;" parent="1" vertex="1">
          <mxGeometry x="440" y="270" width="160" height="86" as="geometry" />
        </mxCell>
        <mxCell id="vcuSbffxkNOAJa39J86u-39" value="admin TEXT" style="text;strokeColor=none;fillColor=none;spacingLeft=4;spacingRight=4;overflow=hidden;rotatable=0;points=[[0,0.5],[1,0.5]];portConstraint=eastwest;fontSize=12;whiteSpace=wrap;html=1;" parent="vcuSbffxkNOAJa39J86u-38" vertex="1">
          <mxGeometry y="26" width="160" height="30" as="geometry" />
        </mxCell>
        <mxCell id="vcuSbffxkNOAJa39J86u-40" value="normal TEXT" style="text;strokeColor=none;fillColor=none;spacingLeft=4;spacingRight=4;overflow=hidden;rotatable=0;points=[[0,0.5],[1,0.5]];portConstraint=eastwest;fontSize=12;whiteSpace=wrap;html=1;" parent="vcuSbffxkNOAJa39J86u-38" vertex="1">
          <mxGeometry y="56" width="160" height="30" as="geometry" />
        </mxCell>
        <mxCell id="vcuSbffxkNOAJa39J86u-41" value="Has" style="shape=rhombus;perimeter=rhombusPerimeter;whiteSpace=wrap;html=1;align=center;" parent="1" vertex="1">
          <mxGeometry x="345" y="420" width="120" height="60" as="geometry" />
        </mxCell>
        <mxCell id="vcuSbffxkNOAJa39J86u-42" value="" style="shape=link;html=1;rounded=0;exitX=0.5;exitY=0;exitDx=0;exitDy=0;" parent="1" source="vcuSbffxkNOAJa39J86u-41" target="vcuSbffxkNOAJa39J86u-40" edge="1">
          <mxGeometry relative="1" as="geometry">
            <mxPoint x="395" y="433.88" as="sourcePoint" />
            <mxPoint x="509.9999999999999" y="369.99999999999994" as="targetPoint" />
          </mxGeometry>
        </mxCell>
        <mxCell id="vcuSbffxkNOAJa39J86u-43" value="1" style="resizable=0;html=1;whiteSpace=wrap;align=right;verticalAlign=bottom;" parent="vcuSbffxkNOAJa39J86u-42" connectable="0" vertex="1">
          <mxGeometry x="1" relative="1" as="geometry">
            <mxPoint x="-78" y="54" as="offset" />
          </mxGeometry>
        </mxCell>
        <mxCell id="vcuSbffxkNOAJa39J86u-45" value="" style="shape=link;html=1;rounded=0;entryX=0.505;entryY=1.022;entryDx=0;entryDy=0;entryPerimeter=0;exitX=0.5;exitY=0;exitDx=0;exitDy=0;" parent="1" source="vcuSbffxkNOAJa39J86u-41" target="vcuSbffxkNOAJa39J86u-36" edge="1">
          <mxGeometry relative="1" as="geometry">
            <mxPoint x="411.44" y="442.86" as="sourcePoint" />
            <mxPoint x="300.00000000000006" y="370" as="targetPoint" />
          </mxGeometry>
        </mxCell>
        <mxCell id="vcuSbffxkNOAJa39J86u-46" value="2" style="resizable=0;html=1;whiteSpace=wrap;align=right;verticalAlign=bottom;" parent="vcuSbffxkNOAJa39J86u-45" connectable="0" vertex="1">
          <mxGeometry x="1" relative="1" as="geometry">
            <mxPoint x="101" y="53" as="offset" />
          </mxGeometry>
        </mxCell>
        <mxCell id="vcuSbffxkNOAJa39J86u-47" value="" style="shape=link;html=1;rounded=0;entryX=0.5;entryY=1;entryDx=0;entryDy=0;exitX=0.5;exitY=0;exitDx=0;exitDy=0;" parent="1" source="vcuSbffxkNOAJa39J86u-6" target="vcuSbffxkNOAJa39J86u-41" edge="1">
          <mxGeometry relative="1" as="geometry">
            <mxPoint x="409" y="430" as="sourcePoint" />
            <mxPoint x="301" y="365" as="targetPoint" />
          </mxGeometry>
        </mxCell>
        <mxCell id="vcuSbffxkNOAJa39J86u-48" value="1" style="resizable=0;html=1;whiteSpace=wrap;align=right;verticalAlign=bottom;" parent="vcuSbffxkNOAJa39J86u-47" connectable="0" vertex="1">
          <mxGeometry x="1" relative="1" as="geometry">
            <mxPoint x="20" y="53" as="offset" />
          </mxGeometry>
        </mxCell>
        <mxCell id="vcuSbffxkNOAJa39J86u-49" value="" style="swimlane;startSize=0;" parent="1" vertex="1">
          <mxGeometry x="170" y="190" width="490" height="580" as="geometry" />
        </mxCell>
        <mxCell id="vcuSbffxkNOAJa39J86u-50" value="" style="shape=image;imageAspect=0;aspect=fixed;verticalLabelPosition=bottom;verticalAlign=top;image=https://cdn.iconscout.com/icon/free/png-256/free-postgresql-11-1175122.png;" parent="vcuSbffxkNOAJa39J86u-49" vertex="1">
          <mxGeometry x="420" y="9.5" width="60" height="60" as="geometry" />
        </mxCell>
        <mxCell id="Apm5uzUQa6lXVDGmzDan-2" value="" style="shape=image;imageAspect=0;aspect=fixed;verticalLabelPosition=bottom;verticalAlign=top;image=data:image/png,iVBORw0KGgoAAAANSUhEUgAACcQAAAPWCAYAAADEHQnjAAAABmJLR0QA/wD/AP+gvaeTAAECb0lEQVR42uzd+btdd10v8JU0bXP2+q6TNG1JCxaukoI8oaE567vO8VCGjdakZ33XPm3B3QsCMogyKCAqMlqPClhBEIQLwoUHlUlQZFa8TKIyeZVBoCDSokCBUqCFFlLSJNwfvGCBNM1whr339/V6nvc/sNf7s356P2sXBQAAAAAAAAAAAAAAN6Pf3zDVnH9G1aQ7h6a9KNTto6o6Pa6s26dVsX1miOm5ZZMuKZt0SdV0Twh1emQZ2/uEmYWfDDHdsej3N/oRAQAAAAAAAAAAWF39/sbQtHerYvcbVUwvC7H9SIhpb4jpO8eQ/WVMl4cmvbWM3dOrenBB2bSn+bEBAAAAAAAAAABYVuVsd6fQpItDbP8uxLTnGMdvR5LLQmxf0ItdW8wPpzwJAAAAAAAAAAAAjlhoBtvLJl0SYvr3VRzAHSrfDLH7yyqmxaKuj/eEAAAAAAAAAAAAuGnzw6myTg8IMb1nREZwB0/TXRli+sNN9cJtPTQAAAAAAAAAAAC+55RzFquy6R4dYvrCSA/hfjj7y7p7U9mkcz1FAAAAAAAAAACAjJ26fRhC7JZCTFeP2RDuYPk/vZlUe6oAAAAAAAAAAABZWVpfxfTzIaYvTsAQ7sY5EOr06k1N+jHPGAAAAAAAAAAAYML1ZlIdYvrQhA3hfjDfqpruCUVdH++JAwAAAAAAAAAATJptCyeGmJ4aYrphwsdwN87Hput2zsMHAAAAAAAAAACYEGEm3SHE9NGMhnA3zg1VTE8shsPjNAEAAAAAAAAAAGCMlXX7syGmazMdw90o7d/1di7eUiMAAAAAAAAAAADGzXB4XIjpuYZw35crpmM3qxwAAAAAAAAAAABjYuuOXWVZd28ygDto9pRNup+WAAAAAAAAAAAAjLiwY9ctqtj+k+HbIXOgit1vaAsAAAAAAAAAAMCICjt23SLE9FGDt8NL2aRLtAYAAAAAAAAAAGDElHOLW0OdPm7odsT5Q+0BAAAAAAAAAAAYEZvOSicZwx1LuiUtAgAAAAAAAAAAWGvbhyeEmN5u1HaMf59ad7+qTAAAAAAAAAAAAGtnXWi6Vxi0LUsOVLPdhSoFAAAAAAAAAACwBqqme4Ih27LmG6EZbNcsAAAAAAAAAACAVRTqdI8Q0z4jtmXPp6fnd2/RMAAAAAAAAAAAgFVQzi1uDTF9wXhtpdK+TssAAAAAAAAAAABWQYjpDUZrK5sqpgdrGgAAAAAAAAAAwAoq6/QAg7VVybWb6oXbahwAAAAAAAAAAMAK6NW7Tw8xfdVYbdXyNq0DAAAAAAAAAABYASGmvzBSW/XcW/MAAAAAAAAAAACWUdm05xmnrUm+eFJ97iYNBAAAAAAAAAAAWA7zw6kQ02XGaWuUpvtdJQQAAAAAAAAAAFgGZd0+zTBtTXNt2LHrFpoIAAAAAAAAAABwDKp43u1DTNcbpa1tqib9gTYCAAAAAAAAAAAcvXUhpncbpI1EvlXOLW5VSQAAAAAAAAAAgKNQNd2DDNFGJ2XdPk0rAQAAAAAAAAAAjtD0/O4tIaYvG6KNVL6++ewLNmsnAAAAAAAAAADAEShjerEB2uilqtPjtBMAAAAAAAAAAOAwVfXgLiGmAwZoI5kvFfPDKS0FAAAAAAAAAAC4Of3+hlCnDxuejXDq7mGKCgAAAAAAAAAAcDOqOj3O6Gy0U8Z0edHvb9BWAAAAAAAAAACAmzBVD24dYrrW6GwcRnHtfTQWAAAAAAAAAADgJoSY3mBsNi5pP1IUxTqtBQAAAAAAAAAA+AHVbHehkdl4ZbpOSXMBAAAAAAAAAABurB70yjp9xshszNJ071NeAAAAAAAAAACAG6ma9AcGZuOZqh7cRYMBAAAAAAAAAACKoijr9qwQ017jsvFMGdObtRgAAAAAAAAAAKBYWh9ieo9h2XinFxd26jIAAAAAAAAAAJC1ENuHGpRNQJruFdoMAAAAAAAAAABkq6oHp4SYvmJQNhHZNz2zuE2rAQAAAAAAAACALFUxvcyQbJK+Epeer9UAAAAAAAAAAEB2QjO4e4jpgCHZROX6Xr37dO0GAAAAAAAAAADysX14QojpUgOyyUvZdL+n4AAAAAAAAAAAQDZCky42HpvYfH3z2Rds1nIAAAAAAAAAAGDiTc8sbgsx7TEcm9xUTfcETQcAAAAAAAAAACZeFdNbjMYmPE13ZTE/nNJ2AAAAAAAAAABgYoWY7m0wlssoLj1C4wEAAAAAAAAAgIm0ZW5hOtTp88ZieaSM6fKi39+g+QAAAAAAAAAAwMQJMT3XUCyzUVzT3VfzAQAAAAAAAACAidKbSXWIaZ+RWGap08eLYmm9CwAAAAAAAAAAACbE0voypvcbiOWZaqbt3AAAAAAAAAAAADARQt0+yjAs479Njen9rgAAAAAAAAAAABh7ZdOeFmK62jAs96/Epbu6BgAAAAAAAAAAYKyFOr3aIEyqmN7iGgAAAAAAAAAAgLFV1oNdxmDy3fTqwYyrAAAAAAAAAAAAxs/8cCrE9GlDMLlRXukwAAAAAAAAAACAsRNieooBmPxA9k3PdWe6DgAAAAAAAAAAYGxUs+3tQkzXG4DJD6d9gQsBAAAAAAAAAADGxbrQdO8w/JKbyPW9nYu3dCYAAAAAAAAAAMDIK+v0AKMvOVTK2P6+SwEAAAAAAAAAAEba9PzuLaHprjT6kpvJNzaffcFmFwMAAAAAAAAAAIysUKcXGXvJ4aSK6YkuBgAAAAAAAAAAGEnTsZsNMe039pLDStNdWcwPp1wOAAAAAAAAAAAwWvr9DSGmDxl6yZGl/SXHAwAAAAAAAAAAjJQqto817pKjGMR9tqjr410QAAAAAAAAAAAwEqaa888IMV1r3CVHk7JJ93NFAAAAAAAAAADASAgxvd6wS44hlxbF0nqXBAAAAAAAAAAArKleXFgw6JJjTdV0A9cEAAAAAAAAAACsnXrQK2O63KBLjvlvU2N6v4MCAAAAAAAAAADWTBm7pxtzybKlGdzdVQEAAAAAAAAAAKsuxHTHENNeQy5Ztr9NjelvXBYAAAAAAAAAALDa1oWY/tGIS5Y7vXow47wAAAAAAAAAAIBVUzXdLxhvycqk/XMXBgAAAAAAAAAArIpq9sKTQ0xXGW7JCmXf9Fx3pksDAAAAAAAAAABWXBXbPzXakhXOC10aAAAAAAAAAACwokLT3i3EdMBgS1Y41/d2Lt7SxQEAAAAAAAAAACtj+/CEENOlxlqyGilj93RHBwAAAAAAAAAArIhQt0821JJVzDc2nZVOcnkAAAAAAAAAAMCy2rizvU0Z03VGWrLKeZLrAwAAAAAAAAAAllUZ05uNs2QN8pWtO3aVLhAAAAAAAAAAAFgWoWkvMsySNUudHukKAQAAAAAAAACAY3bKOYtVqNPnDbNk7dJ+ttg+PME1AgAAAAAAAAAAxyQ03XMMsmStU8bu51wjAAAAAAAAAABw1HozqQ4x7TPIkhHIpUWxtN5VAgAAAAAAAAAAR2FpfWi69xliyaikiu357hIAAAAAAAAAADhiIXa/bIQlo/W3qekDLhMAAAAAAAAAADgiZdOeFmK62ghLRi9d34UCAAAAAAAAAACHLcT0KsMrGck06a0uFAAAAAAAAAAAOCxlbH/a8EpGOb2ZVLtUAAAAAAAAAADg0LYtnBhi90mjKxnp1OnVjhUAAAAAAAAAADikUKffNriSMci+ara9nYsFAAAAAAAAAAAOanquOzPEtMfYSsbkK3EvcrUAAAAAAAAAAMBBhZjebmglY5Trp+a7W7lcAAAAAAAAAADg+5Sxvb+BlYxbqjo9w/UCAAAAAAAAAADfc1J97qYQ0xcMrGTcUsZ0XTV74cmuGAAAAAAAAAAAKIqiKEJMf2xcJWObOv2mKwYAAAAAAAAAAIpeM2hCTPsNq2SM85VTtw+DawYAAAAAAAAAgJz1+xtC7D5oUCXj/5W49lEOGgAAAAAAAAAAMlbW6deMqWRC8rli+/AEVw0AAAAAAAAAABmaas4/I8R0rSGVTErKOj3AZQMAAAAAAAAAQIZCnf7KiEomLJ8oiqX1rhsAAAAAAAAAADLSiwsLxlMyianqwQUuHAAAAAAAAAAAclEPemVMlxtPyUQO4mL7T44cAAAAAAAAAAAyUTbpEsMpmejU6R4uHQAAAAAAAAAAJlxoBttDTHuNpmSy0/6tawcAAAAAAAAAgMm2LsT0LmMpySG92TY6eQAAAAAAAAAAmFBVTD9vKCUZ5S9cPQAAAAAAAAAATKBq9sKTQ0xfNpKSjLI/zKQ7uH4AAAAAAAAAAJgwZZ1eaiAluaWM6cWuHwAAAAAAAAAAJkg1k+4aYjpgICUZZu9UPbi1twAAAAAAAAAAAEyCfn9DiO1HDKMk11SxfaYXAQAAAAAAAAAATIAqpicaRUnmf5t6XVUPTvE2AAAAAAAAAACAMbZxZ3ubMqbrjKIk+zTpYm8EAAAAAAAAAAAYY2XdvckYSiR9J8T01VO3D4O3AgAAAAAAAAAAjKEQ23sZQWWX6/0Gh/zr1F/xZgAAAAAAAAAAgDFzyjmLVYjpc0ZQE5tvhDq9vGq6B/XqwcyNv3x26vZhCDPpDmVs71/G9JIQ01V+r++m/WyxfXiCNwQAAAAAAAAAAIyRENMfGj9N4BfO6vSZKqYHF/3+xsMuQ7+/sWraB4aY/s1vmL5TNd2DvCEAAAAAAAAAAGBM9OLCzhDTDcZPE5UbQt0++Zi+brZt4cTQpItDTN/O/Lf8RFEsrfemAAAAAAAAAACAkbe0vozpAwZkE5UvVU2683I1JNTpHiGmq7P+TZt0T+8KAAAAAAAAAAAYcaFODzcgm6h8McykOyx7T5rB9hDTV7P929TY/pO3BQAAAAAAAAAAjLCyaU/L/stfk5Xry6Y9e8X6Etufzvmvdcum+ylvDQAAAAAAAAAAGFGh6V5hRDZBg62YfmXFO1On38z4N36btwYAAAAAAAAAAIygsknnGpFNUroPFkWxbsWL0+9vLGO6PNffudcMGm8PAAAAAAAAAAAYJf3+xhDTvxmRTVCadM/Vqk9o2osyHh7+pRcIAAAAAAAAAACMkBDb3zIim6hcVqzG1+G+Z2l9iOnSTH/r/VU9+HFvEQAAAAAAAAAAGAHTM4vbQkx7jMgmKHX77NXuUdW0D8z19y5jeok3CQAAAAAAAAAAjIAQ09uMyCZsoFUPdq16ker6+BDbz2b6m397qjn/DG8TAAAAAAAAAABYQ2XT3deAbOKy79Ttw7BGfXp0rr97FdOzvFEAAAAAAAAAAGCNbJlbmA4xXWFANnH51zUrVT3ohZi+nOnfpl5X1YNTvFkAAAAAAAAAAGANhCY933hsIodZL17jXl2c7+/fLXmzAAAAAAAAAADAKus1gybEtM+AbBLTPnQtuzU9v3tLiOkbmf7+X12rv6sFAAAAAAAAAIA8DYfHhdh90HBsMtOrBzNrXbEqts/M9wt97WO8ZAAAAAAAAAAAYJWUsX2M4djEZk9R18evdcem5rtbhZi+nekz+FyxfXiCNw0AAAAAAAAAAKywXr379BDTNYZjE5qme9+odK2M6cW5Pocqpgd72wAAAAAAAAAAwAoLsftLw7GJHsQ9Z1S6tqleuG2IaV+ez6L7ZFEsrffGAQAAAAAAAACAFVI27XlGY5Odskn3G6XOhSa9Jt/n0d7LWwcAAAAAAAAAAFbC/HAqxHSZ0dik/1XnebcfpdqVTXt2iOlAps/jQ0VRrPPyAQAAAAAAAACAZVbW7dMMxiY+14zi33SG2P5txl/sO9fbBwAAAAAAAAAAllEVz7t9iOl6g7GJz9tGsX+hTvfI+Jm83RsIAAAAAAAAAACWz7oQ0zuNxTL4GlndPm1USxhiem+2f2M72817DQEAAAAAAAAAwDKomu5BxmLZDK8uHNke1oMLMn42r/UmAgAAAAAAAACAYzQ9v3tLiOnLxmJ5ZGq+u9UI13FdiOljmT6bA6EZbPdGAgAAAAAAAACAY1DG9GJDsWzyhZHvY50ekO/f2aaXeiMBAAAAAAAAAMBRqurBXUJMBwzFssnrR76UdX18FdN/ZPp89m7c2d7GmwkAAAAAAAAAAI5Uv78h1OnDRmJZ5UnjUM1Qt4/K9hnV7bO9nAAAAAAAAAAA4AhVdft4A7Hc/pJzsGssylkPeiGmL2f6nL4Zdi6c6g0FAAAAAAAAAACHaaoe3LqM6TojsaxyoJq98ORx6Wio02/m+5W49NveUgAAAAAAAAAAcJjK2L7RQCy7kdWnxqmjJ9XnbgoxXZPp8/rqKecsVt5UAAAAAAAAAABwM0KT7mkglmGa7hXj1tWqTs/I9+9tu1/1tgIAAAAAAAAAgEOpB72yTp8xEMtwYBXTr4xbXcumPS3EtCfTL/p9vtg+PMFLCwAAAAAAAAAAbkIV22cah+WZqkl3HsfOhjq9KNtnFtPPe2sBAAAAAAAAAMBBlHV7Vohpr3FYlrlh645d5Tj2dlO9cNsQ075Mn9uni+HwOG8vAAAAAAAAAAD4PkvrQ0zvNQzLNh8a5/aGOr0632fX/Yz3FwAAAAAAAAAA3Eiou4cZhWWdF45zf8vZ7k4hpgMZjxnXeYsBAAAAAAAAAEBRFOXc4tbQpK8ZheWbqm4fMu49Dk16a67Pr6wHu7zJAAAAAAAAAACgKIoqppcZheWdcra707j3OMSun/EzfKc3GQAAAAAAAAAA2QvN4O4Z/9Wk/Fe+WfT7GyaizzG9J9uv/M12895oAAAAAAAAAADka/vwhBDTpQZh2ecfJ6XSVWzPz/c5tq/zUgMAAAAAAAAAIFuhSRcbg0kV07MmqNbrQkwfzfRZHgjNYLs3GwAAAAAAAAAA2ZmeWdwWYtpjECZlbO8zSd0uY/dz2Y4bm/Qn3m4AAAAAAAAAAGSniuktxmASYvrO9Mzitokqd10fX9bpM5k+z70bd7a38YYDAAAAAAAAACAbIaZ7G4LJ/89Xi6JYN3kd734522fadM/xlgMAAAAAAAAAIAtb5hamQ0xXGILJf42n0lsnsuj9/sYQ0xczfa7fDDsXTvW2AwAAAAAAAABg4oXYPc8QTG70NbHfndyupydlPHT8HW87AAAAAAAAAAAmWm+2jSGmfYZg8t1UMS1Oat9Pqs/dFGK6JtNB3NdOOWex8tYDAAAAAAAAAGBCLa0vY/qAEZjcOL169+mT3Poydk/P9dmWTfp17z0AAAAAAAAAACZS2XSPNgCTH8jnJr73c4tbQ0x7Mn2+Xyz6/Y3efgAAAAAAAAAATJSyaU/L9q8j5VB5bQ79DzG9MNu/xG26X/AGBAAAAAAAAABgooQmvcb4S35oLFW3j8+h/5ua9GMhphsyfc6fLobD47wFAQAAAAAAAACYCOVM2m38JQdL2XQ/lcsdhJhele2zbtqLvAkBAAAAAAAAABh/88OpENOnjb/kIDmw+ewLNudyCuVsd6cQ04Esn3WdPlwUxTovRAAAAAAAAAAAxlqI6SmGX3IT+URu91DF7q+z/RrgTNrtjQgAAAAAAAAAwNiqZtvbhZiuN/ySg6WK3Z/ldhOhae+W8TN/l7ciAAAAAAAAAADjal1ouncYfskh/kbzkTkeRojpH7MdQTbpzl6NAAAAAAAAAACMnbJODzD6kkNlum7ncryNqukGGT/313s7AgAAAAAAAAAwVqbnd28JTXel0ZccInuL+eFUpieyLsT00Uyf+4EQ0x29JQEAAAAAAAAAGBuhTi8y+JKb+evMf875Rsom3S/bZx/bP/WWBAAAAAAAAABgLEzHbjbEtN/oSw6d9gVZH8pweFyI6dO5fh1w80+c9z+8LQEAAAAAAAAAGG39/oYQ04eMveTmvxKWHpz7uYTY/lLGHfgjL0wAAAAAAAAAAEZaFbvfMPaSw8wdsz+Yfn9jiOkLmT7/PWXTnuatCQAAAAAAAADASJqqB7cOMV1r6CU3lzKm64p+f4OrKYoqpidm3IWnaAAAAAAAAAAAACMpxPQGYy85zLzbxfyXLXML0yGmqzPtwTUn1edu0gIAAAAAAAAAAEZKVQ8uMPKSw01Vp2e4mv9WNumSbLsQ28dqAAAAAAAAAAAAo6Me9Mo6fcbQSw47TXuRw/lv5dzi1hDTtzLtw5eKfn+jFgAAAAAAAAAAMBKqOj3DyEuOJJtmBz/qcr5fiO0Lsv1KXJN+UQMAAAAAAAAAAFhzIaY7hpj2GnnJEeQql/PDNjXpx0JMN2TaicuKfn+DFgAAAAAAAAAAsIaW1oeY3mPgJUf0NbCY3uJ2Di7E9Mp8/0a3+58aAAAAAAAAAADAmqma9IsGXnLk6ZZcz8GVM4s7QkwHsuxFnT5cFMU6LQAAAAAAAAAAYNVVsxeeHGK6yrhLjjTTdUou6BC3FdNbcu1G2bTnaQAAAAAAAAAAAKuuiu2fGnfJUY2e5ha3uqBD3NZMumvG/Xi3BgAAAAAAAAAAsKpC094t2791lGNKFdN/uKDDuLGY/iHfjiycowEAAAAAAAAAAKyO7cMTQkyXGnfJUaVJr3FEN6+aabtsvyAY2zdqAAAAAAAAAAAAqyLU7ZMNu+Tov/7VPtYVHZZ1IXYfzLQnB0JMd1QBAAAAAAAAAABW1Mad7W3KmK4z7JKjT9d3SYenbLr7ZvzXui/TAAAAAAAAAAAAVlQZ05sNuuQYsn/L3MK0SzpMw+FxIaZ/z7Qr+zbVC7dVAgAAAAAAAAAAVkRo2osMuuQY8zGXdIR3V6eHZ/w1wedpAAAAAAAAAAAAy27L3MJ0qNPnDbrkWFLW6aWu6QhtWzgxxPSFTDuzp2za05QAAAAAAAAAAIBlFWL6I4MuOeY06RGu6chVdfv4jHvzVA0AAAAAAAAAAGDZ9GZSHWLaZ9Alx5rebBtd1JHbMrcwHWK6OtPefH3z2Rds1gIAAAAAAAAAAJbB0voypvcbc8ky5NvFtoUT3dTRKZvu93LtTlWnx2kAAAAAAAAAAADHLNTpkYZcshwpY/qAizqGW9yx6xYhpm9l2p8vFfPDKS0AAAAAAAAAAOColU17WsZ/0yjLnu55rurYhCY9P9v+1N3DNAAAAAAAAAAAgKMWYvvnRlyybF+Iq9MDXNWx2TQ7+NEQ0w2Zduiyot/foAUAAAAAAAAAAByxsh7sMuKSZc1MuoPLOnah6V6R79/utvfRAAAAAAAAAAAAjsy2hRND7D5pxCXLmG8UxdJ6x3Xsyro9K8R0IM8etR8pimKdFgAAAAAAAAAAcNhCk37HgEuWOe90WcunrLs35dqlXuxaDQAAAAAAAAAA4LBMz3Vnhpj2GHDJsv7VZZMucV3LeKczCz+RbZ+a9PcaAAAAAAAAAADAYQkxvd2AS1bgry7v5bqW+Vab9Pe59qmqB3fRAAAAAAAAAAAADqmM7f0Nt2QlMlUPbu3Cllcvdm22XxysuzdpAAAAAAAAAAAAN2nTWemk0HRXGm/J8v/FZXelC1sZIXYfzLRXB3pxYacGAAAAAAAAAABwUCGmPzbeEl/zGi9lbO+Tbbfq9HINAAAAAAAAAADgh/SaQRNi2m+8JSvzhbh0sStbIcPhcSGmf8+0W/umZxa3KQEAAAAAAAAAAP+t39+Q8d8uymp8Ia5pz3NoKyfU3cMy/krc/9IAAAAAAAAAAAC+p6zTrxltyQrmQFUPTnFpK2jbwokhpisy7deeXr37dCUAAAAAAAAAAKCYas4/I8R0rdGWrGAuc2krr6rT47L9AmHdPk0DAAAAAAAAAAAoQmxfZ7AlK5xXubSVt2VuYTrEdHWmHfv65rMv2KwFAAAAAAAAAAAZ68WFBWMtWfmvd3W/6tpWR4jpqbn2rKrbx2sAAAAAAAAAAECu6kGvjOlygy1Z8aHSTLqrg1sdYceuW4SYvpVp175UzA+ntAAAAAAAAAAAIENlbH/fWEtWIfu27thVurjVE2L3vGz7VqeHawAAAAAAAAAAQGZCM9geYtprrCUrn/YjLm51TdWDW+d632VMlxf9/gYtAAAAAAAAAADIx7oQ07sMtWSVBkovdnKrr4rpZdl2rm5/VgMAAAAAAAAAADJR1e1DDLVkFb8Q91BXt/rCTLpDiGl/pr3716Io1mkBAAAAAAAAAMCEq2YvPDnEdJWRlqxWevVgxuWtjTK2b8y1d9N1ShoAAAAAAAAAADDhyjq91EhLVjF7iro+3uWtjem6ncu2e033Pg0AAAAAAAAAAJhg1Uy6a4jpgJGWrGLe6/LWVojp3bn2r6oHd9EAAAAAAAAAAIBJtH14QqjTxw20ZJW/0vUcx7e2enFhIdf+lTG9WQMAAAAAAAAAACZQFdMTDbRk1QdJTbqf61t7IaZ/ybWDvbiwUwMAAAAAAAAAACbIxp3tbcqYrjPQklX/y8rZ9nYucO2FmO6dcQ9fqQEAAAAAAAAAABOkrLs3GWfJGuSaolha7wJHwHB4XKjTpzLt4b7pmcVtSgAAAAAAAAAAMAFC7H7GMEvWKG9zgaP0Lmgfmm8X2xdoAAAAAAAAAADAmDvlnMUqxPQ5wyxZozzVFY6QbQsnhpiuyLSL1/fq3acrAQAAAAAAAADAGAt1+2yjLFmrVPXgAlc4WqrYPjbXPpZNukQDAAAAAAAAAADGVDmzuCPEdINhlqxVpua7W7nE0XLKOYtVaNLXMu3k1zeffcFmLQAAAAAAAAAAGDtL60PTvc8oS9YwX3CHoynE9JRsv1rYdE/QAAAAAAAAAACAMRNi+0sGWbLGeb1LHE3V7IUnlzFdl2Uvm+7KYn44pQUAAAAAAAAAAGOinFvcGmK62iBL1jhPco2jK8T03Gy72aRHaAAAAAAAAAAAwJgIMb3SGEvWOmVsf9o1jq6p5vwzQkx78+xmurzo9zdoAQAAAAAAAADAiAux64eYDhhkyRrnQDV74ckucrRVsfuzbAebTbqfBgAAAAAAAAAAjLJtCyeG2H3SGEvWPHX6lIMcfWEm3SHEtD/Tnl5aFEvrtQAAAAAAAAAAYESF2C0ZY8mIDOJe7iLH5b2R3pBrT6umG2gAAAAAAAAAAMAImp7rzgwx7THGktH4O8ru0a5yTN4dsZvNtqcxvV8DAAAAAAAAAABGUIjpbYZYMjpf3kp3dpVj9f54V7Z9bdq7aQAAAAAAAAAAwAgpm+6+RlgyQrmhmB9OucwxeofMpN3Zjjdj99caAAAAAAAAAAAwIrbMLUyHmK4wwpIRyodc5vipmvTPuXa2Vw9mNAAAAAAAAAAAYASEJj3fAEtGLC90meP4Lmkvyrizr9IAAAAAAAAAAIA11msGTYhpnwGWjNRfUNbtQ1znGBoOjwt1+lSmvd03PdedqQQAAAAAAAAAAGtlODwuxO6DBlgyailnuzs50PFUNd0vZNzdP9YAAAAAAAAAAIA1Usb2McZXMoL5ZtHvb3ChY2rbwokhpisy7e71vZ2Lt1QCAAAAAAAAAIBV1qt3nx5iusb4SkYw/+BCx1vZpF/P9uuGsf19DQAAAAAAAAAAWGUhptcaXskoporpWS50vG3dsasMMX0l0w5/Y9NZ6SQtAAAAAAAAAABYJWXTnmd4JSP8ha37uNLxF5r0Oxn3+EkaAAAAAAAAAACwGuaHUyGmywyvZFSzqV64rUMdf9XshSeHmK7NtMdf2bpjV6kFAAAAAAAAAAArrGy63zO6khHOV4uiWOdSJ0Nouufk2+XulzUAAAAAAAAAAGAFhWawPcS01+hKRjZNeqtLnRxTzflnhJi+nWef288WdX28FgAAAAAAAAAArIx1IaZ3Gl3JaA/iut91qpOlatKf5NrnMrb31wAAAAAAAAAAgBVQxfRggysZ9VQxLbrWCXv31IMfDzHtz7TTlxbF0notAAAAAAAAAABYRtPzu7eEmL5scCWjnl69+3QXO3lCbF9n5AkAAAAAAAAAwLIoY3qJsZWMftrPutbJNB272Xz/NjV9QAMAAAAAAAAAAJZJVQ/uEmI6YGwlY5DXutjJFWJ6Z7bdbgZ31wAAAAAAAAAAgGPV728IdfqwoZWMxV9L1u3jHe3kKuvBroz/NvVvNAAAAAAAAAAA4BhVdft4QysZm8ws/KSrnfB3Ukz/N9d+92ZSrQEAAAAAAAAAAEdpqh7cuozpOkMrGZMc2Hz2BZtd7mQLdRrm2/H2zzUAAAAAAAAAAOAolbF9o5GVjFE+4WpzsLQ+xPRvmXZ83/Rcd6YOAAAAAAAAAAAcodCkexpYyTilit2fudw8VHX7kGy7XqcXaQAAAAAAAAAAwJGoB72yTp8xspIxGwo90vHm8o6qjw8x/WemXb++t3PxlkoAAAAAAAAAAHCYqtg+08BKxi3TdTvnevNR1unXsv0aYp2eoQEAAAAAAAAAAIehrNuzQkx7DaxkzLK3mB9OueB8bN2xqwwxXZVj38uYrqtmLzxZCwAAAAAAAAAADmlpfYjpvcZVMnZfzGrSP7vf/IQ6/Xa+fxHcPlkDAAAAAAAAAAAOIdTp4cZVMpZp0vNdcH6m53dvCTFdm2nvv7J1x65SCwAAAAAAAAAADqKcW9wamvQ14yoZzy/EdQ9yxXkKdfvsfL8Slx6pAQAAAAAAAAAABxHq9HLDKhnj3NEV52lqbuFHQkzfzrP37WeL7cMTtAAAAAAAAAAA4EZCM7h7iOmAUZWMY8qYriuGw+Nccr7KOr003/53P6cBAAAAAAAAAADftX14QojpE4ZVMsZfyfo7h5y3Kp53+xDT/kxv4BNFsbReCwAAAAAAAAAAiqIIsf0tgyoZ51R1eoZLJtTpr/K9gcEFGgAAAAAAAAAAZG96ZnFbiGmPUZWMdZr2ItdMrxk0Gf9t8Ac0AAAAAAAAAADIXhXTWwyqZNyzaXbwo66ZoiiK0HTvyPYW6nQPDQAAAAAAAAAAslXG9j7GVDIBuco18733WpPOzfcW2r/VAAAAAAAAAAAgS1vmFqZDTFcYU8m4p4rpLS6aGwtN975c76E3k2oNAAAAAAAAAACyE2L3PGMqmYx0Sy6a73+/tffK9h6a9BoNAAAAAAAAAACy0pttY4hpnyGVTEKm65RcNd9vaX2o08czvYn91Wx7Ox0AAAAAAAAAAPIwHB4XYvoXQyqZmOzYdQuHzQ+qYnpwvl+J6/63BgAAAAAAAAAAWSib7tFGVDIpKev0GVfNQdX18SGm/8z0NvZONeefoQQAAAAAAAAAwEQrm/a0ENM1hlQyOV/CSq9x2dzkOy+2j8n1Nqom/YEGAAAAAAAAAAATLcT0F0ZUMlGjn9g+1mVzU7bu2FWGmK7K8uuJMV1X1YNTtAAAAAAAAAAAmEjlTNptQCWT94W4wd1dN4cSYreU8RcUL9YAAAAAAAAAAGDyzA+nQkyXGVDJhGX/lrmFaQfOoUzP794SYro20xv5yqnbh0ELAAAAAAAAAICJEmJ6qvGUTGA+5ro5HFVMz8r1Tsqme7QGAAAAAAAAAAATo5ptbxdiut54SiZu6FOnl7pwDsfU3MKPhJi+nemtfK7YPjxBCwAAAAAAAACASbAuNN07jKdkItOkRzhxDlcZ00tyvZWqaR+oAQAAAAAAAADA2Kua9oGGUzKp6c220ZVz2O/DeN7tQ0z7M72XTxTF0notAAAAAADg/7F3p2F2VNX+x08mkj61qrsTggFBRIgDNgnk7LW7E4PSQkxyau3TJOIRB+SKAzijOKBXwXbOdeCi3r9enEUUBQfEiSuCE+CECIqoKKigoiDzGDL9X6TRBDL0cM7pqtrfz/P8nodHeGPX2quqdq1TBQAAABRW95IVc8SHfzA4RUqa+yrz6zNZ6RgL0fDFaN8S1x9WUwEAAAAAAAAAAAAAAKCwxIePMjRFyppE7SescoxVVeuLRG1jlANxmv2UCgAAAAAAAAAAAAAAAIXU7bKBiD8NSOLIB1npGA9ROz/adVOrH0oFAAAAAAAAAAAAAACAYhkcnC7OLmdgipT7DXHhaBY7xiPx4bCI1863qQAAAAAAAAAAAAAAAFAoqYbXMTBFyv+mK9uf1Y7xErVLYl071f5MqQAAAAAAAAAAAAAAAFAIXa6xt6jdycAUKXnuqFSGp7LiMV7i7akRr5+zqQAAAAAAAAAAAAAAAFAIovZVhqVIBLmQ1Y4JmiJqV0a6fjbIQP3xlAAAAAAAAAAAAAAAAMi11DVWMShFYkjibQ0rHhPumT4cE+0aUvsYFQAAAAAAAAAAAAAAAPLLNaqJsz8yLEXiSHYEix4T75tuRqr2p0jX0f1drrE3RQAAAAAAAAAAAAAAAHIpdfYehqRILGGQB62SqL0y1nWUavY+KgAAAAAAAAAAAAAAAOSOqB0gavczKEWiiA//YNWjZVyjKmo3RvrZ1LtS15hLEQAAAAAAAAAAAAAAgBwZnipqFzMoReIZ4snOZd2jlUSzN0f8+eE3UwEAAAAAAAAAAAAAACA3RLPjGJIiUcXZSax8tFL3khVzRO2OSNfUzbv1NYUqAAAAAAAAAAAAAAAAky51jbmidhNDUiSqN8T5bCWrHy3vp5q9L963LtorqQAAAAAAAAAAAAAAADDpUg2nMyBFIsvGtH/1rqx+tFrXkrCnqK2NdF1dX+lr7kIVAAAAAAAAAAAAAACASSM+e5KobWRAikSWP7D60S6J2sdiXVupD8dQAQAAAAAAAAAAAAAAYHL0NXcRtasYjiIR5kwaANqlx9X3E7X1ca6t8NtKZXgqVQAAAAAAAAAAAAAAADpOnJ3EYBSJMYkLJ9AB0Nb+qnZ2tGvM21OpAAAAAAAAAAAAAAAA0FEjbzC6h+EoEuVnHWv2RLoA2inx2UGxfo461eynVAAAAAAAAAAAAAAAAOioRO3rDEaRSLN+3sLlCV0A7SZq3472LYw+HEYFAAAAAAAAAAAAAACAjhAfjmQoisSb7Aq6ADrSa2v1QyNea9+hAgAAAAAAAAAAAAAAQNvNGah3i7O/MBRFon1zldrH6AToFFG7JNa11l2rL6YCAAAAAAAAAAAAAABAW4naBxiKIpG/Ie44OgE6JXWNVRGvty9RAQAAAACAIpkzUO/u8bZvqisfW62Zq9bMSa1+aLU/083/bPv3eNs37V+9K38tAAAAAACAHKjWzInaegaiSMypan0R3QAdNEXUrox0vW2UgfrjKQEAAAAAQJ5014bmp66xKvXhDeLsDFG7OHH2R1G7Z4z3vfeJ2vWJ2o/F2RfE28nirLn5Xnh4Kn9pAAAAAACAthuemqj9mIEoEnnurTg3g36ATkqc/Ue8nyjOPkEFAAAAAAAmU+/ilfuIZseJ2pmidkNH7om93SJq5yQ+HC8125+jAAAAAAAA0Abi7OUMQxFil9AN0HHOzUjV/hTpmru/yzX2pggAAAAAAJ0kC5c/bGQ/9GJR2zj598fZFanLXj9rUfZIjg4AAAAAAEALJD7bXdRuZRiKRB+XnUpHwGQQl70i4rX331QAAAAAAKATevobjxIf3j+Oz592KhsSF75W9Q3P0QIAAAAAAJgA0ezzDEMRYpsSH55NR8CkcI2qqN0Y6dq7O3WNuRQBAAAAAKBdkoGheam3T4na+oLcK29MNDu3x9X34+gBAAAAAACMUeIayxmEImRz0v7sMXQFTBZxdlK86y8MUwEAAAAAgNYbnirOXlzgr2PcIy57U2V+fSbHEgAAAAAAYDTm12eK2u8YhCLENonabZXK8FQaAyZLzwKbLWp3RLr+bp67dCilCgAAAAAArTJnoN4tmn2lJPfNP+9dvHIfjioAAAAAAMBOiA9vYwiKkH/lfLoCJlvq7b3RfrLYhROoAAAAAABAK4hv9Ina70t17+zDP8RnT+LoAgAAAAAAbEfanz1G1O5jCIqQf+UddAZMtsRnu4vavVGuQWd/qfQ1d6EKAAAAAAATureuDS0UtZtKev98X1VDxlEGAAAAAADYBvHhAgagCPl3UtdYRWdALvqzs49Euw7Vnk8FAAAAAADGK3WNx4naDSW/f75HavVDOdoAAAAAAABbSDQczQAUIVuna0nYk+6APOhx9f1EbX2ka/EPlWZzGlUAAAAAABjz/fQCm504+2Mk9893pq7xOI46AAAAAABAZfPGkPjwDwagCNkqf6M7IE/E2RfiXY/haVQAAAAAAGCMpojaOZHdQ/+y4hpVDj0AAAAAAIieqJ3G8BMhD072FboD8iTpDweK2sZI1+QvKpXKFKoAAAAAADDq+2gXToj0HvoDHH0AAAAAABC1bg39oraB4SdCtk6q9p90COSNeDsv1jWZaPYUKgAAAAAAMBrJwNA8Ubst0nvo9Ul/OJAqAAAAAAAAcRocnC5qv2D4iRCGb1AMomEw2nXpwwVUAAAAAABgNFLNPh353tZFFd60DgAAAAAAYpR4ew2DT4RsMxu7l6yYQ5dAHonaxdG+ubE/LKECAAAAAAA70j0QHs0XMWxT4m0Z1QAAAAAAAKLS5Q9/hKjdyeATIduIs6vpEsirVLPDI16bX6YCAAAAAAA7ImofZH/LNiUufI1qAAAAAAAAURHNvsLGECHbHbo5gy6BHJsiar+K9e2N4ht9lAAAAAAAYFtmu2U9onYH+1u2SdQ2dA+ER1MVAAAAAAAgClWt19kQImRHn5QIx9MpkGeJhqPj/YW7fZIKAAAAAABsS+rDMextbZkwTFUAAAAAAIDyc41qonYtm0GEbD+ptyfQLJDvXu5mJM7+GOkavX/WouyRFAEAAAAA4MFE7Rz2trb6CsLlVAUAAAAAACi9RLP/YjOIkB1mXWVJs4tugbwTZy+Pd0M/O5UKAABg5JpAs5eK2jUkh3H269TbpVtG1C4StfNF7avi7Auidpr48P7E25rUhzeIZi9NNHtmUrMVVd/wPf2NR812y3qodAAYBdeoitrd7G1tnR5v+1IcAAAAAACgtMQ3+kTtfjaCCNnhpyQuo1ugEFyjKj78I9K1ercsqu9GEQAAUKmIy97ENXwcb8kVza4TtYtF7Wxx2amJt9ckPjw79fYEWbj8YawGALFLvC3jfLGtLyGEF1IdAAAAAACgrKaI2nfZBCJkpzmNdoGiiPoBuLO3UAEAADAQR7bKHaLhMlE7O/HhXakPx1Rr5ngDNoBYpGr/ybmAvS4AAAAAABCR1GUvYPOHkFH8atZlL6BjoChmu2U9onZbpOv15rlLh1KqAAAQOwbiyCiyXjT8VrydJc5OSn1o8EY5AOU8J9qX6fl8DQEAAAAAAEQi7V+9q6jdxOYPITtPUhtaSNdAkSQa3h3tenX2aioAABA7BuLIuK+l1K4Vtc8lPhzf7bKBSl9zF1YUgGLfH9u19Pdtf3a74twMKgQAAAAAAJRK6u1TbPwQMqrcXRkcnE7XQJEkPttd1O6NdM3eUBkcnEUVAABixkAcaeX9kKidnzo7MXWNg7k3AlAozeY0UVtHL992ehev3IciAQAAAAAApZHW7ImitpGNH0JGlR/SNVBEonYanzkGACDS6wAG4kgbP1EvGr6Y+uy5qWvMZbUByLMu19ibvr2D+OxJVAkAAAAAACiHvuYu4uzXbPoQMsrBGrVTaBwooh5v+0b8S/g/VJrNaVQBACBWDMSRDmVD6u1S0TAsA/XHs/IA5E3qGgfTq3fwmWxvR1ElAAAAAACgFETtjWz4EDKGzUHNnknnQHF7fvb5aNevsyYVAACI9hqAgTgyOddfvxYNwz39jUexCgHkQdofVtOfd7Dn5cIJVAkAAAAAACi8WYuyRyZqd7HhQ8jo0+Pq+9E9UFRJfzgw2k9kO7u8UqlMoQoAADFiII5M9pvjRO3CVO35s92yHlYkgEm7J3bZs+jJO8wbqRIAAAAAAFB4iQtfY6OHkDHl5goDNSi4VO1b8f7avbGcCgAAxIiBOJKj3JtqOL2q9UWsTAAdvx922QvowzvM26kSAAAAAABQaOKsySYPIWOMt/PoHih8//eNQyJexxdSAQCAOO//GIgjucwliWbPqcyvz2SVAujQfujL6b3bT6p2ClUCAAAAAAAKa+7SoVSc/YWNHkLGPBD3VjoIykDULop2g9/bE6gAAEB0534G4kiu77PCP0TDcO9Bq3pZrQDafD58BX13B3HZqVQJAAAAAAAoLHHZqWzyEDKeQZrQoIOgDFIfGvGu5ewrVAAAIMJ7QAbiSBFyu/jw/qpbsQerFkCb7oVfSK/dYd5BlQAAAAAAgEJKakMLRW0dGzyEjD08mEGJTBG1X0W6ljeK2gGUAAAgJgzEkYLl7sRl7+SNcQBavi/q7Sh67A7fEPcmqgQAAAAAABTQ8FTx4Uds8BAyrrdKXUcPQZnE/CAg1ezTVAAAICYMxJGC5ubU2YmVJc0uVjGAlpwPvT2V3rr9JC6cQJUAAAAAAIDCEc1eyuYOIeNN+CJdBKXSbE4TtT9Euqbvn7UoeyRFAACI5l6QgThS7Pw58XZUpVKZwmoGMKHzoW8cQk/d0UBc9iyqBAAAAAAAFEoyMDRP1G5lc4eQcb5RytmJdBKUTeSD0h+gAgAA0ZzzGYgjZYi3H4jaAaxoAOPV421f+umO9r4aB1MlAAAAAACgUETtc2zsEDKB1OqH0klQOoODs0TthkjX9d2yqL4bRQAAiOJ+kIE4Up6sEx/eP3fpUMrKBjBmfc1dRG0DvXTb6fKHP4IiAQAAAAAAhZFo9hQ2dQiZUDb2HrSql26CMkrV/jPet4yEt1EBAIAYMBBHyvgZVX60BGBc50S1v9FDt5l7Ks3mNCoEAAAAAAAUw/z6TNHwWzZ1CJlQfkMzQVnNGah3i9ptka7t22a7ZT1UAQCg7BiII2X94ZKonTZv4fKEVQ5gtFK1b9E/t5mLqA4AAAAAAFAY4uwtbOgQMrGkmn2aboIySzT7r1jXd+LtNVQAAKD894UMxJFS56pqf6asdACjOif68Db65jb3vt5HdQAAAAAAgELoHgiPFrV72dQhZKIJL6OjoMySgaF5onZPpGv8hsrg4CyqAABQZgzEkQiyLnV2IqsdwM6kakP0zG3EhyOpDgAAAAAAUAii9h02dAiZeLpdNkBHQfnPGdmHo/0lvA8vpAIAAKU+zzMQR+LJ5/iEKoAdSV1jrqitp19ulft7FthsqgMAAAAAAORe4u0oNnMIac2mIG+PQgx6vO0rausiXefXVAYHp1MFAICyYiCORJbfyED98ax8ANs9L6p9n165ZbL/oyoAAAAAAEDuzXbLekTtb2zmENKCN0ep/YyugliI2uf4PAwAACU8xzMQR+LLraJhkNUPYFsSF06gT24RZy+mKgAAAAAAQO7F/Nk7Qlo/JGMfoqsgFkltaKGobYz0AcDllUplClUAACjlPSIDcSTOrE1c9iw6AIAH63KNvfls6r9yx2y3rIeqAAAAAAAAuVb1DS9qG9jMIaRFb4jz4Rg6C2KSqn0j1vWe+GwlFQAAKCMG4kjE2SgahukCAB5yblT7Ej3SNonLTqUaAAAAAABAvjWb00TDZWzmENLKN8Q1+mguiElasyfGu+az71EBAIAyYiCORP9DJ2fvoRMA2Orc6LMn0R9tXY+r70c1AAAAAACAXEtcOIGNHEJamjsrzeY0ugtiI2oXxftWSHsCFQAAKN25nYE4QjalaqfQDQBw77tVPkAVAAAAAACAXKu6FXuI2m1schPC26KAiUprWYh47X+VCgAAlA0DcYT8K/9NRwDwr/1UrS8StQ2R9sOb0/7Vu1IFAAAAAAAg10TtS2xsE8JndYAWmRLxJ7g3itoBlAAAoFT3iwzEEbLlG4HfS1cA8IBE7WNx9sJwDEcfAAAAAADkWuKzlWxqE9KG+OzpdBjEe24Jz473c1rhdCoAAFAmDMQRsnUSZ6+mMwCoVCqV3oNW9YraNVH1QWdf4MgDAAAAAIB8W9Lsim7ThpAOpXfxyn1oMohWszlN1H4f6fpfx/oHAJQJA3GEPPStwIm3o+gOACqVSqVaMydq90XS/343d+lQylEHAAAAAAC5lvjwLjayCWlLbqTDIHbi7SUR94APUgEAgNKc0xmII2RbWZv4cBgdAkClUqkkGo4WtQ0l73t/7elvPIqjDQAAAAAAck18o0/U7mcTm5B2fDLRvkGXQfQGB2eJ2t8i7QP3Jj7bnSIAAJTi3pGBOEK2l5t7vO1LlwBQqVQqqdrzSjwUd2vSHw7kKAMAAAAAgLybImoXsnlNSLsShmkzQKWS+vCGiHvB26kAAEAZMBBHyI6SXVFxjSqdAsDme2A7VtTWlanPJWrXitoBHF0AAAAAAJB7I79YZOOakDalqiGj0wCVypyBereo3RppL7httlvWQxUAAIqOgThCdhJnZ9ApAPxr39U1Dha1G0rS4y5OBobmcVQBAAAAAEDupf2rdxW1G9m0JqSNWbj8YXQbYLPEh3fF+/nk8DoqAABQdAzEETKqN8UdR7cA8ICugfpe4u28Ave1taLZmyt9zV04mgAAAAAAoBASzT7BRjUhbfyUhLM/0mmALc47A0PzRO2eSHvC3ytLml1UAQCgyBiII2RUuU98o4+OAWCrc6gPR4ra3wrVz3z4EZ9IBQAAAAAAhTLyyv6NbFQT0s6NQzuLbgNsTbx9iLeFAABQ0PM4A3GEjDY/rzg3g64BYEvzFi5PEh+OF7Xrc/7558vFWbNSqUzhqAEAAAAAgOIYHJwuml3BBjUh7f5EYvZaGg6wtZ7+xqNEbV2kfeGayuDgdKoAAFBUDMQRMpaBkuxNdA0A2zS/PjNVe554+0GOfrB8r2j2+cQ1lnOAAAAAAABAIaU+vIHNaUI68Ya4xiF0HOChxIfPRtwbnkEFAAAKew5nII6QsWRt4rOD6BwAdqTLNfZOnZ0omn1P1O7rcJ+6TdTOSb0d23vQql6OBgAAAAAAKKwu19g7UbuLjWlC2p4Ncwbq3XQd4KESly2I97Pd2RUVPjsDACgoBuIIGeNbw71dWqkMT6V7ABiVJc0uqdUPFW8ni7ezxNmvRe3+Vg3pitovUrXPpJq9Nu0PS3iDOQAAAAAAKI1Es3PZlCakI7mSjgPs6HxkX4+1P1S1XqcCAABFxEAcIeMYilN7Pt0DwLg5N6O7NjQ/dY2DRbMjxNnLxdvJibc1iYZ3i9ppDyR19p7E2xpx2ZtG/runpt6e0Lt45T4MvwEAAAAAgNISzY5gM5qQziTR7BN0HWD7umv1xRH3iO9TAQCAQt5TMhBHyHjyz7R/9a50EAAAAAAAAABosblLh1JRu56NaEI6FGcvpvMAOyZqP4z3TSH1pVQAAKBw524G4ggZbz5ABwEAAAAAAACAFkvVTmEDmpAOfhKxP1M6D7Bj3c4s4rdInksFAACKhoE4Qsaddd0D4dF0EQAAAAAAAABokcRlC0TtfjagCelY7qvMr8+k+wA7Jxoui7RPbExctoAKAAAU6rzNQBwhE3mL+Bl0EQAAAAAAAABoieGponYJm8+EdPLNT/Zjeg8wOolmz4z3s6n2GSoAAFAkDMQRMqFs4AcRAAAAAAAAANAC4uzFbDoT0vF8kO4DjFKzOU3Ufh9pr1jf4+r7UQQAgOLcXzIQR8iE4u0sOgkAAAAAAAAATEAyMDRPvN3CpjMhnX5DXDiaDgSMnrjwoog/nfX/qAAAQHHO2QzEETLBbBS1A+gmAAAAAAAAADBO4uwMNpsJmYTUbH86EDAG8+szRe1vkfaMe6tuxR4UAQCgGPeYDMQRMvEfUNnH6SYAAAAAAAAAMA7iG4eM/PKYDWdCOps7KpXhqXQhYGxSZydG+1DUZe+kAgAAhbjPZCCOkFbkvsRnu9NRAAAAAAAAAGAs+pq7iNpv2GQmZBLiwwU0IWDs5gzUu0Xt1kh7x+29B63qpQoAAHnHQBwhrUr2ZjoKAAAAAAAAAIyBaPZmNpcJmaQ3PXlbQxcCxidx2Ttj7R2psxOpAABA7u81GYjbMlcm3pZNWjR7ijhrirNmouHo1NuxqbdjRe2Novbf4uwMUfu2aHbFyKfp13HMcpW/V+bXZ9JVAAAAAAAAAGAUumtD80XtXjaXCZm0X/ofQScCxkcWLn+YqN0T7UPRJc0uqgAAkOtzNQNxW+aiQh0852akuvKxqWusSjW8LlH7uKhdJGp3ciwn7e3iR9JVAAAAAAAAAGAUUg3fZGOZkMlLlz/8EXQiYPzE2f+Ltoe48CIqAACQ7/M0A3GFHYjbnmZzmvhGX+rt2FTD6YmzP3JsO/SGYLVv0FUAAAAAAAAAYCcSlz2LTWVCJjU30ImAienpbzwq1k96JWrXVgYHp1MFAIC8YiCuhANx2zrONdt/5Fj/guPc1qyruhV70FkAAAAAAAAAYDvmDNS7Re2vbCgTMpnDLNm5dCNg4lK1z0TcR55JBQAA8oqBuDgG4rbUXRuanzo7UdR+wzFvw7Wft9fQWQAAAAAAAABgO6L+xBwhufncoZ1ENwJacE6r2f6itiHOXpJdUalUplAFAIB83ncyEBfbQNwWplQ1ZKJ2Pse+pfklnQUAAAAAAAAAtqHan6morWcjmZBJ/nV/zVbQkYDWSDQ7N9Ze0u3MqAAAQB4xEBf1QNy/r9NqQwvF2RmitpE6mHjS/uwxdBcAAAAAAAAA2FKzOU3Ufs4mMiGTno1p/+pdaUpAa3S7bCDafuLDj6gAAEAeMRDHQNyWqjVzonYxtTDBgTjNXkt3AQAAAAAAAIAtJGqvZAOZkFzkD3QkoLVE7fvRPhh1jYOpAABA7s7NDMQxEPcQw1NTH44RH/5BTVBLAAAAAAAAADBhVbdiD1G7jc1jQnKRM+lKQIvPc1qvR/sJZrWvUwEAgLxhII4hpu3WxqL6bqL2bepiXNmQ+Gx3qggAAAAAAAAAKpWKqJ3NxjEhORleceEEuhLQlnNdtJ8Fr2p9ERUAAMjVeZmBOAbidqTZnCZq7xC1jdTHGN8O7MMxFBAAAAAAAACA6CU1W8GmMSF83hAoO1F7RrS9xYfPUgEAgFydlxmIYyBuFNJaFhK1u6iRMcTZGVQOAAAAAAAAgLgtaXaJ2jVsGhOSm6yft3B5QnMC2qDZnCbOro61t3TXhuZTBACAvGAgjoG40Upd42BRu5M6GXX+StUAAAAAAAAAiNrIJ0jYMCYkN8muoDMB7TzvZcfF+5Y4+xAVAADIzTmZgTgG4sZgZCjuDmpldOkeCI+magAAAAAAAABESQbqjxe1tWwWE5KfJGofpzsBbTS/PlPU/hZpj7k38dnuFAEAIBf3owzEMRA31prxjUPYwxhdUm/HUjEAAAAAAABbcI1qzwKb3dPfeFSPt317vO2b9IcDqzVz20t3bWj+A/9t6hpzd+trCn9IIP+miGbfY6OYkNy9Ie442hPQXqlmr4126NbbGioAAJAHDMQxEDeuutHspdTLqPI5qgWFuDfrX71r4rIF3c4sddkLRMOwaPbh1NunxNtZiWbnitr5onaR+PCjkX9+IF8Vb2eJ2pmi9r+JtzWpsxNFs+PEhyMTHw5LdeVjK0uaXfylgYIYHJxeXTT08KQ/HCi+cUjqGqtSnz03UXulaBhOvK1JvK0Rbx8StdPEh4+Kt7NGesE5W/SHi7b453M2//vs86J2mqidlqqdknhbI2rvSJ2dKN5ekmj2zKRmK7o19HfXhubPGah3c0CA4pjtlvUktaGFiWssTzR7pjh7+ebrCvugqJ050ie+tEVv+GGq2U8fdG3xpS16ymmJZv+Vuuz1/7q2cI3lVa0vkoXLH8ZfPB7zFi5PRO2AxIfDxIcjRbOXireTxYf3i7MzRurl7H/XUfa91NulovbdB9XXOeLDZx+oLfF2cuLD8YkPz068LUtctiDx2e6VZnMaf3Vg53oW2GwZqD8+8eGwRLPnJM5enbjsnaL2v+LsC6L27ZG1eI2o3SRqt7dh7+VOUfunqP0+UftJquGbm/tCeL9o9ubU27HdziypDS2URfXdOGpAJzecfPZcNogJyV+qrlGjQwHtNXfpUCpqt0baZ26f7Zb1UAUAgMnGQBwDcePez9Ds09TMTvMHKgV5sltfU7pdNpB6O1Y0/I94+4Go3dbBNXGjaLhMnH1ZfHibaHha2p89plIZnsrRATpkcHB67+KV+4hvHJJoOFo0e3Oi2SfE23mi9ktR+7uobczZ+fSekYeoF4mGL4oP709cOEE0O6JaM5e6xlwOLNDZPpK4bEGi4ejEh3eJsy+kaj8bGUbo+Jc4xNnVonbh5vuTMCw+e7qoHVDpa+7CwSpebclA/fGJy54lau8Qtc8laj8WH/4xCbV1v6hdIz5ckKh9fPPeSXiaDNQfX3FuBgcLkZjSNVDfK63ZExPNniPeTk40+8TIoOk1onZvUb/iJM6uTtW+JWofTHw4vqoh6x4Ij2YYFmihtH/1rps3gtgkJiRvJ0IuaIHOELW3x/sJrfAGKgAAMOnnYgbiGIgbp5Ff6F9J3ewwG3sPWtVLtWDSLGl2JT4cJmrvGHmz27pcvkFb7a5qzRwHDGgh52Yk/eHAxIdnb957CV8cOW+X9bPnd4qGyza/gS4MJ5o9s+oatXkLlycUAzAx3bWh+ana80XtfxO1n4wMqRahL9wvaleJ2tnisjdJrX4on9fLl1RXPjb14YWb3xqa/bRgtXWl+PDZxIfj0/6wpDI4OIsjiiJfN4raAaLhaeKyN428RfHnidpdEe7j3JN6uzRR+3ii2asSHw7j5RbAOIkPH2VzmJAcxocf0aGADp0LFy5/mKjdHWm/+TufDQIATPq5mIE4BuImoFozJ2obqJ0dpFY/lEpBR9floqGHi8teIT5cUKhf7Ndsf44eME7N5rSq1heJt5eIDx8d+SzVWs7DtknUNoy8PepscXZSqtnhvYtX7kPRANvX5Rp7pz577uY3rmXXlawnrBdnl4u3DyWaPSfx2e4c8c5JXeNx4uzFonamqN1Qstq6P1H7SeJtTeIayyuuUeWII4/mDNS7U9c4WDS8LFH72Mh1431cM+70evLXidrHUx9emLhsQaVSmUI1ATs+6R+cw1ePE0LUNonLTqVLAZ0jah+MdwDXXkIFAAAm9TzMQBwDcRM08rkM6md7bwXW7LWFO6Y+271aM1f09Lj6ftGsw4GheeLtJaLZ94o6pJqnTx72Ll65TxnWwETTNVDfi7NcTs2vzxRnTxYNw6L2bVG7g3Pu2D/hnKp9QzQMVzVksqi+G4XVfl1Lwp5l6ZFl+6Sa1Gx/UXujqP08tjc6p94uFW9v7a7VF/MZ91YbnppqfWmi4d0jw8kx1dZaUftu4sIJPd72pRYwWXq87ZtoOFp8eP/I8Bs/amxNbhJvZyU+HM/bzoEH2/zayV/RKAjJZxJvR9GogM6ZtSh75MhrxuPrN2rXVgYHp1MFAIDJwkAcA3ETrqHNb/y9jfrZXrLPF+2YphpeV5K//5UlX35TEs2eImpfFbX1RX9bS54eQG9+Iw79K9Hwbs5y+ZG4bEHi7NWp2rciftN+u/O7RLNPpD57bndtaD5V15Y6fmdpfvTgGgcX/Xj0uPp+4u2tI58VpQf8a8AhfFR84xCG48Z/jZrW7Imidpqo/Z2a+td94RWiYbh7IDyaEkHbDA5O767VF6cue/3INSN7NZ3LNeKyU6VWP5RnfoheiTYWCSnpL/hXPpZOBfDAoXNDuOHZVAAAYLIwEMdAXCsk3l5D/ZRnKKtE+1Yb0/7Vu5Ztvc1dOpSKZi8Vtd+U6U1N3J8yEIcHaTanic+elKqdkqhdS01OSv4mamemas+ftSh7JEXZgmvGEg3Eido7CnkQ5tdnitozRO07fMVqp/lz4sO7xDf6WL0717Uk7Jmq/WeEb4IbTy4RZy/uWWCzqRxMzPDUan+mqbMTUw3fFLU7WV+5+DLULeLDZ1PNDq/0NXehThHXBYFr7E0zIiTXua3Cd7+Bjht5LX+cr2p29mt+cQgAmLRzMANxDMS1gmtURe1mamibua9on9Qq0w85U7WhsiyztH/1rom3NaJ2eznvifK0BhiIYyBu8nTX6otFw/+I2o3UYe561dXi7UOpa6yat3B5QrWOXbkG4sJlRfrbdw3U90qdvUfU/sl6HlcuFmdN3vrzEFMS11g+MoiznjoZc+4WZx9JXLaAUsKorxWXrJgjzpqidpo4+wvrKPe5NdVweuJtWYX5A0Rxwa/ZuSx8QnKd8+lUwOQQtXOifTOlDw0qAAAwKedfBuIYiGvZfkd4NzW07fT0Nx5VpGNZqoE4b+8t+trqPWhV78jnzO4o8Tr5fr7WAANxDMR1Vpc//BGiYVjUfk/tFSb3JJqdm6o9TxbVd6OKR3m9WK43xG2suhV75P66rj97TKL2MVFby7ptyY8t/pR4e03vQat6o17Mzs1INHuOOLucumhZLqxqyDhTYHu9PHV2oqhdzPBpofOHVLPXpq4xl6pGOZuVa6xioROS880+l72TbgVMjs2/guYBPAAAncRAHOfjVhl5I/466mgb95k1W1Go/asSDcQlaj8p6pqat3B5Is5OErVbI1gnX8rXGmAgjoG4jpiSuMZy0ewrPNgsfNaLtx8kzl7d4+r7UdrbV7KBuE2pD8fk9m9dG1oo3s6K9osc7c8d4u2ts92ynqgW8eDgrESzV4na9dRAu4Yus5+mtSxUeJNU9KpaXzTyw6grWRuly72phtO7XTZApaM0dutrimh2HQuckJxfbPaH1XQsYBIfyqt9N9oe5LMnUQEAgI6fexmIYyCutddyZ1NH2/rEWvaKIh3HMg3Eidr9RfysnWh2RGT7iP+brzXAQBwDcW00ODgr9XasOLuaOittfiVqb6/2Z1phoGErZRuIE29n5e1v3DVQ3ytx9kkG4TqWf6aavbaypNlV8nPX9FTt+QzCdXowzp7ImSOyPZWB+uNF7e2J2rWsg2jy/arW61wzovBSb+9lQROS/3QN1PeiYwGTuDFWsxXx3uSGb1IBAICOb7YxEMdAXCv3PjQ7nDraZj5QrONYqoG4TYm3ZUX523cPhEeLt/Pi+3FQeFvOehkDcQzEtdxst6wnddnrRe0G6iuuT2OJZm8u2ufT27bvV7aBOLVbK4OD0/Pwt50zUO8WtXeI2t2su8n4AYz9JfXZcyvlG2iYsvmHGvYbjvOk5WzOIeXWtSTsmTh7tWi4jHqP+jxyuag9o1IZnsqqQPEu8mtDC/lsCCGFyF/pWEAOHszHe+G/MekPB1IBAICOnncZiGMgrpWWNLt4CLfNjc0vF+kwlm0gTpy9Jfd/9Pn1meLD20TtvigHr3w4Pl9rgIE4BuJayDWqI331Zuoq6mwUte+nas+bM1DvjvZZWfkG4jbl4Q1OovYMUfs76ywXuTDtzx5Tir2Cmu0vat/nmObj84risjdVnJvBhVVJzK/PFJ89XdS+zRs9yYMH40beGAcUxfBUUbuEBUxIIXIOPQvIwc325huBWPvQmVQAAKCj510G4hiIa3VNqX2VWnrwUIn9uEjHsHQDcWoX5vnvnfSHA0Xtl1GvEZc9K19rgIE4BuJaYHBwurjwIlH7K/VEHpS7xdkZiWssrzSb02JaFmUciEt8eNdk/T27Bup7JZqdy5rK4/CSnVTpa+5S0PPXrJEfaqzlWOYt2RUjn+NGYZ99NfpStVNE7SbqmexkvX+v22UDrBrkfxPR27EsWEIKkzfStYAcaDanibOrI+1D63tcfT+KAADQsc04BuIYiGv1Poja86ilh+T6Yh3D0g3E3Z3LB5LN5rSRzydG/7AxcY3l+VoDDMQxEDfB6yufPSn2QVcy+s8sJt7WSM32j2FtlHEgTpxdPgl/yini7MWidjvrKN/DS6lrPK5Y+wP2ZFH7Pccu388PxNtbYxuoLrS+5i6JZs8UtYupXzLmr0qpfTx1jbksJORzA9E15jLhS0iRNvqyp9C5gJycQ314YcSbJR+mAgAAndvwZiCOgbjWSny2O7X0kNxfqQxPLcy1ePkG4jal/WFJnv7GPd72FbWLWBubU9X6onytAQbiGIgbn6pbsYf48NmRz2OyvslYP6l6fupDo0jXDGO+TizjQJzaxuqioYd37BzVv3rXxIWvsWYKkzsTDUfnfnE6NyPxtoZPNxYo3n7Q5Q9/BFdfOT7nDQzNS52dKJpdR82SCa73WxIfjmcQFnncQDydRUpIcW5cexbYbDoXkBPz6zMj/qzIvVW3Yg+KAADQCQzEMRDXlo1fZ3+knh78Oa1s9wLtZ5VvIE7D6/Lz97UhUbuNdfHv5O1hHgNxDMSN69yn2XPE2y3UDmlB/pBo9qrZbllP+a4RSzkQtylVe35Hzk+ucTCDFUV9G659ct7C5Uke12WPq++XqP2E41TI/DOp2QquwvKl6ho1cXYGbwInbcgP+cIU8vNQYfNr0fklGCHFye/oXEDONsm8vSbeB6a2hgoAAHTk3pWBOAbi2lFXamdTTw+6vqsNLSzK8SvjQFziwtcm/y87PFW8vZX9woemsqTZla81wEAcA3GjV3Ur9kg0O5eaIe14s5Ro+J9UVz62NHt9JR2IEw1fbPOfbsrIZ9bXsS4KnV908m2Co3uWHY7k07sl+ISqy17BFVkO7iFc4+CRN3hyv0famXtSZyeW+Y3CKILNb7X5DQuSkCK9bjR8luYF5MvcpUNpxL+uvr33oFW9VAEAoO0b4AzEMRDXlo1gO5F6evA9Z/akwhy/Eg7EibdbJnPDuGeBzU41fJO1sO2Bj/ytAQbiGIgbncRnK0XtRuqFtPvLJqnat6parxf94Wd5B+LstopzM9r2vHHzm4ZYC+XIn8U3+nKwHKeIhmEGd0qV09rWh7B9zea0kcHSn1ODpMN7HOfJwuUPYxGCBwqEkFFu8tkr6V5ADs+pm9+gEGtveiMVAADg/pWBuELWVa1+KPX0oE9p+dAoyvEr5UDcJL6lT2q2v6hdwzrY7n7MtflbAwzEMRC3E4OD0xNvaxgkIJOQc4q8dEo8ELdJfOOQVv+9upesmCNq36fuS5dbxdmTJ/EcNkvUPsdxKGW+WhkcnMWFWgc0m9MSzZ4jzq6m7sikxdlfUq0vZUGio7prQ/NF7R4WISEFezjRH5bQwYAcPozrX71ronZXpG+u/EfePh0EACgfBuIYiGvL3sjmh3fU1JaDJd6OKsw1eEkH4kSzl3b+b1lfKmo3swZ2sB+j2U/ztwYYiGMgbgf14RpzxdsPqBEyOQ8+w4uKvH7KPBCXeFvTyr9Vj6vvJxp+S92XNmtTzQ7v+P3/ovpuonYJf/9SP1O4YLe+pnDF1i7DU8VZky8Fkhxl3eZPqFamsD7RmYsJb+ex8Agp3smCoRMgz+fW8P54+1N4GRUAAGjreZaBOAbi2lVbandQU5M7jDVeJR6I+3xn/47Z4fxodjQDcfaN/K0BBuIYiNve/kSjjzc+ksn8LGfRhxxK/YY4za5o3Xlo5WNF7W/UfOlz3+ZPIXdo/Q0MzRO1K/m7R5FLGIprwz1CzZ4ozn5NfZGc/tDs05W+5i6sVLR7s/cZLDhCCjlwchkdDMivLn/4I0RtbaQPTq+rODeDKgAAtO0+loE4BuLat0dyFTW1Vd5YmI3+0g7E2V8711vDi0RtPXU/yo373K0BBuIYiHuoRLOniNrt1AaZxHyg8Ouo1ANxtrFroL7XhM9BrvE4huGiyr2Jt2XtXntVt2IP3mgVXb5TmV+fyRVcC89hPjtI1DZSWyTHubD3oFW9rFa0xWy3rIeLVEIK+43tj9DFgJw/lPP2qXgfQmTPoQIAAO3CQBwDcW2rLc3+j5raKm8vzLV3eQfiNvW4+n5t//u57PXU+5gG4t6XvzXAQBwDcQ86p3l7qqjdR12QyRy2Sl3jcUVfSyUfiNuU+vDCiV1DNB4najdQ79Hl7rRmT2zXuutaEvYUtd/xd47yx/ZfqQwOTudKrpX7HPZV6orkPFd2ucberFa0owF+kAVGSEFvVF32AroYkPOHcps3hDZE2qeuqlSGp1IFAIC23MsyEMdAXLseeKp9jJoq5mBJmQfiUh+OaWvde3sN9T7mPZnX528NMBDHQNwW69rZf/DGR5KDnF+O9VTugThx9uXx/m16F6/ch2G4qPPPdvxwI+1fvato+C1/34jj7UNczbVO1TVqvCWOFCB/7sSPARFT86uZ46aYkAJv8NWGFtLJgAI8sNfsK9E+JPKhQQUAANpyfmUgjoG4tl27hWFqassHpNmpRTl2ZR6ISzT7RLv+bolmr6LWx/OGOHt+/tYAA3EMxD2wrsPRPPQkueiV/WF1KdZU2Qfi1G6vODdjrH+X3oNW9YqzX1PrvNVnzkC9u2ULbnBwlnj7AX9Xkno7lh2KVt4r2LeoK1KAN0Rex1AcWqPZnJZ6u5RFRUhxX0fNK4OBYuh22UDEveoSKgAA0A4MxDEQ174HnuEEamrLhP8pzgZ/eQfixNnVbfmb+fBChmbGPRA3lL81wEAcA3GVSqrZ4aK2jlogeXjLR1n2ryMYiNskGgbH9EdxboaonU+dk5Hrom9Vms1pLVhuU1K1z/A3JSO5X3zjEHYpWnSN2B+WUFOkMENx3vZl1WKiDw9ewWIipND5IZ0MKNB5V+3CeF9vnj2JCgAAtOGeloE4BuLaVFv2Ympqq0GsjxRmg7/MA3Fqm6puxR4t/Xv5cAzDcBN6Y8UT8rcGGIiLfSBOavVDRe0+6oDkJG8sy9qKYSBurL0zcfZJapw8KO9grZE25G+pa8xlp6Jlz6m+Q02RguQPycDQPFYtxndB4bPdRe1WFhIhRf7FTfY+uhlQpI2zxvKofyEIAECrN/EYiGMgrk1Snz2Xmtri4aizTxbm2JV8IE6cNVvXQ+3JoraWGh9/ugfCo/O3BhiIi3kgrsfbvqJ2EzVAcpK1ZXqIGcmQzq9GfR2h2UupcbKNbBBnTx73dUwtC/xYg2wn57BT0ar7hfpS6okU6Nniz+YtXJ6wcjGeTa8vsIgIKfrmXvZMuhlQtIer0X6qfGNV64uoAABAa+9rGYhjIK5NteWzp1NTW70F61PF2dwv+UCc2gdaU+ONPn4oO/H0HrSqN39rgIG4WAfi5gzUu8XZrzn+JEcPMD9TpjUWy1urZi3KHjmKv8UCUbuHOifbyfU9C2z2WNdYlz/8EaL2T/5+ZAf3pceyW9GiPQ/NvkdNkQLNQ5zbok9yIxYxv6GGkDKlx9X3o6MBRXtwb814+1b2eSoAANDa8yoDcQzEtUfqQ4Oa4pOpOT0Wl0/0b9S1JOwpatdT2xPOukqlMiV/a4CBuEgH4qakGr7JsSc5G1x4QpkWWSwDcTsbONmtrymi9jtqnOx4IDacPqYF5twMUbuEvx3Z8fWd3dW7eOU+7Fi04JzmbRk1RQqWd7ByMTrz6zO5WCWkFLk5jxuvAHZmeGrE5+H1efykEACguBiIYyCufQ88+SHhVvH2oaIcuwjeELdhIm8lm7dweSLOLqeuW5Ib8rkGGIiLcSAucfZqjjvJV8Jl5VtncQzEiWZf2fF5xj5DfZNR1tIRo15fPryLvxcZ1TWeC19jx6JFe2pqP6SmSJG+QjWW8wpibm4+vI0FQ0gpXjn/LToaUEypy14Qcf86jQoAALTs/paBOAbi2nW9ptnh1NSWbyXLTi3OsSv9QNymqoZs3H8fb5+ipluWX+a0fzEQF9lAXNU1aqK2luNOcrZ3/byyrbV4BuLszsr8+sxt9hut16lvMpZPp+7W15Sdrq3+cKCorePvRcbwg62nsmvRgmtIejopXu5IXeNxrF7s4AF843HcHBNSlgu+8Da6GlBQfc1dxNlfIu1f91UXDT2cIgAAtAIDcQzEte2Bpw/Ppqa2eKjt7D2F2fuKYCAu8bZmXD1Ts+Oo55bmwnyuAQbiohqI2/w1mKs45iRngwq3VFyjWrrrw3gG4jYlPhz24P//I59K/TM1Tlr6ibtmc1rq7VL+TmSsw5bzFi5P2Lloyb3DT6knUqj9KW+XVpybwerFtje+fLiAhUJIWRp+aNDVgCJvosX7OZPYPl0DAGjjPS4DcQzEtWtT2Nux1NQYHmTlakO//ANxonbxmO8/Nr954x5quZVvTrQv5PShFgNxEd13ioZhjjfJ4YPK95ZzLy+egbht/RhCXHYq9U3GkbVpf/aY7a4rzV7F34iMM29k56IV9w42RC2R4iUMs3qxjYuKcDSLg5ASfSLFrdiDzgYU17yFyxNRuynW1xr3LLDZVAEAYMIPgRmIYyCubXso9kpqastkby7Ohn4UA3FrK0uaXaP9m/QssNmJ2rXUccsH4v5fPtcAA3GxDMSNfA3mPo43yVk2dNeG5pfy+jCigThR+021Zu6BpP1htaitp77JON8aed6W9fRARMOgqN3J34iMM7elrjGX3YsWXFPylkZSvKyr+oZn9eJfupesmCM+/IPFQUhpHkZcR2cDyvAQ394S78Oj7E1UAABg4udSBuIYiKO2OvTZrOMLs5kfx0DcJtEwOOp6VjuTOm7LQNxb8rkGGIiLZSBO1L7NsSa5e7OY2rfKuuYiG4gjhJAinHNOYfeiBdeU3p5KPZEC5ko+nYotb45PY1EQUqqN7y/S2YDiS/tX7xrxr+D+OW/h8oQqAABM6F6XoSUG4tq3j/Lf1NSWnz7LnluYa+xYBuKcnTS6Wg5Po4bbtjfzsnyuAQbiYhiISzR7CseZ5PKaoZaF0q47BuIIISRvuTfx2e7sYEzYFFH7JfVEivfjTXsNyxeVbg39oraBRUFIiTYWnJ1IdwNK8yD/1IjfqPByKgAAMMHzKANxDMS1a9DgXGpqy3vQxqqiHLt43hBn397p38I15vLFiHZ+/iscmc81wEBcBANxU0Tt5xxnksM39fyp0mxOK+31IQNxhBCSv2s+l72THYwW7K+pPYN6IgXMHdVFQw9nBcdscHC6qP2CxUBIyVKrH0qDA8qha6C+l6itjbOfZddV+pq7UAUAgHFv2DEQx0Bc22rLfk1Nje/znJMtooG4OyuDg9N38lDjS9RuO3+NHg7L5xpgIK7sA3G8+ZHkdyAuvK7M14cMxBFCSC5z69ylQym7GBM1PFXUrqSeSAGvP09n/UYs8fYaFgIhpcuG2W5ZDx0OKNOGmn0y4ocUR1MBAIBxPxBmII6BuPaYImp3U1NbDv5kBxXl4EU0ELep6ht+u/cYmj2T2m3zuugPB+ZzDTAQV/aBuFTtZxxjksfP1qWuMbfc+3cMxBFCSD7fEmevZhujJXMlR1FPpIDZWK2ZYwVHqMsf/ghRu5NFQEjpchUdDijZZrZrPE7i/bz5VZXK8FSqAAAwHgzEMRDXDtVFQw+nnrZO7+KV+xTm2jqigbjEhRO29TeYu3QoFbW/UrttHkh0K/bI5xpgIK7MA3GJD4dxfElOhxE+WfZrRAbiCCEkr9d9di3PGFqg2Zwmar+jpkgBe8DXWcAxPhhQO4cFQEgZX/2ZfZoOB5Txgb59OeK+djgVAAAY3/mTgTgG4tqxnxIGqaetf21bGRycVZTjF9NAnKids80H9t7WULftT6WvuUs+1wADcWUeiEvVvsHxJUV7a2lZMBBHCCF5vvbLnsJuRkuuNZ9HPZEiprtWX8wKjqtZDVH4hJQ0zl5OlwPKp1tDf7R9zYcfUQEAgPFgII6BOOqqI7mxWHtiUQ3E3VSpVKZsdV9RG5ovavdRt23PbfldAwzElXUgrmugvpeoref4khy+leMnMVwjMhBHCCF5fsZgZ7Gb0QLOzUjUrqWmSAHzbRZwNI2qUaVREVLiCWcN/TQ6oKQPX324IN7+FgapAADAmM+dDC4xENeOutLs/6inrfKLIh2/yAbiNolv9G31sF7t69RsR/KH/K4BBuLKOhAnzk7i2JKcfi71P2K4RmQgjhBCcp21snD5w9jRaMmeyHHUE+GNxcjvRbmGd1PwhJT3gq4yvz6TTgeU9RyePSXiX3CdRwUAAMb+YJiBOAbiWmxwcLqo3UE9bfXWl68X6RBGNxCndmbq7MTU2Ympt/dSs7zlmoG40g7ETeFH8CS3byst0KfVJ7Rvx0AcIYTkPNlL2dRoAedmpGp/op5I0ZJq9mkWcNkfBqgdIGr3U/CElLWR28/odEC5pWo/i/bXGzVzVAAAYEz3wAzEMRDXYlXf8NTSQ3Jasa6noxuII5MybJWdm981wEBcGQfiujX0c1xJLteatzWxXCcyEEcIIbn/0f0P2NVo1cxJeBk1RYr4YqHEZ7uzgstriqhdRKETUupfN3yYVgeU/UYjOyLiG9azqAAAwJjOmwzEMRDXYqmzE6mlh1yjnVyoY8hAHOnMmxM/nt81wEBcGQfiEh/exXElOcyGnv7Go2K5TmQgjhBCcp+NXa6xNzsbLTA4OEvU/kpNkcLF2VtYwKXdtM1eQJETUvo3xD2PbgeU3fBU0fDbSPvc+u6B8GhqAAAwWgzEMRDX8prS7Apq6SGfhjyyUPtjDMSRyIetGIgr50CcqF3FcSW8LXNyMRBHCCGF+OHKK9nZaNF5T+2V1NTO30gm3m4ZGR68ZmRP6feb/9luHPl3fN2xs7m+Uhmeygou24btovpuonYzBU5I6XMAHQ8ov1TteRE/cP0oFQAAGPW9MANxDMS1sp58o4862tan0LKDinUtzUAc6cQPFrPX5ncNMBBXtoG4nv7GozimLcm9ovarVO0bibNPig9vS52dmPhwfOrt2MTbUeKsWdV6PfG27IGIZkeIs2bqs+cmPhwvzk5Kvb031XC6aPZ/ovYrUbsx0muElTFdKzIQRwghhciF7G60iGtURe3vEdbQTaLhssSFr4lmHxZvJ6c+e25SsxXiG32pa8ydM1DvHsNfckris90Tnx3U7cxSb8eK2gdE7bvM97TrGtWWsYDL9uDc26cobkJKnzsrzeY0Oh4Qgb7mLqJ2faS97r6uJWFPigAAMBoMxDEQ19KHnBreTR099JMzu/U1pVB7ZAzEkU4MxPlwTH7XAANxZRuIS304hmM65tyeqn1DNAx3O7PexSv3afubIlyjmrhsQarZ4YkLJ4izj4jaJaJ2e0k/R3V1bG/fYCCOEEKK8cauuUuHUnY4WnZv8doS18rN4u0HotmHRbOXirMnp64xt9N/41mLskdufklG9nlR+ydruBU/YAuns3rL9ADANw4RtY0UNyGlz/fpeEBMD2SzV8X7cMneSwUAAEZ1P8xAHANxLTM8NeIfJOwg2XXF27BnII504J6lloUcP7RiIK50A3H8GH6UuSHV7H3iG4dUnJuRp2PYu3jlPml/WJ14WzPyNpA7S/C51FdFt1fHQBwhhBTjWt01VrHH0Rq79TVl8xvTiv9jCfF2nng7OXGN5VW3Yo+87k2lNXti4uyTZbhenMRPJ99VtB93Yns2v0HmKgqbEAZEAJTyRiPWX4Pc0b1kxRyqAACwMwzEMRDXslry9lRqaJs5v2jHkoE40ol01+qL87sGGIgr20BconYtx3TH10Cp2lChvqzRbE6r1swlzl6dqH1d1O4o2N/87p4FNju260UG4gghpDA5jV2OVt5f2H8W7l7A2R/F2Rni7SVJbWhhEb/ANnfpUJr68ELuBcYZH45k9dKACCGFatzZ0+l6QGQPZjUMR9vznJ1EBQAAdnquZCCOgbiWGJ4qar+khrZ1TZadWry9MgbiSPvT4+r75XcNMBBXpoG4tH/1rhzP7SX8NtHsKaW4FBkcnJ7W7Ikjb5D7VQEeMH40xitGBuIKsZ/4F/HhgkTt4+LtZNHsuETD0aLhaYm3ZWl/WJL47KCkPxzY7bKBkf9tdeLDs8XZSanaZxK1H4vazfw9yYPyd/Hhgs1vbQrDotlxibejRLMjqK1cvh3qWvY5WmfOQL1bvN2S8+N+k/jw2cTbUdVFQw8v1QFwbkbq7VjR7DrW95iuVz/L6i24WYuyRyZqd1HQhMSR3sUr96HzAXHpXrJiTsSvRf4nrzQGAOwMA3EMxLWkjnw4kvrZzoMEb0cV7XgyEEc6kdluWU9+1wADcWUaiEt8OIzj+ZBsTL29t9LX3KWs1ya9i1fuk2j2KlG7WNQ25u0YVLW+KMZrRgbi8vc5NFE7X7ydnHhblrrG3NaeT1c+Vpy9WNTOjvgrHrHmHlH7jmgYTlxjuSyq70ZtFS9dS8Ke7Ha0cN8kfy9v2JB6uzTxtibxtqwyODi99AdhcHDWyI8n1rPGR5Xbyny/EIVUwzcpZEKiyY10PSDW872dEu8D2HA8FQAA2OGGHANxDMRNGG+H21FSXfnYAu6XMRBH2p21lUplSn7XAANxpRqIc/ZqjudWWZf48OyYrlS6Bup7JT4cL2oXidqGHByDi2O9amQgLh/PSUTttKrW65X59ZkdO/jN5rRuZyZq54jaOo5DKXOr+PDR1IdGxTWq1FYp8gz2O1qnZ4HNFrXbJveNX3ZLquF0UXtG2r9613ifGdaXirOrWeOjesZ4GKu3sJv+1qSICYnpIUT4Jp0PiFPXQH0vUVsbaf/7c8W5GVQBAGD798YMxDEQN8GNRB+OoXa2m9srleGpxdscZiCOtD1/zfcaYCCuVJ9M9fYpjue/3wyXuOxZUe8RLQl7isteId5+MFnDcTEfAwbiJm/ti7fzRLMj8vCml+qioYeL2ttF7W6OTSk+qXeBaHhaZXBwFrVVuk+r/w87Hi3eg9tcnx0fVk29farbmfG2r3/rPWhV7+Y3WbLWdzxfYadQLQU0d+lQKs7+QhETEtWF2zDdD4hXotknon2I4ew/qAAAwHY34xiIYyBuog8cvN1C7Ww3FxbxuDIQR9oeZ5fnew0wEFemgThR+z7H84G1l53K1cu/dbnG3qnLXi9qV3bwOPw95ofRDMR1POtTtc8kLluQyzW4JOyZOPtkTt7cSMb4qUXx4bNJfziQ2ipzsiu4WmjxfUb/6l1F7Y5OfOoy1XB66kOjo28DLZrBwemi2YdZ6zvMzymUIt4E+/B+ipeQuNLtzOh+QMQ3GrrysRHfAF9VxDeTAAA6dH/MQBwDcRO6xrJvUDc7+CWts/cU87gyEEfanu/kew0wEFeygbjrOZ4jb5DPwdt78qqq9UWp2imidkObj8PbY/47MxDXyR/Ihq+Jb/QVYv3VzIna7zhuhclXRe0AaiuOodqOfv42lnOhZv/Vnmt3u4shuHHfL/wv6337A9A9C2w2VVKkJlMbWsg3xAmJMAuXP4wOCER/UfuleB/GNlZRAQCAbZ4fGYhjIG6cUpe9gJrZyTWYD41CHlsG4kj7c2a+1wADcaUZiJtfn8nbYR44J9mxXL2MQrM5LfHZylTtM4naXS0+Duu6/OGPiPr5HANxHRl+rWq9XrTamLt0KBXNPs/xy3WuqWrIqK3YXjaSDXBx0Oq9lMZcUbuzhdd4lyY+HN+9ZMUc/rrjNTxV1M5mzW/3s6lD1EiBijnV7KcULiHRNeo/0f8AVPszjfdBhv2ECgAAbAsDcQzEjatuara/qN1Gzez41/Sz3bKeQm7QMxBH2p8P5nsNMBBXloG43sUr9+FY2iZRu2fu0qGUK5j/z96ZxslR1fu7skGm61R3EhKCyE5wGxIzfc7pYYxcG42TdP2qJ0Rs7lUEcQE3FLnKRblXHXdcELmuuFwREAUUF/i74YqAiKAIyqYoyCpb2AKBbP8XmSQzPUt6pru6q+o8z+fzfcUrcr7n1DmnnumaHPOXDQSBjY7xjfyuRZ+LvtD1f1OEuNg/Sf6ltM91pcO3ITInLpuUlc+n/ZfC6NZU15XojewI4jhvyKeaHJt7fBN+LNDV5/Cv2SLK5dm+kSuZ92N6Fp+iIGl52JnoOEpLiJMHwfNYAQFgy15ALnF4LTyEBgAAwBiXwghxCHGT60xPZYEy8lf6sqMLw/Cq9F7OI8SRmGPlvcmeAwhxWRHihj6VxlgauZgdTHP4OlysdPhpZeTBKY+DjV7CvyNCXEx51NfhK7PSk8BGr0FcSkzWBMUwoltO5wx2ATE8D224mzLyxGT/6E4ZuURpqXlaz+JfsfUUrOynjDzKvOe+NJ2HX73iGfz1MiHOvog4kVUQALYcNKKXOLwe/pQGAABAPQhxXPBMir5al7LRb+lKIy+95ZS0DjNCXKbzlDJyuzJyuTJygdLhp30r7/RtdIRvZblvZXmuKDpXFF3Qlf0LVvYLSqt3KSyWuYXFMjfft2Jewcp+BSv7BWbls3Ol0Pg2XOlbeZVv5O3KyId8I19VJvyVMnLXBELcm5M9BxDisiLE+braz1jKZmWiQTYxLWLLZ3j/Y+gPLicjVdzoed405+/lEOLiyB1+cWBJ1rqCuJSI3BCUwmdlr1vh0XSLL88k4j7OyGcaG4fwn4EO36WW9O/Kv1pbnj/HMPdHrQOPe7XaDNqR/EXlmxSWEGcvfcqsggAw7OWGs59PzxVF0wAAABhxVkaIQ4hrlFpthm/CH9CTRoW4cGV698sIcRnIRqXlFmXlfGXkv4NiGHXp6l7t7tLCJf2+b8OlvomOUib8gjLhn5SRDUpLLeFnRoS4rAhxJnwFYymbs/TLUUmiUKru69voo8rIfQ38av9b+RdDiIsh13f1VvbIbF9MeAJj3LFcXlgsc7PbLXk7Y9xwHuHpFQ9dvZU9lJF1E4hwv1ImerlXLs/kX6vNd6U2+jlzvy69lefRjGRvml5KUQlx9xJ4/rKBgJUQALZvZuVlDq+JF9AAAAAY8VxEiEOIa4S+Wpcy8j060nDWerqaS+twI8SlMg/7JvyBb8ITAisvWNBdU0nt1/xlA8G83ko+2XMAIS4rQhy/8LAleS3CZiZGFlV29q28Shm5YpwxeCzp6167QIhraa5TPZUFGa/MNGXkAsa63V9ckh+l+SwziXcE5zPeDf6RvV7xDJ5gMfXQyBfr/r3XBSY6yy9Fz+dfp3PkSqFRRjYx/0d8BeFVNCOplMuzlZG/UlRCnM2fWQgBYCSD05WRG1yVhLP4U/cAANDE5RtCHELcDigslrnKyqX0YxLRcmGaxxwhLj2/CuPr8CP5YuUgPl/S6jmAEJcVIU6Z8C2MpWzOmShkZreHnKn0KBt9WRlZO+wXXr7Av8wWEOJa9ylLB2Q4z/M8b15vJa+M3MyYty2/9PpqXXSL8BWu9jDnoJX7KCNPB0ZuC0z0X0Fp9S78qyTkHIE0O1KWtvJJWpHYy315PyUlxOVPAsjXWAkBYNQLDhu9xt2XGvIVGgAAANvPzAhxCHHjk+sZ2H3oE4f0Y3ISyVGp3isjxCX5ZdRNysp788WBRaxQcc4BhLgMfTKVz+0Z2ezb6AhmdnuZs/TQOUP9u1kZOZB/kaE5iRDXitxbKFX3depMoqtFZWQDYx+77HC1a19byplKD91qqBvH8gSLsYel0PAHTgm8LzVyIPN/uG8RXUQrEki+NzpAGXmSkhLi9F/mv4nVEABGofUsZeR2R9fGp7t0dS9KAAAAnocQhxA3QTds9UXKyF30YtJZn/a/6kaIS1ye8I18NWerlpWpXXMAIS4zn0zVchJjKZsDE57IzIYkgBDXdJ7KFysHuXk2kc8z/rHmjlzPwO5u3onI5xj/HewjtHyCJxg4uT4YuYw1YPsf59GIZJb0Z5STEMc/CVAKDashAIx5CWfk7Q5fhp9KAwAAYMvlL0IcQlwd5fJMZcL38ZfyU84v0l4BhLjE5K7AhCcWFstcFqZ2zwGEOIS4zP3B8HnMbEjEXRxCXLNz+a3OPptLq3dRRh6gB7FkXa4o2tVu5ftWzKNb7CMAxty3mPBI1oDtP7ThaT2LViSpoDY6gmISwkbe667txIoIAGOxcEm/r4zc7+j6+Fjaf7kEAABaA0IcQtyIu5TiwBJl5Bq64PavlCPEdVpCkr8HVo71FlV25inVqTmAEJeZT6bq6D8ZS9mstNzpeYPTmd3Q+TmJENdEvuP82dXKm+kBomU89yLyJrowYS7nCQZOUi7PVkYeZg3YknxvdAClSAiFxTJXGbmXYhLi/CXy71gRAWAHFynvdXedDN9HAwAAACEOIc7zPC/Q1fm+lVOUkXX0oLnPWGXhjw4Q4jqW+30bHc8f9iVhDiDEZUWIU1reylhu+8xRmdkNnQYhbsp5QC3p39X5AnXXdlJa7qQPLXzW6+giz/Om0S26tYP3CP/kCQbO3psauYA1YOszo9pPIxJTzPALlJIQoox8hhURACZi6CfRH3V0jXxwQXdN0QIAAMfPzwhxTgtxC5f0+0Ofk3uE8edTMltBiGt71isjp83Vyws8lZIyBxDiMiTE8Ysv259R5zC7odMgxE1xPbbREbSHfWoMWZPrGdidVm3b/51IJ8Y/r3i12gxaAm6uDfJa1oAtCWz0GhqRAHK2apWRjZSSEOKb6ChWRQBo4LB7qsMXasfTAAAAt0GIc1OIm6uXF3wbHa+M3MO4ty45E4XZ2B/zorFtsdFvfRsu5WmUuDMiQlxGhDheYI3IBmWr3cxw6CQIcVP6ZaZf0ZyR5xj+mKdFYoOR19EoutVouvqiZ9IScJGcXvEMZWQT64BsVkb+m0Z0mnJ5pjLyR8pICFFGNquiPJeFEQB2RFdf9Exl5Clnf+6cTzIBADgNQpxbQpwqynOVjU5XRh5jvFuee71yeWYWeoIQ16bP6xo5mV9aSOocQIjLzC/EmejljOVw+SH6ocen8aCDIMRNXmRFnB/zOX0q3Wj2eRBe5XmD02kT3Wr8D+tZi8Dhu1MT3cQ6IJuViT5LGzq+mZZ3UERCyFAeZUMPAA3vIYx8xd2fOQ6PpgEAAA5f6iDEZV6Iy/etmOdrebUycjljHGs+nJXOIMTFnptzptLDEyjJcwAhLitCnG9lOWM56g/j3sAsh47NSYS4ya3DWr5Ga8bs0WL60eR9cFEOpkl0a3JCnCynIeDs3amRb7IOyGal5ULa0EG67Ko9+QtnQsiw/IKVEQAafuFRCp/l8CfXb0QgBgBw+FIHIS6TQlyXru4VWDnW19FF7v4SblvzdFdvZY/M7I0R4uLMd+b1VvI8fZI+BxDisiLE5UqhYSzrx1UezxVFM9OhEyDETSrr88WBRbRmnHOskevpyFSfA+EPaBDdmkL+g3aAu+dD7kiGcjlt6OglvlxICQkh2/9aIfooKyMATPKwe4Gz66aVl9EAAABXz9IIcVkQ4nI9A7srEx4WWPmkMtEfGMu2f4LuLC57yQ6yKTByssenClMyBxDisiLE5YsDixjLsT/zXbCyH7Md2g1C3GS+6CBn0piJntVyMj2Z2p40VwoNDaJbU/hU4nG0A5zdv5jwpawBslkZ+TNt6NTDqRhGFJAQUvfz/4exOgLAZMgVRbv7Eje8igYAALgJQlz6hLiu3soeSsshvpG3Ky3nKRP+k7HrbLL2+UuEuJZnna/DV/LESdMcQIjLihA3f9lAwFiO+ynGfwSl8FnMeGgnCHGNS0vKyIE0ZnwKpeq+Q/9O9GVyvxJ6Me2hW1MU4gZpB7jK7J5wb9YA2ayM3EEbOoGu5nwjf6eAhJDh6bKr9mSBBIDJooz81OFf1nwJDQAAcPDZhxCXLCFOV3NdurpXzlZtzkRhYMOjlZEPKyvnKyN/VEbWMk6Jyy+yti4gxLU0jykth/C0SdscQIjLihA3dM5/mPEcN/flTVRi1kO7QIhrOJfQlobW9+voCve/dKtdf1Avn6IZ4Cxaz1JGNrIWyKOUoRMbaCunUD5CSF3uYXUEgCkddouVF3PZBgAATj37EOJGnCOUkTPiSmDkbGXl/CG57ZKh/EYZuUYZuR3ZLa3CSPjSrK0LCHEty8OBlRfwpEnjHECIy5gQ92fGc8I8qbS8iZkPbXmfhxDX4OdSoyptaWh9P42+TPpTd9NoDt2aUrR8iWaA4+vCvawFsskrl2fShnYWz1a7lZGnKR8hZORP/kcXsUICwJQv54xc6eznvmzV0gAAAMfO1QhxhDST32RxXUCIa81fTvOrS2meAwhxmRLirPyY8WzoRfd5ga7OZwWAWO/cEOIayd28bG7weV0MI/oyiVh5M62hW1PvT/QNmgFO359u+WNW59eCuXp5gTa0j2lDf0nNQ4gQUn+B8x6WSACY8oFXVw91dw2Nvk0DAAAcu9BBiCOkiZcC1Rdlcj+MENds1vE5qrTPAYS4jP1C3BcZz4Zzv2/CI1kFIC4Q4txZe9vB/GUDgTKynt40lKeD0updaA3daiLfoxng9hlRfsQ6IJtVT2UBbWhf6V5H6QghYx4ai7KCVRIAmmCaw59U2ah6K8+jAgAA7oAQR8hUE/4ku3duCHFN7ae11Hi6pH0OIMRlScrwbXQ84znpX4H5uV+Kns9qAC2fjwhxjeRAmjKJ86yRK+hMI890uZi20K0m8zNaAW6vCeF3WQdkc06veAZtaMelRGn1LsrIfZSOEDLW96v5SxcAaHqvYcOjHb4g+SoNAABw6EIHIY6QKZ07s/w5TIQ4frHe+fMgQly2hDhd7Wc8p5QNykZf9m24G6sCtG4+IsTtYB9xCy2Z5HnWyP/SnQae6TY6grbQrSZzBa0Ax9eEc1kHZHOXru5FG9qxaTbh/1E4Qsg4+RurJAA0jdazAiO3ufoT+mxqAQAcutBBiCNk0gmsnJnldQEhbsq5wPO8aTxZsjAHEOKyJMR12VV7Mp5N5TFfhx8JdHU+qwM0/W4PIW7iPaYJT6Ulk31my2vpzg6zdkF3TdEWutXk+nQVrQCn9zBGvspaIJsLurI/bYj7AVSUg5WRTRSOEDJOvslKCQCtQOnwbQ6vpafRAAAAZ553CHGETC6PZv0TEQhxU8qt83oreZ4qWZkDCHFZEuI8z5umrDzEmLZAjLNyiuqpLGCVgKmCELejRGVaMjlyRdH0hndmdKst69MfaAW4fX8qn2MdkM2qKM+lDXFSLs9UJvwTZSOEjH9ZF57AYgkALUFXc65+ot038jh//Q0A4MqFDkIcIZw5R4IQN/lfWM7rsJcnSpbmAEJcxoQ4T5nwJ4xp6+4LfBN9XC3p35XVAiYLQtwEsfKQVy7PpCWTZFFlZ2XkaTo0YbdeRlHoVgtyHaUAp+9P+YzylvRWnkcb4ryMsNG7KRohZMKf7dXVF7JaAkDLNrla3uPwX30N0gAAABeedQhxhDQcLX/xtJ6V+fs3hDj2za7fQSPEZU+Is/IBxjSOP6STTyDGwWRAiJtwn3kODZniGm/kOjo0bjbm+1bMoyV0qwW5gUaA4+sBQhxCXLx06epevpHHKRohZIJsWLik32fFBIBWUVgsc5WRRx1dUx9c0F1TtAAAIOMXOghxhDR83gxMZZkL6wJC3CQlye7aTjxNsjYHEOKyJsQFxTBiTGPL2sCEp3bZVXuyesCOQIib6Fe8on+nIVM908qFdGjcXEND6FaLzj230Ahwej1AiEOIi32jbMIfUDJCyMQJ/8RqCQAtvzi38kk+CQYAANm94EWII8Q1MWSH+1+EuIZ/cSOw8gKeJFmcAwhxWVv38n0r5ikjGxjXeD8frYycmyuFhlUExn3PhxA3XjbxK17NPLflU3RovC8qySdoCN1qUW6lEeD0/SlCHEJcvAULD6NghJAG/orqy6yYANDyyzob7qaMPOno2noHv3gBAJDx8zZCHCGNfR6mr9blzosfhLiGXjCa6CyeIlmdAwhxWRSBfSNXMq5tWh+tXO2b6CivVpvBigIj5iFCHJ8ijOXuNjqeDo2dnIlCGkK3EOIAWnB/ihCHEBcX85cNBMrIHRSMENLAZcuxrJoAEMtm10ZfdvdFn7yWBgAAZPgZhxBHyI6yPmer1qV1ASGuoTzZpat78RTJ6hxAiMuiEKdMNMi4tv/leaDlpLl6eYGVBTwPIW6CLzT8H+1o6rm9ih6NfY6Z11vJ0xC6hRAH0IqzBEIcQlx85TqNchFCGvtrl0oPqyYAxEFBV/Z39/Mq0U2eNzidFgAAZPTMjRBHyMTR8h73XvwgxPEJXbdBiMtmz4NS1Me4duqrHvKQb+WUrt7KHqwwboMQxx/6x9Kr4sASejRmrqAddAshDqBF96cIcQhxMT5o1lMuQkgjf53taT2LlRMAYtvwWjnf3TU2PIwGAABk9PmGEEfIRLnExc+9IcTtMGvVkv5deYJkeQ4gxGVT/BycrrTcydh2NE8rG30jVwoNK42j7/wQ4sZeb4sDS2jH1Ckslrn0aMycRjvoFkIcQIvuTxHiEOJiOaAauYJiEUIazOWsmwAQ66VdKXq+MrLJ0TX2j57nTaMFAAAZvNBBiCNkvNwe6Op8F9cFhDheLroOQlx2fwkxMOGpjG1ifhHr6sDKsZ6u5lh1HLpbQ4gbK4+6+AcYrWVwurtf9pjgOa7l1XSDbiHEAbTo/hQhDiGu5aWy8mZKRQhp/DM24adZOQEg/k1v+BNnL1GsLKcBAAAZfLYhxBEyVta5/Os1CHETZkOXru7F0yPrcwAhLqtCXM5WLWObuDwQaPlEQVf2Z/XJPghxY+ZnNKMVd7byAF0amZyp9NAMuoUQB9CytQAhDiGuhZvi3oGFysgaSkUImYSo8SpWTwCIf9MblZ1da230cxoAAJDBZxtCHCGjf7XGyGtdXhcQ4ibM93hyuDAHEOKyKsQNvcy6kfFNZDYGRn4UGBng17Iy/O4PIW6MX/EKP0IzWrK2/5U+jfxEtbeosjPNoFsIceAmg9MLi2VuYbHMLZSq+xas7OeXoufniqKVDf/Nt7I8KIaR0lLzbXREYOVYpeVNgZaTAi0n+VZO8a2coqx8Xhk5Q9noG6wFCHGtfbhsKRWFIoRM4oXFymezegJAm/Ypv3V1rc2bqEQDAAAy9lxDiCOk/o8APuj6uoAQN9FL62o/Tw4X5gBCXKaFOC1vZXwTL6bfFhg52e8dWMiKlC0Q4vhD/9i6ZeR39GlErqcVdAshDpLEwiX9vm/D3YJS+KxcKTS+leXKhIcFNjw6sHKsb6PjAy0nKS3v8a2cElj5pDJyhtLyJWXlfGXl/KEvOF2ibPTbwMrVysgNysitSsudyspDyshjzFWEuOQ/WKwsp0yEkElmjed501hBAaBNL0dWuft5armQBgAAZAuEOEJG5JucLRHiJtgL3+l5g9N5cjhx5kOIy7AQN3/ZQKCMPMIYpyJPKSvn+1aW83zOyPs/hLjRn7UshYZmtOLZLT+iTyPE4rNpBd1CiIO4WNBdU4GuPkdpOcS38qrAhCcqHX5aGTnXN3KxsnKpMvJHZeTWIVFtA3MIIQ48z/MWVXZWRm6mTISQSeYSFlAAaCPTlJE/u/oJE1WU51IBAIDsgBBHyLb8ms8KbX3pgxA3zi+4nEI7XJkDCHFZFuI8z/OUiT7LGKcu1ykdvXFBd02xSqUXhLhR2TR/2UBAM1pxrpXz6NNwIS48kVbQLYQ4mAoLumvKt+FSZcLDfCNvD7R8IjBytjLyS2XkRt/I48wHhDiY8kE0fB9FIoRM/pMl4UdYQQGgrRd4JjrK3TVXvkYDAACydLmLEEdIYOXqOUsPncOKsAWEuHFzIO1wZQ4gxGVdiOvS1b2UkacY51TmYaXDT+d7owNYrVJ4n4YQN8avz0Jrnt1yNp0adr4phhGtoFsIcTA+g9MLurJ/YGQgsNG7AytnKiOXKSP30nWCEBcT+d7oAGXkSYpECJn05r4UrWYVBYC2ovWswMhtjq67T3fZVXtSAgCAbIAQR3gRKdcGpdW7sBoMf+mDEDdG/kYzXJoDCHFZF+I8z/OUCb/AOKf7l7WUkUuUlppXq81g5UoHCHF8+Sa2bhn5Kn0a8SMSi2kF3UKIA88b+rxpUQ72bXR8YOXMwMrVyshaOk0Q4tp+AJVLKBEhZCrp6oueySoKAO0XCOSt7r44Dj9NAwAAsvI8Q4gjLif8U6Cr81kJRoIQN2ZOoxkuzQGEOBeEuC67ak9lZB1jnQm5/RbfRsfP1csLrGDJBiGuPtFnaUWLzrVIziPCeki3EOIcpVabkdPVotLh25SWc5SRG5SRjfSXIMR1ehNswldQIELIFHMXqygAdARdzSkb/cvNFyPyOC+PAQAycrmLEEfczXXsZ8YGIW6M/a+V5TTDpTmAEOeCEOd5nudbOYWxzlQeVVo+p4ryXFayhM45hLh6Ie44WtGic62R/6VP27KGRtAthDhHWFTZWWk5RJnwfcrIT5WRR+kqQYhLGPN6K3ll5C4KRAiZ4l/0f5eVFACQCDryF9jvpwEAADzLCEmp3H8lMtz4IMSNyjqvr9ZFM1yaAwhxrghxC7prSmm5k/HO5OdUfxoYGfC8wemsaskBIa7+s5bVflrRome3lU/Sqe2/gk0j6BZCXHYpWNkvsHKssnK+MvII3SQIcYm/fJfPUR5CyFQTGDmZlRQAOsVcvbygjDzs6Br84PxlAwEtAABI+5kcIY64JniEP/B0Ncfsn+ClD0LcyFi5lFa4NgcQ4lwR4jzP83wdvpLxzrQE/3ffhCcs6K4pVrdEzDeEOF4qx9MtG32UTg077wDdQojLDuXybN/KcmWj0/mRKcLeJWXkTVTiu8WEkCY39y9lNQWAjh6KTfRxd/+SVd5BAwAA0g1CHHHqD6qsnOmVyzOZ+RODEFcvxEUfpBWuzQGEOJeEOM/zpgVG/h9jnv0/6lM2+qBa0r8rq1wH79AQ4kZkztJD59CKFp1rjXyYTm37FO9naQTdQohLN/OXDQS+CY9URr6njKylfwQhLo3UajOUkWsoDiGkmZ+/LyyWuSyoANDRyzwb7qaMPOnoZ1Pv9LprO9ECAIAUX+4ixBFXPp1m5b2e501j1u8YhLg6kbIYRrTCtTmAEOeYEOfl9IpnKCMPMu5ufAY7MNFZQSl8FqtdB+7QEOKGZy2NaOG5Fmlp2FeVwhNpBN1CiEshiyo7BzaqBiY6Sxl5jM4RhLi0b3yNvJ3SEEKaFDFuYTUFgIQcjM9w9pJFh6+nAQAAKX6GIcSR7OfRoBStZrY3DkLcyHT1VvagFa7NAYQ414S4Le8rwlcw7k5lvdJyTqCrz2HVa+M8Q4gbnr/SiJbezSItbf+q0pE0gm4hxKXo2VgcWKKMfEYZWUPPCEJcRujqi56pjDxKaQghTX625BusqACQBPLFgUXKyAZH1+ObvVptBi0AAEjp5S5CHMn4PoXLusmDEDci99EIF+cAQpyLQpzneZ6y0ZcZe+eyUVk5XxXluax+8YMQNzzhr2hEC9dvpKVtyWsRGkG3EOISjq7mAiOv841cSbcIQlwmHx7RtykMIaT5X4gL38aKCgDJ2d+E33J3TY5eTgMAAFL6/EKII9nNd+b1VvLM8smDEDciv6ARLs4BhDhXhTivXJ4dGPk94++qGBd9AzEuXhDiRuSbNKKV97JIS9u/5lF9IY2gWwhxCX0O9g4sVCYaVEbup1MEIS6j5EwUUhZCSEs29lZewKoKAIk5zNhwqTKyydE1+RoaAACQ0stdhDiSvTzh2+h4ZvfUQYgbkTNohItzACHOWSHO87zZPeHevKR0Oht8LV/r0tW9WA1juDtDiNv+bsOEp9KIFp5rkZaGfVmp2k0j6BZCXMJ61Ft5XmDlTGXkKbpEEOKyTF+tSxm5lbIQQlqQp72+WhcLKwAk68WJ/MjZlyW62k8DAABSeCmHEEeylet8HS5mZje7p0WI277HlXfQCBfnAEKcy0Kc53le3kQlZWQtPXA6TykjZ/i9AwtZFVsHQtzwPUb0nzSihedapKXt3bLhbjSCbiHEJYOClf2UkTOUkQ10iCDEsdklhJDJ5I+sqgCQuAOyrb6Iz0kBAECqnl0IcSQrv+Ziwo953bWdmNXNgxA34pNTh9IIF+cAQpzrQpzneV5Qilbz8pIoIw8HRk7mD7N5R9h6aSk6gka08FyLtLQtrFd0CyGu8xSs7Ke0nMNekiDEOXWRsPLZysg6ikIIaVG+yMoKAAk9JF/m7AvDUtRHAwAAUvbcQogjaY+Wa/MmKjGbW3mHhxC3NXTL1TmAEIcQN7RPsvJmukCGfjH0H8qEh7FCNgdC3LA7tGIY0YiW3sciLW3Jk7SBbiHEdY6FS/p9ZaJBZeRJOkMQ4tximjLya0pCCGndX2mHr2dpBYBEvjyxUdXd9Tn8Lg0AAEjZ5S5CHElvnlAmGvS0nsVMbvF+FiFuW7r6omfSCBfnAEIcQtx2fCNvpw9kWH7pFweWMDOmOJ8Q4oYJcXIwjWjhuRZpaWvuog10CyGuEwxOD2x0jDJyL10hCHFuvhh+DQUhhLT0Uo6LBwBILtOUkesdXZ83KVvtpgIAACm63EWII6n8lZboojkHrdyHGRzTPR5C3NZsRLh0dQ4gxCHEjcQ34Ql0ggzLemXktIVL+n1mxyTnEkLc9jW2FD2fRrTwXIu0tDU30ga6hRDXXvLFgUXKRj+nIwQhztULhNLqXZSR+ykIIaSFWeuVyzNZYQEgsRd8Vl7l7F+4WjmTBgAApOhyFyGOpOvzqH/JmShk5sZ8l4cQNyQDyeO0wdU5gBCHEDfWnkneqoxspBtk+GdUfRuuZHZM4r4MIW5bCqXqvjSihWs00tLW89K1tIFuIcS1Ca1nKS3vUUbW0Q+CEOfyBtfIVygHIaSlsXIpqysAJJpyeaav5R+OrtNPz+4J96YEAAApudxFiCMp+fRPYOVYr1abwayNH4S4bbmPNrg6BxDiEOLG2TfZ8HBeepIxBJRzAl2dzwxp4H0hQtz2Pygtrd6FRrRwfUZa2tIrI7+nDXQLIS5+5hy0ch9l5Ap6QRDiXL880NUXKiObKAchpLWb+vBUVlgASP5hOTrOXXE5Op0GAACk5HmFEEeSnfsDG72bT5K1+T4PIW7rC8XbaIOrcwAhDiFuwrN+WRlZQ0dIXe7NaxFmyMQgxG0PX8Bp9dqMtDSUy2kD3UKIi/seTWrsBQlCHGz5mUgj11MMQkjrL+TCV7DIAkDi6at1KRv9y9VPW6ueygJKAACQhos8hDiSzF/mUiYanNdbyTNL2w9C3LbcQBtcnQMIcQhxO9g/FeW5ysjN9ITUZZMycppXLs9mlowNQtz2ezPa0OJ1GWlpKOGvaAPdQoiLiXJ5dmDlTLpAEOJgy8WBlpMoBSEkjhSs7McqCwDpeJEiJzv8eesP0AAAgBRc7iLEkWTldt9Gx3t9tS5mZyf3sAhxQ7mGNrg6BxDiEOJ2zFy9vODr6CK6QsYQUv5U0JX9mSWjQYjblrtpQ4vPtUhLW3MJbaBbCHExnA90db4y8mt6QBDiEOI8z/O82T3h3r6RxykFISSGPOh53jRWWgBIA3OWHjpHGXnEUSHuofnLBgJaAACQ8MtdhDiShE9TWrnaN9FRfDoqIZf9CHFb8xva4OocQIhDiGuUwenKRIPKyAY6Q+rvRHwbrmSOjAQhbmuim2hDi8+1SEtbzlUm+iFtoFsIca0lZyo9yoT/pAOEIMQNfzh8n0IQQuLZ0MuPWGUBIFWXfSb8mLMvUKy8kwYAACT8/I4QRzqXJ30tX8uZSg8zMVkgxG37hZ+f0AZX5wBCHELcJPdTtvoiXpSSMbIxMHKyxx93b78jQ4jbEi3X0oYWr8NIS1vzPdpAtxDiWnguKMrBzv7gASEIceMsDKVoNWUghPAJPgCAocu+3oGFysgTjq7b93jl8mxaAACQ4MtdhDjSiV+Ds9Hxga7OZwYm9G4PIW7rH+T9P9rg6hxAiEOImzxz9fKCMnIu3SGjnyfh1z2tZzFLEOKG7TF+TxtafK5FWtqaC2gD3UKIaw05U6k4/F6HEIS4sVjQXVP8JRQhJObD4gBbcABI38E5/IK7L72jY2gAAECCn1EIcaQ9uds30cf5S9J0gBCHEMccQIhDiJs6vgmPVEYeoEOk/ldH5y8bCJyfHwhxQ3/0H/2W1bLVd69IS0M5lzbQLYS4FpwHtvwA1FOMOyEIcfWXBadSBEJInMnpFc9gCw4AaaNgZT9lZL2ja/ffvFptBi0AAEjo5S5CHInvxe8/lZEzAhtVvXJ5JrMtTfd7CHEIca7PAYQ4hLgm91dL+ndVJvwWPSIjE/1B9VQWuDw3EOK25TeslC1ed5GWtsqW36ANdAshrskxL1ZerIw8yZgTghBXv5FdrIw8TREIITHmdrbfAJDiw/M33b2MCQ+nAQAACX0+IcSR1uYG38opeROVPM+bxgxLJwhxCHHMAYQ4hLhWdUkGlJE76BMZluvVkv5dXZ0TCHHb8gtWyJbfuyItIcTRLYS4psnZqlVGHmW8CUGIq2NwurLRbykBISTmfIftNwCk9tKvFD1fGdnk6l9B0wAAgIRe7iLEkebygLJyfmDl2Nk94d7MqGyAEIcQxxxAiEOIayG6mlMmGuSXRsiwO5Kbcj0Duzt5N4YQt+0TuiyOLT7XIi0hxNEthLgmKejK/srI/Yw1IQhxY1ygR2+kAISQ2C+jtZzE9hsAUv5y8YfOvkwpygoaAACQxPM8QhyZVO5VWi70dfSfuVJoPG9wOrMok3tWhDiEOMfnAEIcQlzryRcHFvlGLqZbRBnZrLT8Jd+3Yp5r8wAhjj1GbOdapCWEOLqFENcEC7prShm5nnEmBCFu9AWBrs5XRh6gAISQNlwUHML2GwBSvW8qysEOr+O/pAEAAAm83EWII+NnnTJyjTJyhm+io/LFgUXMGEf2rAhxvKx2fg4gxCHExUfORKEy8mc6RpSRyz1dzbnUf4S4bfk+q2GLz7VISwhxdAshbupMU1bOZ4wJQYgb54JAzmbwCSFtyMa5enmB7TcAZOAQfZmzLxVLUR8NAABI2HMJIY5s/eU3I5cEVj7pm/BIX4eLPa1nMUPcBCEOIY45gBCHEBc3g9OVllpg5Da65vo8k4u9cnmmK81HiNv22dxvsw62/L4VaQkhjm4hxE1t76/DdzG+hCDEjf0QsNUXKSObGHxCSBtyA1tvAMjEAasYRg6v5d+jAQAACTvXI8S5lPu2/OJb+C1l5QO+jY7I2arlD49g1H4VIQ4hzvk5gBCHENcmdDUXaDlJGXmYzjktsJzuSuUR4rYm/BYLYIvPtUhLCHF0CyFuCuR0taiMPMX4EoIQN5ru2k7KyA0MPCGkPRfR4dfZegNARpimjPzR0fV8kzJyIBUAAEjQ5S5CXNrzhDLhP4f2Fj9VRs5VRj4TGDnZN+GRykTlfG90gFcuz6bt0CgIcQhxzAGEOIS4NndOV+f7Jvq4MrKW7jk7345yoesIcUhLsZ1rkZboFt1CiJss5fJsZeR6xpYQhLhxLs3lPQw6IaSNPyN+HFtvAMjMBaCNjnD3xWJ0Fg0AAEjS2R4hblu03OlbOaXdUVreE2g5aWt8E54QWDk2sHKsr+XVSkvN19X+oCgH54qiC7qyf65nYHdPV3M0GOIAIQ4hjjmAEIcQ16m7gnA3pcNPKyNP0kH3/sghVxSd+Y4jxCEtxXWuRVqiW3QLIW6yY2uj0xlX0mA2KiPr+HdwSIjLFwcWcSgjhLQzeR32svUGgMxQLs/0jfzd0TX96dk94d6UAAAgIReACHHDcxmNAECIQ4gDhDiEuE7T1Rc9U5nos7x4cy5/W9BdU1nuNkIc0lJs51qkJbpFtxDiJsHQp1I3MK7pfcekrDw09I7t+sDK1crIL5SRS5SR7ygr5ysbfVkZOcM30cd9K6cENnp3oOUkZcI3BFaOVTY8XGmp+VaW+1aW54qic0XRBSv7FUrVfQuLZe6cpYfOGbYW/C//7g4JccqEP2HACSFtzFN84gcAMrefsvJmh9f1z9AAAICEPI8Q4hDiAOpAiEOIYw4gxCHEJWSftqR/V2WiQWXkYTrpjMzy5Sx3GiEOaSm29RJpiW7RLYS4hhmcrmz0W8Y0cblXGblcGfmOMvIZpcP/CWz0mrwW8W24tGBlv3zfinneosrOHVoLEOJcEeKUjf6dwSaEtPUS2srVbLsBIHP01bqGNvkuru1r1ZL+XSkBAEACzvgIcQhxAHUgxCHEMQcQ4hDiEtbJ0updlJb3KysP0U0Xnj/hqqx2GSEOaSm2cy3SEt2iWwhxDe/15XWMZ0c/PXqDMnKuMuH7fBO+IlcKzVy9vJCCtQAhzgUhbq5eXlBG7mawCSHt3cTL59l2A0AmL7Vt9G6H1/cP0QAAgARc6CDEIcQBjHpBgBCHEOf6HECIQ4hLJvOXDQRDa/QddDTTuTsNL4anAkIc0lJs51qkJbpFtxDiGmHLjxTcxXi2b0+jjHwn0OG7VLHy4nm9lXyK1wKEOBeEOGXkMww0IaT9vxAXHs22GwCyyLzeSl4ZWePo+v5wVi94AQBSdc5HiEOIA6gDIQ4hjjmAEIcQl3BqtRmBjapDn5ViD5dNqeX0LFYXIQ5pKbZzLdIS3aJbCHENPYfkHYxlrFmvjFwWaDkpVxTted60DK0FCHFZF+JypdAoIxsYaEJIB3Ig224AyCq+jT7q7kvG6L9oAABAhy90EOIQ4gDqQIhDiGMOIMQhxKWHXFF0YKKzhl5Asp/LTjbkdLWYuTswhDikpbjOtUhLdItuIcTtgAXdNaWM3MdYtjxPKi3nBUYGFi7p9zO8FiDEZVqIq9VmBFauZpAJIR3IY16tNoNtNwBkFb93YKEy8qSrP5ntlcuzaQEAQAcvdBDiEOIA6kCIQ4hjDiDEIcSljzkHrdwnsPJJZeRh+puZ/Dpzd2AIcUhLcZ1rkZboFt1CiNvxHv9ExrFl2aSsXBrY6BhXvgKEEJdxIU7p8G0MMCGkMwl/xZYbADK/mbbyeXc/iy3H0gAAgI6e9xHiEOIA6l4UIMQhxLk+BxDiEOLSy4LumgqsHKuM3EiPMzAPi7IiS/1EiENaiu1ci7REt+gWQtxElMszlZHbGcem83RgorOUrXY7uBYgxGVViPNtuJsysoYBJoRw+QYAEA+FUnVfhz9vcqtXLs+kBQAAHbrQQYhDiAOoAyEOIY45gBDHnVwWGJzuW1nu6+gi+pzqPyK82vO8aVlpJUIc0lJs51qkJbpFtxDiJhpHGx7OGDaVdYGJzsoXBxY5vBYgxGVViFNazmNwCSGd28CHh7PlBgAnNtQ2+obD6/1/0AAAgE6d+RHiEOIARoIQhxDHHECIQ4jLFjlT6QmsnKmMrKPbaXwehauy0kWEOKSl2M61SEt0i24hxE08jpcxhlPON3M9A7uzFiDEZVKI84uygoElhHQycw5auQ9bbgBwAb84sEQZ2eTkeq/lWi9Df/EMAJCqCx2EOIQ4gDoQ4hDimAMIcQhxGd339VQWBFpO4pNhaUv4q8zcfSHEIS3Ftb4hLdEtuoUQN94YFuW5jN+UcnPWPt3e5FqAEJc5Ia6v1qWM/I2BJYR0MPfxiAUAl/CNXOzqmp8zlQoNAADowIUOQhxCHEAdCHEIccwBhDiEuIxTq80IbFRVRi6h6ym5M7FVm4l7L4Q4pKW4zrVIS3SLbiHE8expVTYpIx/2tJ7FCjBiLUCIy5oQp4x8iEElhHT24k0u5hELAC6RL1YO4i+eAQCgrWd/hDiEOIA6EOIQ4pgDCHEIce6Qs1UbGDlbGXmK3if6s6lfz0LfkBKQlmI71yIt0S26hRA3NtN8Lf9g/BrOw0EpWs3MH3MtQIjLkhAX6OpzOAARQjqfaJBHLAA4t7G2cqmzF7xWXkADAADa/NxBiEOIA6i/F0SIQ4hzfg4gxCHEuYdvw92UlQ8oI/fT/0Rm7fxlA0Hqe4YQh7QU17kWaYlu0S2EuLHGz1ZfxNg1/G7m6tk94d7M+nHXAoS4DAlx05SNfs6AEkI6//m8KOQRCwCukdci7r5wCX9AAwAA2nyhgxCHEAdQB0IcQhxzACEOIc5hFlV29k10lDJyA/MgaS+qw6PTXi+EOKSl2M61SEt0i24hxI09fqcxdg3linm9lTwzfsIuIcRlRYjztbyawSSEJCJL+nflEQsAbm6uoz84uvZvUkYOpAEAAG185iDEIcQB1IEQhxDHHECIQ4gDzxucHtioqoxcwnxIjOjy87S3CiEOaSm+u1SkJbpFtxDixrrzklsYux3mcmS4htYChLgsCHH5vhXzlI3+xWASQjp+6ablHzxeAcBVfBO+wuEXj2fTAACAdl4OIsQhxAGMBCEOIY45gBCHEAfDyZuopLScp4ysZ250NBv93oGFqb7vQohDWorrXIu0RLfoFkJc/f6lNzqAcdvRfl+uzMIn2du0FiDEZUGIU1q+xEASQpKxcZfzebwCgLPUajOUkVsdfQasL5Sq+1ICAIB23QMgxCHEAYwEIQ4hjjmAEIcQB2Mx56CV+ygbna6MPMEc6dRnU6PXpLlDCHFIS7Gda5GW6BbdQoirf+bY6HjGbcLc19Vb2YNZ3vBagBCXdiEub6KSMrKRgSSEJOLSzco7ebwCgNMbbC1vcvc5EH2WBgAAtOt5gxCHEAcwEoQ4hDjmAEIcQhxMuH9c0r+rMtGgMrKGudL2+5Jvp7k7CHFIS7GtS0hLdItuIcSNGrvwu4zbBL86q6v9zPBJrQUIcakW4srlmcqEf2IQCSEJOtyXebwCgNOUy7OVkXscfQ48kfbPgAAApOZCByEOIQ6gDoQ4hDjmAEIcQhw0QmGxzB3aS97PnGlbHvW6azultTMIcUhLsZ1rkZboFt1CiBs9dvcybuN+pe29zO5J9wkhLs1CXGDCExlAQkiSzHS+WQ4A4HmBDt/l8LPgwzQAAKANFzoIcQhxAKPuCRHiEOJcnwMIcQhxMBkWLun3fSNvV0buZu7En3yxclBau4IQh7QU27kWaYlu0S2EuGHke6MDGLNxf5DmJk/rWczuSa8FZ9CdlApxXbq6l2/kcQaQEJKg/JlHKwCA583rreSVkYcdfRasmddbydMCAICYL3QQ4hDiAOpAiEOIYw4gxCHEwZRYVNk5sHIsYlzMc9PKO9NaEYQ4pKXYzrVIS3SLbiHEjXjeyKsZs3HEei3CzJ7KGVHOpj8pFeKUke8xeISQZF24hf/HoxUAgMvCwET/RQMAAGK+E0CIQ4gDGHXRixCHEOf6HECIQ4iDptDVnG+j45WRe5hLcST8LndcSEtQd65FWqJbdAshbuRd16cZszHzM2b1VDslF9KfFApxgQlXMXCEkAR+u/zNPFoBAIYuC3sHFiojTzj6TLjHK5dn0wIAgFgvCRHiEOIA6u4LEeIQ4lyfAwhxCHHQChZ011Rg5GRlZA1zqqXCy79Se8eFEIe0FNe5FmmJbtEthLiR4/Yzxmx0ckXRzOopdsrKj+lQ2oQ4Xc35Rv7OwBFCeCADACR8s63lc84+F3T0RhoAABDnMwYhDiEOYCQIcQhxzAGEOIQ4aCX5vhXzfCunKCPrmFut+mxquFsau4AQh7QU27kWaYlu0S2EuOHjZqN/MWb1e3u5khnd1FrwG3qUMiHON9HHGTRCSAKzzuuu7cSjFQBgO4VSdV9lZL2zh+1abQYtAACI6UIHIQ4hDqAOhDiEOOYAQhxCHMTB7J5w78BEZykjm5hjzQpxsjyNHUCIQ1qK7VyLtES36BZC3NYxW9K/K+M1xvnWhkczo5taC66nRykS4nwdLlZGnmbQCCEJNNR/x2MVAGCslzJytrvPhvAVNAAAIKYLHYQ4hDiAUftOhDiEONfnAEIcQhzEOsd09YWBCa9injV1T3JCGsceIQ5pKbZzLdIS3aJbCHHD9hmMV/3aIA95fbUuZnRTa8FjdCk1QtzgdGXkcgaMEJLMRJ/lsQoAMOaG+0Bn/4pay7We502jBQAAMTxfEOIQ4gDqXyAgxCHEOT8HEOIQ4iB+BqcrEx2njDzCfJuS9PLlNI46QhzSUoz3pkhLdItuIcRtedbY6AjGq25fr+VrzOYmzoe6Op8epUiIC6wcy2ARQhL8121H8mgFABjv4jC6yNXnQ85EIQ0AAIjhchchDiEOoP7uECEOIc75OYAQhxAHbbvnsOFuQ59RZS86uVySznsthDikpZjOtUhLdItuIcRt28vLyYxXvRAXvpLZPHVytmrpUUqEuKC0ehdl5H4GixCS2AtnXX0Oj1YAgLHJ67DX4Z/1vpQGAADEcLmLEIcQBzDqBQJCHEKc63MAIQ4hDto+74phpIzcxdxr+Jf0b0njOCPEIS3Fdq5FWqJbdAshbtuYhV9gvEZkk2/D3ZjNTXTKhofTo7QIcRzmCSHJziOeNzidRysAwISH8F87LE2/kAYAALT4uYIQhxAHMOr+ECEOIc71OcAdOkIcdGTu6ep834Q/YP41lHWe501L2xgjxCEtxXhfirREt+gWQtyWZ42Rixmv4Qn/xExueh34b3qUAiFOmaisjGxioAghCc4veKwCAExMzlQq7v60d3QRDQAAaPFdAUIcQhxAHQhxCHHMAYQ4hDjoINN8Gx2vjKxjHu5gjqbw114Q4pCWYjvXIi3RLbqFELd1zGz0W8ZrRL7ITG52/xJdRI+SLsR113ZSRm5gkAghyT7ERx/lsQoA0NBB/BpXf947Zyo9NAAAoIXPFIQ4hDiAOhDiEOKYAwhxCHHQaXJF0crIPczFicSXanfaxhUhDmkpxrtSpCW6RbcQ4obuueQWxmv4nj48gZncFNOUkfvpUsKFOC64CSHp2KzLy3iuAgA0dBD/D2efFVrOoQEAANwXIMQBxAdCHEIccwAhDiEOksCcg1buo0x0E/NxnOdUUQ5O25gixCEtxXhXirREt+gWQtzWMXuA8dqenIlCZnITZ0NdfQ49SrgQN7sn3Ns38jgDRAhJerrsqj15tAIANECtNsPhv3TakC8OLKIEAAAtuihEiEOIA6i/8EWIQ4hzfg4gxCHEQWLmo67OD0x4FXNyrOdUuCpt44kQh7QU27kWaYlu0S2EuC1MU0bWM17bw7uUJveiNnoNPUq4EBcY+RGDQwhJQe7lsQoAMJnDePgGh39R9PM0AACgRc8ThDiEOIBRd4kIcQhxrs8BhDiEOEjUnCyt3oVfihvjOWXDo9M2lghxSEvx3ZMiLdEtuoUQ53meruYYqxFZ75XLM5nJzdybyjn0KMFCnLLh4QwMISQl+T6PVQCASbCosrMycpejz4wnc3rFMygBAEArLnYQ4hDiAEaCEIcQxxxAiEOIg8TNyy2fq1rL3Bzxx4JvTts4IsQhLcV2rkVaolt0CyHO87w5Sw+dw1iNyBpmcRNseQf3CD1KqBA3f9lAoLTcycAQQlIRHf4PT1YAAF5WNvxyRocfoQEAAC243EWIQ4gDYI+JEAd1cwAhDiEOErpvfRtzc/gclbenbQwR4pCWYlsfkJboFt1CiPM8Ty3p35WxGpE7mMVNnQtX0aEEC3HKRqczKISQ1Bzgi7KCRysAwOSYv2wgUEbWOPrseGTO0kPn0AIAgCbvDhDiEOIARl36IsQhxDn/4gMhDiEOkki5PFMZuYH5ufU5Ff1X2oYQIQ5pKbZzLdIS3aJbCHGe53X1VvZgrIYnuolZ3MydKZ9LTawQlyuKVkY2MCiEkJRkU1BavQuPVgCAKR3KP+Ts5a8O30UDAACavdxBiEOIAxgJQhxCHHMAIQ4hDhI7P214NPMzvV9cQYhDWorxfhRpiW7RLYQ4r1Cq7stYjcg1zOIp0lfrUkYepkNJFOJqtRmBCa9iQAghKcrfeLICAEzxUL7lZ8DXOvr8uNcrl2fTAgCAJp4jCHEIcQB1IMQhxDEHEOIQ4iCxLKrsrKw8xByVzcqE70vb8CHEIS3Fdq5FWqJbdAshzvO8OQet3IexGpErmMVTvS+N3kh/EirEKRMdx2AQQlKWc3m0AgA0dTD/jLt/ES1vogEAAM1c8CDEIcQBjAQhDiGOOYAQhxAHCX9OncUclc2Bjd6dtrFDiENaivFuFGmJbtEthDivy67ak7Ea8cnUPzCLp8LgdKXlFvqTQCHOt+FuysgaBoMQkq4LtvAEHq4AAE0f9J528xkif/fK5Zm0AABgipe7CHEIcQB1IMQhxDEHEOIQ4iDJ+CY6ijkqm30r70zd2CHEIS3Fda5FWqJbdAshztvmyjBe23Mjs3gq8z48jO4kVIhTRr7JQBBCUnfJXJSDebwCADT94vIsdy+BoyNoAADAFO8REOIQ4gBG7ysR4hDiHJ8DCHEIcZDsObry2cxR2ax0+La0jR1CHNJSbOdapCW6RbcQ4jzPC3R1PmM1Irczi6c076+gOwkU4nxd7WcQCCEpzIaFS/p9Hq8AAE1u0m21WxnZ5Oiz5DrP86bRAgCAKTw/EOIQ4gDqXyIgxCHEOT8HEOIQ4iDRaD1LGdmAEBe9MW1DhxCHtBTbuRZpiW7RLYQ4z/Pm9VbyjNWIPOV5g9OZyZM4C+rqofQmiULcosrOykQ3MQiEkPQd3OVaHq8AAC07oH/f1edJXovQAACAKTw7EOIQ4gDqL4AR4hDinJ8DCHEIcZCC+487+GRq+n4tHyEOaSnGNQFpiW7RLYQ4z/MGpzv8owFjJqdXPIOZ3CB9tS7fyN/pTQKFOGXlAwwAISSdl2vyFZ6wAAAtenFTivqQGAAAYFL3CQhxPEsA6veUCHEIcc7PAYQ4hDhI/B7WyA3Ov+A2lUraxg0hDmkpxjUBaYlu0S2EuK1j9hjjNeyHBIqVg5jJjXYnGqQzCRTiArPy2crIOgaAEJLOhG/gEQsA0NID3y+dfWlZlINpAADAJJ8bCHEIcQCj7hoR4hDiXJ8DCHEZEuKm8ZmorN59RH/gBXf6XnAjxCEtxXgfirREt+gWQtzWMbuL8Rp2rrXRMczkHVMoVfdVRp6gM8kT4qYpG/2cf3xCSIr/kq2HxywAQAsvF224kpeWAADQ8EUhQhxCHEAdCHHsLZkDCHGZEeJ0NaeM3BpoOWnO0kPn0O4M7WGN/M3551QpfFbq7qwQ4pCW4lsTkJboFt1CiNs6ZjcyXnypbXJnBj1LGbmMviRQiPOtvIp/eEJIivOEp/UsnrQAAK0+9Dn7l9Kb/FL0fBoAADCJZwZCHEIcQB0IcQhxzAGEuIwJcVv/nx4OTHhqoVTdl5Zn4d5D7kOIW71L2sYNIQ5pKcY1AWmJbtEthLitY/YbxmtErmMm72B/YqKP05MECnFz9fKCMnI3//CEkBTnch6zAAAxHPps9O8OP1vOpQEAAJN4ZiDEIcQB1IEQhxDHHECIy6gQtzUbfR1d5FtZTtvTycIl/b4ystHxObo2jWOHEIe0FNu5FmmJbtEthLhtYxZ9m/Ea+SMCXbq6F7N5bPJaRBnZRE8SKMQpI1/kH50QkvLN+ek8agEAYqBWm6G03OLo82VDwcp+lAAAoMG7BYQ4hDiAOhDiEOKYAwhxGRfihuePgZVjvb5aF81PD/li5SDmqNyQxrFDiENaiu1ci7REt+gWQty2ey75HONVFx2+jdk8moKu7K+MPEhHEijEDW34N/KPTghJ9cWajY7gcQsAENNLHBsd4+4zJvwCDQAAaPSiECEOIQ6gbh+JEIcQ5/wcQIhzSIjbmnsDE56qjBzIDEjD/lXeivQiP07j2CHEIS3Fti4gLdEtuoUQt3XMrLyX8eK+a0fkegZ2V0ZupRtJFOLK5ZlKy7X8gxNCUn+5XAqfxSMXACAmFlV2VkbucvQZ86Rvw90oAQBAIy8UEeK4IAQYCUIcQhxzACHOQSFu+Nz/vTLhW/J9K+YxGxK6fzXyM37pRb6UxrFDiENainFdQFqiW3QLIW5oLy+vZbxGJ1cUzYwe6khp9S7KyJ/pRUKFOF/LO/jHJoRkIGs8z5vGYxcAINYXOSe6+yukcgoNAABo4HIXIQ4hDmDUHhIhDiHO+XMUQpzDQtywrFNazsuZSsWr1WYwM5KBb8PdlJH1zM/whFSOH0Ic0lJc51qkJbpFtxDito1ZVGa8WB/GY+GSfl8ZuZxOJFSI67Kr9lRGHuMfmxCSgVzCYxcAIF7mLxsIlJWHHH3OPDJn6aFzaAEAwA4uChHiEOIA6kCIQ4hjDiDEIcSN+jWuO30bfTTQ1ecwQzqLb8KPMT9ls6+r/akcP4Q4pIS4zrVIS3SLbiHEDdGlq3sxXmNmva/DxU7vI3sHFvpGfkcXEizEKS0X8g9NCMlIPsRWGgCgDYd2G33Q2ZeYNno3DQAA2NE9A0IcQhzASBDiEOKYAwhxCHET5jplokHXXyh2ZN+6pH9XZeRR5qds7uqLnpnGMUSIQ1qKbX1AWqJbdAshbhuD05WRdYzZmPmN5+jX2/K90QFKyy10IMFCXGCjKv/IhJDMXCzr6qFspQEA2nBo76ksUEbWOnoJ9C+vr9ZFCwAAJnhOIMQhxAHU30EixCHEOT8HEOIQ4hr+5bhbfBt9NFcKjefoy8X27lv5wYihrEnrGCLEIS3Ftj4gLdEtuoUQN3LcbmDMxkv4BufmcbHyYmVkDWOfZCFOV3O+ln/wj0wI4a/YAABg0ht+G53u8AHvLTQAAGCiF4sIcQhxACNBiEOIYw4gxCHETWnNuC0w8qlAV1/oeYPTmUktnpc2OoZ5uS0/Tes4IsQhLcV2rkVaolt0CyFuxF2XnMeYjZt1OVu1TkzgWm1GoOUkZeQpxj3hQpxv5RT+gQkhGcpdbKMBANrH7J5wb2XkaSdf4mj5h1cuz6QFAADjXRIixCHEAYwEIQ4hjjmAEIcQ13TuVkbOUCY8bM7SQ+cwq5ojr0WUkfXMy22/TPj+tI4lQhzSUmznWqQlukW3EOJG3HXJexizCXN7l121Z5bnbqFU3VdZuZSxToEQp4wc6OoLTEJIZn+t57tsowEA2vxSx8qZzr7IsfIqGgAAMN4lIUIcQhxA3b4RIQ4hzvk5gBCHENfSbFBGLldW3psvVg7yarUZzLJJzMdStFoZWcucHDY3i7IireOJEIe0FNu5FmmJbtEthLjR+wfGbQdjOrsn3DuD03ZaYOS1ysijjHE6hLhpyshv+MclhGTsUvlkttEAAG0+vPdWnqeMbHT02XO953nTaAEAwBjPB4Q4hDiA+pcHCHEIcc7PAYQ4hLg4ZQV5SBm5INDh67t0dS9m3HgMTg9s9G6H7zHGy8a5enkhraOKEIe0FNu5FmmJbtEthLhhFErVfRmzhs68t+V0tZiZ+WrDf/ONXMnYpkiIC4y8jn9YQkj2LtTCl7KNBgDoxAE+/K6zhzsbVWkAAMAYzwaEOIQ4gFH3kQhxCHGuzwGEOIS4tuZGZaPTlQ0P7+qLnskM9LzArHw2PxQx3ryU36V5bBHikJbiu/NEWqJbdAshbtTY3cO4NZQnAxsdk+p52lt5nm/CHzCWKRPiAl2dr4w8wD8sISRj2VRYLHPZRgMAtJ+8Dnsdfv5cTgMAAMa4NEKIQ4gDqL+TRIhDiHN+DiDEIcR1NLcrI+cqLW/N6WrRK5dnujL3fBvupnT4aWXkSebgeIkGUz3GCHFIS3Gda5GW6BbdQogbNXbu/jjAFPPTwKx8drruNOUQZeQCZWQD45dCIc7X8jX+UQkhGczNbKEBADp6iP+Fu5dC4b/RAACA+ssjhDiEOICRIMQhxDEHEOIQ4hKVx5SNfq6sfCBnKpU5Sw+dk7U559twqdLyOWVkLXNv4uSLlYNSPdYIcUhL8d13Ii3RLbqFEMe5tvk8pWx0+uyecO+kjuv8ZQOBsvJmZeTPjFeKhThlw39TRjbxj0oIyVy0nMMWGgCgk5eP1X53X2pGP6QBAAB19w8IcQhxALw4QIiDujmAEIcQl+yvbygjf1VGLgiMnJzXImn81GpgVj47MOGJgQmvYr41nPu9Wm1Guu+kEOKQlmI61yIt0S26hRBXv9coRX2M25SzXhk5VxUrL07C3sO34W6BjY4Z+izqE4xP2oW47tpOSstf+AclhGTyMs1Gx7OFBgDo+EH+Glc/2+3bcCkNAAAY9kxAiEOIA6h/cYAQhxDn/BxAiEOIS2UeVEYuUzb6sm/lnTkThfniwCKvu7ZTEoYi3xsd4Gt5tTJyhtJyC3NsSjkj7VMSIQ5pKca7TqQlukW3EOJGUi7PVEbWMHZN5x5l5DOBjaqFxTK3HUOX6xnYPTAyoKx8wDfyO2VkI+OQISEusNG7+cckhGT2QtnKC9hCAwB0+CCvpebws+ibNAAAYPgzASEOIQ6g7m4SIQ4hzvk5gBCHEJepbFQm/Keycmlgwq8rKx9QJjouKEWrA1NZVrCy31y9vND0v3W5PLtgZb+gKAf7OnxloOUk34T/N/QS8xHGoRWJymmfkghxSEuxnWuRlugW3UKIG3v8vsPYtXhfqeVa38hXtvwBRqWS740OWLik35/SPr0oz/V1tT/Q4eu37FHle0rLnfw7Z1iIK5Sq+yoja/nHJIRkNE97fbUuttAAAB2mVpuhjNzs6LNoQ744sIgSAAAMXQ4ixCHEAdSBEIcQxxxAiEOIc1WkkId8Lf9QWq4NrFytjFymjFxSn8CEVw3995uVjf6ljKzj3y/maLnT8wanp31KIsQhLcV2rkVaolt0CyFuzDuv6I2MXduyVhm5NbBydWDk93X7xyuG9o5/9bX8Qxl5mH8vR4U4X0cX8Q9JCMlwrmH7DACQkJc8Ony9w8+jL9IAAICtl4MIcQhxAHX7RIQ4hDjn5wBCHEIcIQl7Jmn5RBbWV4Q4pKXYzrVIS3SLbiHEjUFXX/RMZWQT40dIAoQ4ZaKX849ICEFAAACA9rwY0LOUCf/p6PNoXa5nYHdKAACAEIcQBzAahDiEOOYAQhxCHCGJyqagFD4rC+srQhzSUmznWqQlukW3EOLGG0Mb/ZbxI6TDQtz8ZQOBMnIH/4iEkIxfJr+O7TMAQJIuIuUd7r7cCT9GAwAAEOIQ4gBGgxCHEMccQIhDiCMkSc+j6IfZuYdCiENaiulci7REt+gWQtx4zx4r72T8COmwEKeMnMY/ICEk8xdppej5bJ8BAJLDgu6aUkYedPS59OicpYfOoQUA4PzlLkIcQhxAHQhxCHHMAYQ4hDhCkpO8FsnK+ooQh7QU27kWaYlu0S2EuHGYc9DKffhsKiEdFOL8UvR8ZWQ9/4CEkIxnrVcuz2T7DACQNBFC3u/ws+m/aQAA8BxAiEOIAxgJQhxCHHMAIQ4hjpCkJLrJq9VmZGV9RYhDWortXIu0RLfoFkLcxOP4S8aQkA4JccqEv+IfjxCS/Y24XMrWGQAggS97Sqt3UUYec/T59MDCJf0+LQAApy93EeIQ4gDq94cIcQhxzs8BhDiEOEISMg9tdESW1leEOKSl2M61SEt0i24hxE30/DHRUYwhIR0Q4pSJXs4/HCHEjYvk8FS2zgAACT3Y2+h0h//a+jgaAABOPwMQ4hDiAOpAiEOIYw4gxCHEEZKI/DVrX1xBiENaiu1ci7REt+gWQtxE9NW6lJE1jCMh7RTiyuXZvpG/8w9HCHHjEi18BVtnAIBk0mVX7amMPO3oi87bPK1n0QIAcPZyFyEOIQ6gDoQ4hDjmAEIcQhwhibhPPzJr6ytCHNJSbOdapCW6RbcQ4nY8lv/LOBLSRiFOmeg4/tEIIa6kYGU/ts4AAEm+lJSvcckMAODg5S5CHEIcQB0IcQhxzAGEOIQ4Qjr+a/Z/8LzB6dm7e0KIQ1qK6VyLtES36BZC3A4olKr7KiMbGEtC2iHEaT0rMHIb/2iEEEfyoOd509g6AwAk+KWPrj5HGdno6HPqhixeNAMANHS5ixCHEAdQvy9EiEOIc34OIMQhxBHS4WdQUQ7O4vqKEIe0FNu5FmmJbtEthLiGxjP8LmNJSBuEuMDIa/kHI4S4swmXH7NtBgBIgxQhF7r7wjNcRQMAwM21HyEOIQ6g/t4SIQ4hzvU5gBCHEEdIR3NuVtdXhDikpdjOtUhLdItuIcQ1ss+38gLGkrQoG30TnqC01JSWaxHiRjJNGbmZkhBCHNqEf5BtMwBA8smbqOTw8+oKGgAATl7uIsQhxAHUvyRAiEOIc34OIMQhxBHSsTzc1VvZI6vrK0Ic0lJs51qkJbpFtxDiGh1TKz9mPEkLfmDhxO3rRPgGhLjhGz4bvYSSEELc+on3MGLbDACQlgNh9HN3L42qL6IBAODcuo8QhxAHUAdCHEIccwAhDiGOkI7Nu6OyvL4ixCEtxXauRVqiW3QLIa5BcqXQKCObGFPShAz39eGdmtdbyftGHkeI27Zwht+iKIQQpw7yNtyNbTMAQEouJ034Uj7xDQDg0OUuQhxCHEAdCHEIccwBhDiEOEI6Mefk4szfOSHEIS3Fda5FWqJbdAshbnLj+n3GlEwxl3uLKjuPOkNaORMhzvO8oLR6F2VkHUUhhDiU29kyAwCk7QWQ/N7V51auKJoGAIBTl7sIcQhxAKP2gghxCHGuzwGEOIQ4Qtousfwr1zOwe9bXV4Q4pKXYzrVIS3SLbiHETYKCruyPs0OmcEdwm987sHDMM2RRDkaI8zxPmeg4ykIIcSzfYcsMAJC2g370cmefW1rOowEA4NSajxCHEAdQf5GLEIcQ5/wcQIhDiCOkrdno62q/C+srQhzSUnx3mUhLdItuIcRN8plkwo8xrmQSedgvDiyZoFLTlIluQogz8jPKQghx6gJZy0lsmQEA0sbgdCc272NnQ743OoAOAIAzl7sIcQhxAHUgxCHEMQcQ4hDiCGlnwve5sr4ixCEtxXauRVqiW3QLIW6SzF82ECgjdzG2pIGsUyYqc5eyAyEu37dinjKynsIQQhz7pZ1D2DIDAKTxJZC8zuHn1xk0AACcudxFiEOIA3DxEhchDiacAwhxCHGEtGme6egizxuc7sr6ihCHtBTbuRZpiW7RLYS4KZDXIowt2dEv+SottYb2Ob0DC5WRp50V4nwTHklhCCGuPSTm6uUFtswAACmku7aTMnKHq3/xk+sZ2J0SAIATl7sIcQhxAHUgxCHEMQcQ4hDiCGlLrlnQXVMura8IcUhLsZ1rkZboFt1CiJvyvZicw/iSCX74502TWzPC7zorxAVGzqY0hBDHciPbZQCAFF9UmvAEhz/5/QkaAABOXO4ixCHEAYy6w0SIQ4hzfQ4gxCHEERL7y9U7u3orezh3z4QQh7QU17kWaYlu0S2EuKnu/Uurd1FG7maMyRj7tfdPuk/FMHJZiLuN4hBC3Lo8Dr/OdhkAIL0s6K4pZeQBR59jjxYWy1xaAACZv9xFiEOIAxh1h4kQhxDn+hxAiEOIIyRWYeVfE75MzDAIcUhLsZ1rkZboFt1CiGvqbkwOUUY2MM5k2H3Ap6ZUplpthtJyp5NCHMUhhLiX8C1slwEA0n7ojwbd/Qug8H9oAABkfp1HiEOIA6gDIQ4hjjmAEIcQR0hcsoo8lNPVoqvrK0Ic0lJ895dIS3SLbiHENTvW4fsYZ9KUDOfCuoEQRwgh25PXYS/bZQCAlL8MKq3exTfyuKPPsvs8Xc3RAgDI9IUfQhxCHED9/g8hDiHO+TmAEIcQR0gsWZMrhcbl9RUhDmkptnMt0hLdolsIcU0zOF1Z+TFj7fzX705ttkkFXdlfGdmEEEcIIdnOU96iys5slwEAMnHwP83dX4mTt9IAAMj0Go8QhxAHUAdCHEIccwAhDiGOkJbnbt+GS11fXxHikJZivLtEWqJbdAshrmnm9Vbyysj1jDe/DNeCteMXCHGEEJLth8bv2SoDAGSDLrtqT2XkKUefabd7Ws+iBQCQ2ctdhDiEOIA6EOIQ4pgDCHEIcYS0NH8r6Mr+rK4IcUhLMZ5rkZboFt1CiGsRBSv7KSP3MeaOnX10+JGW7nlsdARCHCGEZHrjLZ9nqwwAkKFLSyNfdfcwJK+mAQCQ2ctdhDiEOIA6EOIQ4pgDCHEIcYS0LJcHpdW7sLIO3S0hxCEtxXWuRVqiW3QLIa6F5IuVg5SRxxh3J7Ixlq8E9dW6lJWHEOIIISSrF8c2eg1bZQCADL0U0tXnKCMbHf1s6l88b3A6LQCATF7uIsQhxAHU7/sQ4hDinJ8DCHEIcYS04jkSneX11bpYVbeDEIe0FNu5FmmJbtEthLiW35fJIcrIk4x9prNO2fDw+NaP6LMIcYQQkt0cyFYZACBrFwDRt529yNbVQ2kAAGTzgg8hDiEOYCQIcQhxzAGEOIQ4QprK+kDLSaymo0GIQ1qK784SaYlu0S2EuNaT1yLKyFOMfybziCpWXhxnf3Km0oMQRwgh2cxjXq02g60yAEC2yNmqdfdlkFxJAwAgk5e7CHEIcQB1IMQhxDEHEOIQ4giZ8i/M35I3UYmVdGwQ4pCWYjvXIi3RLbqFEBfXs6soK5SRtXQgU/mbr8PFbVpDrkGII4SQ7OWXbJMBADJ7CfAzhy+2D6EBAJC5dR0hDiEOoA6EOIQ45gBCHEIcIVP7ROqC7ppiFR0fhDikpRjvK5GW6BbdQoiLjbyJSsrIg/QgE+f8H+X7Vsxr3xoSvgUhjhBCMvdZOfkE22QAgIxeXtroJe4+48Kf0AAAyNzlLkIcQhxAHQhxCHHMAYQ4hDhCJpW7AiMDrJ4N3CkhxCEtxXWuRVqiW3QLIS7uZ1hxYIkycjtdSG02+Tr8SLu/cDdn6aFzlJEnEOIIISRTm+7wcLbJAACZfkF0lavPuFxRNA0AgExd7iLEIcQBjNrrIcQhxDl/3kGIQ4gjpJFsVEbOmNdbybNyNgZCHNJSbOdapCW6RbcQ4trxHLPhbr6RK+lD6vKwMuFhnTtfytkIcYQQkqHMOWjlPmyLAAAyfBFg5WXuXizJ+TQAADK1piPEIcQBjLqsRYhDiHN9DiDEIcQRsoNnhJWr8yYqsWJODoQ4pKXYzrVIS3SLbiHEtYu+WhfnhVR99edXXbq6V2fXkaiMEEcIIdnJfeyGAACyzuB0peUvrv4FeFAKn0UHACAzl7sIcQhxAHUgxCHEMQd4wZUZIa67thO/4kFa/Gy4zbfyKs8bnM5qOXkQ4pCWYjvXIi3RLbqFEPf/2bv3cLvOutD3M5e2yRrvWKtXUotS6a7lEhua9b5jhdgeWWhMu8ZvzED3YT54QCtupSooFd0QUA8ulS3xbtm6t1GPl3pjBzce6NYtVo634o16p4APFKFUKmChQEshbdPzR0MopZckzVprzjk+n+f5/sdf5B2/Mdccv86x2ve00l1RlbjD2RjbDqbSLa/2K1IfxrpU4t0W4iTJF8YATMpDoqb7xh5/ufQLTgAwNV/uWoizEAcP/pxnIc73G72/BizETc1C3GFVbi9Muf3pVOI2/7Y6zm6rS/fyweLiJlPyMV2LFuIsLa3M37WWlpwtZ8tC3Nqcjy9Ppf0H52PsfhXuH6qmvWis/sZsuldaiJOk6bjJfL+PQAA9kPNJqcT7+/pfF21unvUlDgEwFV/eWYizEAcP/qLWQpyFuN5fAxbipm0h7ojzl05JOUZV7q5NJe7x76yj6COpdMunXvTsU03Hx85CnKWlFfu71tKSs+VsWYhbw+ckdY69qcRnnJO1/vsl7kilWx5sHZ08dp+BmvbsVOJuC3GSNOHNlK716QegJ19klvjO3j4gbeLHnQBgKr7ctRBnIQ4exEKchTjXgIW4qV2Ie4C5Js5LJV6dctzi31sP0furEt85yMMZU/EEfo9kIc7S0kr9XWtpydlytizErbGZPJyvS/vXzsqadCjl+PWZfOkXjfXnoNK+yUKcJE1625fO8rEHoB+2bNtd3f9fS/fynvfJ2Z2Xnu4UABP/5a6FOAtx8CAW4izEuQYsxPVhIe5zltfXeXhJarqrLccplbg+5RgNFhc3moYnnoU4S0sr9netpSVny9myEDc2nyvbb04lPuzMrNbciz+t5+P/mJC/M59lIU6SJvmLshz/4sMOQN++FGi/v8d/bL3KCQAmfo5biLMQB1/wJa2FOAtxfb8GLMT1ayHugZbX12Xp4lTip1Jpb3YOerNA8qFU4qfSfDzFBFxZFuIsLa3c95OWlpwtZ8tC3PiYuzBOq5rYl0rc6eys2Lz7i6q0XzNRB2NxcWMqcauFOEma3MWAAz7mAPTL7M5LT08lPtnTe99HtmzbXTkFwER/uWshzkIcPIiFOAtxrgELcf1diPs86+qFbmdd2p9IJd7jTExdn05NHKjn286vwa0eC3GWllbs71pLS86Ws2Uhbhzve017dirx2lTi087QCeuPZkrXTu6ZiH0W4iRpUr8oa+I/+3gD0McHRvGT/b33dVc5AcBEf7lrIc5CHHzBZzsLcRbi+n4NWIizEPeF5po4L+XuW1OJ/5lKfMwZmcQzHXek0v12ldvnnZZ3zTnVq89CnKWlFfu71tKSs+VsWYgb53O0bffjUumWU4l/d5aOq0+kEvur3F448X9rLrQXpBKHLMRJ0kR+2B4+w8cagP7ZvLN7fCrxmX7e/9qbBzmf5BQAE/ulnIU4C3Hw4C9oLcRZiOv9NWAhzkLcoxiNNszOLz09NfGqVOLPUom7nZnx/Zu9KvGLdR4+e7BztNnhXVsW4iwtrdjftZaWnC1ny0LcBNiybXeVmnhRKvF3ztSjdk8q8Ud1E1eetXWUpmyu/ImFOEmawBvTmRfvqX2cAejpl5olfrG3D0ub9gVOADCxX8JYiLMQBw9iIc5CnGvAQpyFuGNz+o6l2Wo+Lk1NvKou8bupxEecoTXr43WJ362a7qo0H09xOsfsuyMLcZaWVurvWktLzpazZSFuwswstCWV9r/71bjP695U2j9OpX1x1bRnT+3nodJdYSFOkiavt/v4AtDjh0b3/9TzvT29B75jMFhe7xQAE/nl7nw8JeUYKUYpxzOdCBgM6nLZk8yDGNV5eInT0E+zpVtwDcSomt+zzWl4DOdoR/dlVdM9P5V4bVXir/r7q+orvLiZ419Sjl9PpX1xtdA9bTAabXD6xleV2wvN1xjN5naH03CC/64t8eXOlrPlbK1cM6VrnYYVsri4scrD3Yd/cKCH/1FFe3NV2l+qmu751Y49W3rxb75ztHlSZ8HpO5ZmH2lg+gNF0jR/+fDLPrUA9P4Lgtf39hdEFrrLnQAAAAAe0vlLp8zk4XyV4xuq0v1oauL3U4kP+F75mF6b9c+ptK+rS/fyqrRfU+fhmQ4WADA9ltfPNMPm8Nscrk8lDk7fL8DFO+sSv5aaeFFdLnuSf/Mp4g8WSVNdjm8z6QH6bWY+cn9fJxR/5QQAAABwLM7aOkpV016UcozqEt9TlfaXUok/TDluTCU+3sO/rz9cl3hbKvGbKbffd+TXCs9fOsVpAQB6Zedoc2rar6yb7pVVad+USnvzBH2m+2Qq8TepxG/VpX1ZyvHMR/x1MSZfKnGnpRlJ09rMQltMegBSiT/o7VJc0321EwAAAMCJsmXb7qrOwyenHM+smvi6unQvT013dSrdb6cSbz28OPeBCVie+3Qq8YGqxF9Vubu2KvGLqYkfTE28aDZHpGa4dZCHM/7FAQAe3uzOS09P80tflXJ8Ryrx2rrE76bSvevwZ63VXnh7ZyrxR3WJX6tK96OptN+Scjxz887u8f6leqjPDwclTX2fHmwdnWzSA5Dml76qx/fDP3ACAAAAWCtzF8Zpm7a351a5vbAuSxfPlKWl1HTPrZu4si7dy+sce+sce1PT/VDVxL7Plkrs/2xVjl9OTRx4cId/ve5z/7vS/WiV2x+uc+ytSvvSuokrqya+rm66YZ2Hl6QSX755Z/f4Ldt2V/5lAABWVr1w+RmpGW6tmu6rq9w+L+XuW+sce6ume00q3c987nNc+7ojn/FK/OYDP9/VJX7y/s+G3XKVu++qS3xTyjGqmtg10wybulz2pLO2jpL/t/nCA5hjr6UZSVP6mri/NOUB+KxU4s/9YioAAAAAAABMuZk8nLc4I2lK+6+mPACfVS90l/f3ntj9thMAAAAAAABAb6QS77E4I2n6fiGu/XoTHoAHWJdKvL2n98V7046lpzoCAAAAAAAA9ML979u1PCNpuqrz8MkmPAAPVDftC3r8KvFfdAIAAAAAAADoBa9NlTSF3T4YLK834QH4PDmfVJd4X0/vjQc35+ETHAIAAAAAAAB6IZV4hwUaSVNT073FZAfgIT/35vYlvf311BI/6QQAAAAAAADQC6l0326JRtLUvBau6V5jsgPwkPJwJpX4cE9fm3pHnYdnOgQAAAAAAABMvTMv3lOnEh+3SCNpOn4hLv6jyQ7Aw0lNvKq/98n2+50AAAAAAAAAeiGV7mcs0kiahjbn4RNMdQAezuzOS09PJT7R0/vkv2/ZtrtyCgAAAAAAAJh6pz79si9NJT5jmUbShHeriQ7Ao6mb+PHevlq8xHc6AQAAAAAAAPRCarpfsEwjacJ7o2kOwKOpmvbsVOKunt4rPzDYOjrZKQAAAAAAAGDqbc7DJ/iVOEkTXW6/zzQH4Gj0+T8GqZvuG50AAAAAAAAAeiHl+FlLNZIm9jVwTXuZSQ7A0Zjd0X1ZKnFPT++Z7xwMltc7BQAAAAAAAEy92Z2Xnp5KfNhijaQJ7FC9cPkZJjkARys1caC3980m/qMTAAAAAAAAQC/UTfdCizWSJrB3m+AAHItqoXtaKnGol69NLe1fOwEAAAAAAAD0xPL6qsRfWq6RNGH9lvkNwLFKTfx+f181HrucAAAAAAAAAHqhmt+zLZU4aMFG0sQ81C/tS01vAI5VyvHMHt8//9AJAAAAAAAAoDdSiVdbspE0Oa9+W7rY5AbgOD/3vrWv98/Z+aWnOwEAAAAAAAD0w/lLp6QcN1q0kTQB3bNl2+7K4AbgeNR5+Owe30P/pxMAAAAAAABAb8zOLz09lbjXso2ksS7H35vYADwG61KJf+rpffRQ2rH0VEcAAAAAAACA3kil+xkLN5LGfCHu501rAB6LKsc39PU+WpX2l5wAAAAAAAAAemPLtt1VVeK9lm4kjWt1073QtAbgMcn5pLrE+3p6Lz24OQ+f4BAAAAAAAADQGzNlacnSjaSx/WWbpr3IpAbgsUo5vqPH99OfcgIAAAAAAADoldR0v2HxRtIYdtcg55NMaQAeszycSSU+3NP76Z11Hp7pEAAAAAAAANAb9cLlZ6Sm+5DlG0lj1ltNaABOlJTb7+vvPbVbdgIAAAAAAADolSq3z7N8I8kr3gCYVqflXXOpxO09vafedtbWUXIKAAAAAAAA6JVU4o0WcCSNS1Vun2cyA3Ai1Tl+rLf31dK+1AkAAAAAAACgV2a27zknlfiYRRxJ49Dsju7LTGYATqSqac9OJe7q5b01xy2DraOTnQIAAAAAAAB6JTXxIos4ksagjw0Gg3WmMgAn/PNujp/v6/21LvFNTgAAAAAAAAA9s7w+NfGnlnEkrW3tm81jAFbCXBPnpRL39PQe+57BaLTBKQAAAAAAAKBX6oX2gt6+SkrSuPRq0xiAlZJy/I/+3mO75zgBAAAAAAAA9E4q8b0WciSt3Svd2meZxACslGqhe1oqcain99m/G3gtOQAAAAAAAL2zuLgxlfgbizmS1qKZ7XvOMYgBWEl1if/d1/tsVdqvcQIAAAAAAADonappL0olDlrOkbSq5bjFBAZgpaVm+Ize3mub7i1OAAAAAAAAAL1U5/gxCzqSVnkh7g2mLwCrIZV4a29fT77Q7XQCAAAAAAAA6J+do82pxLst6UhatQf0TfdKwxeA1VCX2GMBHQAAAAAAAHrm8OukDlnUkbQaVU3sMnkBWCXrUol/6uk991BqhlsdAQAAAAAAAHopNd0vWNSRtBoP50+96NmnmroArJaqtF/f2yX0HL/sBAAAAAAAANBLp+VdcynHLZZ1JK1s3btMXABW1eLixirHv/T03ntw0/b2XIcAAAAAAACAXqrn286yjqSVrC7xa6YtAKstle7be3v/ze1POwEAAAAAAAD0Virxeks7klbwofxLTFoAVt3i4qZU4tae3n/vTNuXznIIAAAAAAAA6KWqac9OJW6zuCNpJZqdX3q6SQvAWkglvre/C+nxA04AAAAAAAAAvVU33Tda3JG0Ah0c7BxtNmUBWAun5V1zqcTtPb0H33bmxXtqpwAAAAAAAIDeSqV9s+UdSSe4vzFdAVhLVWl/pK/34SrHdzsBAAAAAAAA9Nam7e25qcQnLfBIOoH9nOkKwFqqduzZkkp8qqf34VsHi4ubnAIAAAAAAAB6qyrtSy3wSDpR1SW+yWQFYK2lEj/X23txbr/ZCQAAAAAAAKDHltenEm+1yCPpxLyqrb3QXAVgrc01cV4qcXdP78fvGYxGG5wCAAAAAAAAeivNx1NSiU9b5pH0GLtzsLi40VQFYCw+45b4rd7ek3OMnAAAAAAAAAB6LeX4Acs8kh5TTfypaQrAuKjm92xLJQ71dCHu7weDwTqnAAAAAAAAgP7aOjo5lXi7pR5Jx1vdxI8bpgCMk7p0v9ff15gPdzsBAAAAAAAA9NpsbnekEvdY7JF0fL8Q1z3XJAVgnKSm/coe35v/PycAAAAAAACA3ktNd7XFHknH01wT55miAIzd59sS1/f411u/wgkAAAAAAACg3/JwJpW4yXKPpGPstsFgsM4QBWDc1E037O/9uf0dJwAAAAAAAIDeS/NLX5VKHLLgI+mof4GmxP82PQEYU+tSiX/s6T36UCrx5Y4AAAAAAAAAvVeX9lct+Ug66nL8gMkJwLiqmvi6/i6tt7/qBAAAAAAAANB7szsvPT2V+DeLPpKO6mH7fNuZnACMrdFoQyrxnp7epw9u2t6e6xAAAAAAAADQe6npnmvRR9LRNJMv/SJTE4Dx/mwbL+rxvfq1TgAAAAAAAAAMBoNU2t+x7CPpUXq/aQnA2Ftc3JRKfLCn9+o70/alsxwCAAAAAAAAem9m+55zUomPWfiR9Ai93rQEYBLUTffK3t6vm+6HnAAAAAAAAAAYDAaptN9i4UfSw1WX7uUmJQCT4PQdS7M9/o89bj8t75pzCgAAAAAAAGAwWJdK/KHFH0kPWY5nGpMATIqqiX19vWdXTfxnJwAAAAAAAAAGg8Hsju7LUolPWf6R9KDuPX3H0qwpCcCkqHbs2dLjz7W3DhYXNzkFAAAAAAAAMBgM6ty+wvKPpAf9OtyNpiMAkyaV9r/39lXnTfdCJwAAAAAAAAAGg8FgcXFj3cQNloAkfe6hevyK4QjApJlbGD4xlbi7p/fvmwaLixudAgAAAAAAABgMBtVC97RU4qBFIEn3177YZARgEqUSv9nb+3fTPdcJAAAAAAAAgMOqJvZZApKUStw3W7oFUxGAifxMO79nWypxqKevPP/7wWCwzikAAAAAAACAwWAwOH/plFTiHZaBpN73mcH5S6cYigBMqqrE/+rrfbxq2sucAAAAAAAAADgsNe1X9vYXNSTdl0rcV5f2r01DACbZ7PzS03v82vM/dgIAAAAAAADgAVKJn7MUJPW4HD9rEgIwBZ9p/6y3y+1NfIUTAAAAAAAAAIedvmNpNpX2ZotBUl8forcvMAkBmHSzOaLH9/M3OgEAAAAAAADwADOlay0GST1tx9JTTUEApkEq3d/29H5+KJX4cicAAAAAAAAAHiCV9nWWg6Te9YnBaLTBBARgGlS5fV5vf/G1dNc4AQAAAAAAAPAAdR6emUp82IKQ1Kv+yPQDYGqMRhtSiXf39J5+96lPv+xLHQIAAAAAAAB4gKp0V1gQkvpTVdofMfkAmCYpx7f1+N7+X50AAAAAAAAAeJCqtG+yKCT1pe45ph4AU+X8pVNSiQ/29N5+V9W0ZzsEAAAAAAAA8ACb8/AJqcQnLApJ09+m7e25ph4A06bO7St6fH9/tRMAAAAAAAAAD5Jy+xLLQtLU92HTDoBpdPqOpdlU4mM9vb/fflreNecUAAAAAAAAwOdZXp9K/JmFIWl6q0r8L7MOgGlV5faH+3qPr0v3cicAAAAAAAAAHqQulz0plbjL4pA0rbXfb9IBMK3Stt2PSyU+1dP7/L8Ndo42OwUAAAAAAADwIKmJV1kakqazmbK0ZMoBMNWfZXP8bI8X37/FCQAAAAAAAIAHW1zcmEr8neUhaQrbtvtxhhwA02xuYfjEVOLunt7rbxosLm50CgAAAAAAAOBBZku3kErcY4FImp6qEu813QDog5Tj13t8z/9aJwAAAAAAAAAeQl3iJy0RSVP1GrXXmWwA9EHasfTUVOLent7v/2EwGKxzCgAAAAAAAODB8nAmlXiPJSJpSn4hLsd3G2wA9EWVu2v7es+fKUtLTgAAAAAAAAA8hJTjmanEIctE0hTUtF9pqgHQF7O53dHj+/6fOAEAAAAAAADwMKrS/pJlImniu+esraNkogHQJ6nEn/T13l838RVOAAAAAAAAADyE0/KuuZTjFgtF0kT3T6YZAH0zU7q2x/f+1zsBAAAAAAAA8DBS6Z5joUia3KrS/pJJBkAPrUsl3tnT+//dm7a35zoCAAAAAAAA8DBSjjdYLJImtBzfZooB0EdVaV/a24X4pnuNEwAAAAAAAAAPY2b7nnNSiY9ZLpImr5mFtphiAPRRnYdnphL39HQh/pbBaLTBKQAAAAAAAICHUef2my0XSRPXXYOto5NNMAD6qirxV739lbj5uNQJAAAAAAAAgIe3LjXdWywYSRP0ILzEXxpdAPRZKvHqvn4OqEv7q04AAAAAAAAAPIK5heETqxJ3WDSSJqbXmlwA9Flquuf2+HPAbYPFxY1OAQAAAAAAADyCurQvs2QkTcovxHVXmFoA9Fk1v2dbrz8P5HimUwAAAAAAAACPZDTaUJd4m2UjaRJelXbZkwwtAPpsJl/6Rf1ejm9/xCkAAAAAAACAR3H4lzYOWjiSxrrbB4Pl9SYWAH22Zdvuqt/L8fE2pwAAAAAAAACOQirxagtH0hjXdG8xqQDovTyc6flngntOvejZpzoIAAAAAAAA8GjOXzol5bjR4pE0pq9Ia7rXGFQA9F3fX5maStxX5eFuJwEAAAAAAACOQp2Hl6QS91o+ksax9v80pQDou2qhe1rfPxPUuX2FkwAAAAAAAABHKZXuZyweSePX5uZZX2JCAeCzanyt16jHAScBAAAAAAAAjtKZF++pU2lvtoAkjVW3mk4AMBhUTfcanwvi7U4CAAAAAAAAHIOZsrTkQaM0Vr3RZAKAwaAu8TafC+KuwWB5vdMAAAAAAAAAxyA13W942CiNSTn+b1MJgL6rduzZkkrc67OBV6kDAAAAAADAMasXLj8jNd2HPHCU1r4qD3ebSgD0/vNpaV/mc8H91QvdTicCAAAAAAAAjlHVdM/3wFFa8w7VC5efYSIB0G/L61Pp3uVzweGFuNI+y5kAAAAAAACA41CX+F0PHaU17T0mEQB9V+X2eT4TPGAhrokrnQoAAAAAAAA4Dpvz8AmpxCc8eJTWrN80iQDotfOXTkkl3u0zwQNfpx7f7WAAAAAAAADAcUqlfbEHj9IaPfAu8Z2mEAB9VjXda3wmeFC5/T4nAwAAAAAAAI7b8vpU4s88fJTW4JVoeXiJGQRAX9VNfEUqcbfPBF/Qf3E6AAAAAAAA4DGoF9oLUom7PHyUVrV7tmzbXZlAAPTRzPY956QS/+rzwEP2aicEAAAAAAAAHqNU4ns9fJRWs/YfTB4Aevm5c9vux6USb/dZ4OHqlp0SAAAAAAAAeKxyPinl+HsPIKVVqul+weABoG9mtu85J+W40WeBR3ileonvcVIAAAAAAADgBKia9qJU4qAHkdIqPOxuuheaOgD0SV2WLk4lPuhzwKP+iuyLnRYAAAAAAAA4QeocP+YhpLTyzZSl7SYOAL2wuLgpNfGD/sOLo6sq7f/l0AAAAAAAAMCJkoczqcS7PYyUVrRPDXI+ycABYLotr09N99xU4p/d+49hIS4Pdzs7AAAAAAAAcAKl+aWvSiUOeSAprVhvNWkAmNrPktt2Py7l9iWpdO9yzz+Odiw91SkCAAAAAACAEyw13S94ICmtULn9aVMGgGky18R5Kcd3pBJ/kErc7X5/3B0a7BxtdqIAAAAAAADgBDv1omefmkp80ENJaQVehdZ0zzdlAJhoi4sbUzN8RlW6H00l3uH+fsL6oMMFAAAAAAAAK6SebzsPJaUT3+z8nvNNGAAmzezOS09POUZ16a5JTXzUPX1Fus5JAwAAAAAAgBWUSrzeg0npBNbERweDwTrTBYBJMNfEeVXTXZVKXJdKHHQvX9nq0v6EUwcAAAAAAAArqGras/0CiHRC+wOTBYCxtXO0eaYsLaUcP1uXeJ/79iq/Vj3HNziEAAAAAAAAsMLqpvtGDyilE9arTRUAxknatvtxVemuSE0cSCU+4V69hr8Qt9Be4EQCAAAAAADAKkilfbOHlNIJeRXas0wUANbW8vqZ+ch1jr2pxPWpxCH36LHoVmcTAAAAAAAAVslcE+dVJe7woFJ6bM1s33OOiQLAajt9x9JsyjGqm/iV1HQfck8ew3L8DycVAAAAAAAAVlFV2pd6WCk9pj5gkgCwWuaaOK9u4soqd9emEp9xHx7zX5Ft2hc4tQAAAAAAALCqltenEm/1wFI67l9+eYM5AsCKGY021Hl4SdXEvpTjRvfeiereaseeLQ4xAAAAAAAArLIqtxf6hRHpOH/5pcT3mCIAnEhp2+7H1U37glTi9anEx91vJ7Y/d5oBAAAAAABgjaQcP+ChpXTsVU331SYIAI/5s1gz3Frn2JtKXJdK3O0eOxW/IvsdTjYAAAAAAACsla2jk1OJt3t4KR1Th0696NmnGiAAHLOdo81VE7tS012dSnuze+rUdbfXpQIAAAAAAMAaqxe6nanEvR5gSkfdP5scABytTdvbc1MTL6pL93upxF3uo1P8C7KlfZMTDwAAAAAAAGMglXith5jS0VWX+DVTA4CHt7x+Zj5yKt1y3cQNqcQh98++vFK9vcz5BwAAAAAAgDGwZdvuKpW4yYNM6SjK7UtMDQAe/FmqbrphKrE/lbjV/bKXvWcwWF7vagAAAAAAAIAxUTXtZR5kSkfxC3EL3U4TA4A0H0+pS/uyVNo/TiXudo+0MO+qAAAAAAAAgDFTl+4aDzSlR+zgYOdos2kB0EOLixvrPLykamJfKvFO90Q9oFt9PgAAAAAAAIAxVC9cfkYq8W8eakoP29+YFAD9kbYvnVWV7orUxIFU4uPug3qoqtK+1NUCAAAAAAAAYyqV+FoPNqWH7edMCYCptm5moS2pdMt1ibelEofc+/Qovd+vwwEAAAAAAMCYS6X9HQ83pS+sLvGfTAiAKZOHM1UTu1LTXZ1y3OJ+p2P6dbime76LCAAAAAAAAMbc5p3d41OJ2z3klB700Ht+zzYTAmDyzTVxXsrtS1Jp35xKfNo9Tsf3qtT4q8FgsM4VBQAAAAAAABMg5e5bPeiUPq87B4uLG00HgAk0Gm2YmY+cSrdcN3GDe5pOQHfP5OG8iwsAAAAAAAAmx7pU4g897JSO9CfGAsDkmN156ekpx6gu3TWpiY+6j+nE/jpc+yOuMgAAAAAAAJgw9UJ7QSpxl4eeUtxXl/YnTAWA8VbN79lW5/YVqcT1qcQ97l9ambp3DfJwxhUHAAAAAAAAE+jwQ2UPPqWme66JADBmFhc3VU3sSk13dV3ife5XWo1Xpc6WbsHFBwAAAAAAAJNqcXFjKt3fevipvjeXl/6DgQCw9jbvWPriVNpvqUr7plTiTvcoreovxub2Fa5CAAAAAAAAmHDVQve0VOKgh6DqcbcNBoN1pgHAWlhePzMfuc6x9/CrUA+5L2mNeuNgsLzeNQkAAAAAAABToGpin4eg6u2vwZTu90wBgNWzZdvuqm66YSqxP5X4V/cijUH/fFreNefqBAAAAAAAgGmxc7Q5lfhnD0PVy5r4QUMAYGXVC+0FVe6+KzXdW/wyrcasj9QL7QWuUgAAAAAAAJgyqRk+w2vK1MtfiJtvOxMA4AQbjTbUeXhJ1cS+lONG9xuNaZ+qm/gKFywAAAAAAABMqVTi5zwYVd+qmvZsVz/ACfgcsW334+qmfUEq8fpU4uPuMRrzDtZNN3TlAgAAAAAAwBQ7fcfSbCrxAQ9I1ZtfhyvxPlc+wPFLzXBrnWNvKnFdKnG3e4smpHtSia91BQMAAAAAAEAP1CX2eEiq/tT9tqse4Bjk4czhzwr7U45b3Ec0gX0mle45LmYAAAAAAADokVTa13lYqn78Qlz3clc8wCPbtL09t27iytTEgVTik+4fmtjXpJe4o2ray1zVAAAAAAAA0DPVjj1bUol/9+BUU9/80le54gEeZDTaUOfhJVXTvSaV+Ef3C01FTfeh2dItuMABAAAAAACgp6rSXeHhqaa8e0/fsTTragcYDLZs213VTTdMJfanEre6R2iqyvH3pz79si91pQMAAAAAAEDPpSZ+30NUTXHvcJUDvb7P71h6al3al6XS/nEqcbf7gqZ0Ge7XB3k444oHAAAAAAAABpu2t+emEp/wMFXTWN3Er7jKgV5ZXNx4/6tQY18q8U73Ak15n6qa7ioXPgAAAAAAAPB5qqa7ygNVTWfdt7vCgWk3ky/9ojq335xyvCGV+KTZr17UdH9R5+GTTQAAAAAAAADgISyvTyX+3MNVTVuzpVtwfQNTaN3MQltS6ZbrEm9LJQ6Z+epRd1a5+67BaLTBKAAAAAAAAAAeVp2HT04l7vKQVVPUZwbnL53i6gamQh7O1E03TCX2pxy3mPHqY1Xurp1bGD7RQAAAAAAAAACOSirt93vYqmmpLvE2VzUwyeby0n9IuX1JKvEHqcSnzXb1dhGuxF+mZvgMUwEAAAAAAAA4NltHJ6cS/+TBq6aiJv6bixqYKIuLG1PpFuscP5ZKvMMsV++X25u4YTZHGA4AAAAAAADAcZst3UIqcY+HsJr816rFN7iigXFXL1x+Rsoxqkt3TWrio+a3FIdSievqphsOBoN1pgQAAAAAAADwmNUlftLDWE3+L8QNt7qagXFUze/ZVjfdK1OJ6y2hS0f616rpXlMvtBeYEgAAAAAAAMAJtWXb7qoq8V4PZjXBfWIwGm1wNQNjYedo80zp2tTEf0sl3m9GS0f6SMrx89V8XOq+DQAAAAAAAKyoqrRfc/iVVR7WagJr/9hVDKylzTuWvjiV9luq0r4plbjTXJaO9I6qdD+amuEzLMEBAAAAAAAAq6rK8cse2moSq0r7I65gYHUtr5+Zj1zn2Hv4VaiWyqX7uzuVuL7OsTfNx1PMCgAAAAAAAGDNnJZ3zaUct3iQq8mre44rGFhpW7btruqmG6YS+1OJD5q90pE+XJfumpRjdFreNWdaAAAAAAAAAGMjle45Hupq0tq0vT3X1QushLkmzqubuLLK3bWpxGfMXOlwOW6smthX5+Elg8HyetMCAAAAAAAAGFspxxs86NUk/SqNqxY4YUajDXUeXlI1sS/luNGMlY50ZypxXdV0V23e2T3esAAAAAAAAAAmxky+9ItSEx/14FeTUJW7a121wGNR5+GZKceoLt01qcTtZqv02Xts/Esqsb9uuuHg/KVTTAsAAAAAAABgYtVN90IPgjURNfEqVyxwrFIz3Frn2JtKXJdK3G2eSnFfKnFP3cQNqXTLM/ORTQoAAAAAAABgmqw7vCTg4bDGupmytORyBR7VztHmqoldqemuTqW92fyUjnRbauJAVbor5i6M0wwLAAAAAAAAYGrNLQyfWJW4w4NijXXbl85ytQIPZdP29ty6iStTEwdSiU+amdKRbkpNd3XVxK5BzieZFgAAAAAAAEBv1KV9mYfGGteqEu91lQJHjEYbZuYjp9It3//axzhkVkpxXypxVypxXZ1jb73QXmBYAAAAAAAAAP01Gm2oS7zNg2SNZ+3rXKTQb3MXxmkpxyiV2J9K3GouSodrug/Vpbsm5RidefGe2rQAAAAAAAAAOKya37MtlTjo4bLG7hficny3KxT6Z66J86qmuyqVuM79STrSvXUTN1RN7Kvz8JLBYLDOtAAAAAAAAAB4GKnEf/GgWeP36zftV7o6oQcWFzfWeXhJ1cS+VOKd5p905NXhd1S5u7Zu4sqZ7XvOMSwAAAAAAAAAjtb5S6ekHDd6+Kxx+iUcr4CD6ZW2L51Vle6K1MSBVOLjZp50pJtSif110w0HW0cnmxYAAAAAAAAAx6le6HamEvd6EK0x6R9dlTBdUjPcWufYm0pcn0ocMuekuC+VuCeVuL7OsXdmPrJJAQAAAAAAAHACpRw/68G0xuQ1cf+PKxImXB7O1E03TCX2pxy3mG3SkT6SmjhQle6KUy969qmGBQAAAAAAAMAKOfPiPXUq7c0eVGvNy923uiJh8swtDJ9YN3FllbtrU4lPm2fSZ+9rcWPVxL6qiV2DxcWNpgUAAAAAAADAKpkpS0seXGutm8nDeVcjTIDRaMPMfORUuuW6iRvML+lIn0olrqua7qrNzbO+xLAAAAAAAAAAWEOp6X7Dg2ytYXcNto5OdiXCeKoXLj8j5RjVpbsmNfFRM0u6v7rE+w6/Inh01tZRMi0AAAAAAAAAxkS9cPkZqek+5OG21qSm+wtXIYyXuSbOq5ruqlTiulTioFklxX2pxL33/zJitzwzH3kwGKwzLQAAAAAAAADGVNV0z/egW2vUa12BsMYWFzdVTexKTXd1KvF+c0m6v6rEHVXurq2buLJq2rMNCwAAAAAAAIAJkkq80cNvrf6yQfv1rj5Yg5m/bffjqtJdkZo4kEp8wjySjnRTarqrqyZ2eaU3AAAAAAAAwASb2b7nnFTidg/CtZrV5bInufpgNSyvn5mPXOfYm0pcn0ocMoOkuC+VuDuVuL7OsbfOwyebFQAAAAAAAABTJJX2xR6MaxW7fTBYXu/Kg5WxZdvuqm66YSqxP5X4oJkjHenDdemuSTlGp+Vdc6YFAAAAAAAAwNRaXp9K/JkH5Vql/tA1ByfWXBPn1U1cWeXu2lTiM+aMdLgcN1ZN7Kvz8BLL2AAAAAAAAAA9UpfLnpRK3OXhuVa6Krc/7IqDx2g02lDn4SVVE/tSjhvNFulId6YS11VNd9Xmnd3jDQsAAAAAAACAHkslvteDdK109UJ3uasNjl2dh2emHKO6dNekErebJ9LhResS700l9tdNNxycv3SKaQEAAAAAAADA/RYXN6bS/a2H61rJNu9Y+mIXGxyd1Ay31jn2phLXpxL3miFS3JdK3FM3cUMq3fLMfGSTAgAAAAAAAICHVTXtRanE3R62a4W61VUGj2DnaHPVxK7UdFen0t5sZkhHui01caAq3RVzF8ZphgUAAAAAAAAAR63O8WMevGuF+n9dYfD5Nm1vz62buDI1cSCV+KQ5IR3pptR0V1dN7BrkfJJpAQAAAAAAAMDx2TnanEq824N4rUDf6wKj90ajDTPzkVPplu9/7WMcMhukuC+VuCuVuK7OsbdeaC8wLAAAAAAAAAA4YVLpFi1p6ERX5eFuVxd9NHdhnJZyjFKJ/anEreaBdLim+1BdumtSjtGZF++pTQsAAAAAAAAAVkxV4hc9rNcJ7FC9cPkZriz6Yq6J86qmuyqVuC6VOGgGSHFfKnFv3cQNVRP76jy8ZDAYrDMtAAAAAAAAAFgVp+VdcynHLR7e6wT1blcVU21xcWOdh5dUTexLJd7pmpcO/zpoiTuq3F1bN3HlzPY95xgWAAAAAAAAAKyZer7tPMzXCXot3m+4opg2afvSWVXprkhNHEglPu5al450Uyqxv2664WDr6GTTAgAAAAAAAICxkUr32x7s6wT8QtB3upqYipnYDLfWOfamEtenEodc31Lcl0rck0pcX+fYm3YsPdWkAAAAAAAAAGBsVU17dmriox7267FUl6WLXU1MpDycqZtumErs9xpp6fP6SGriQFW6K0696NmnGhYAAAAAAAAATIy6xH/y4F+P5ZeDtmzbXbmSmBRzC8Mn1k1cWeXu2lTi065h6XA5bqya2Fc1sWuwuLjRtAAAAAAAAABgYqXSvtkygI6zv3MFMdZGow0z85FT6ZbrJm5wzUpH+lQqcV3VdFdtbp71JYYFAAAAAAAAAFPj1Kdf9qWpxCctB+g4flHo511BjJt64fIzUo5RXbprvBZaeuArruN9h18RPDpr6yiZFgAAAAAAAABMrSp332VZQMe8XNF0L3T1MA7mmjivarqrUonrUomDrk8p7ksl7r3/lxG75Zn5yIPBYJ1pAQAAAAAAAEBPLK9PJd5qeUDHUrXQPc21w5pYXNxUNbErNd3VqcT7XY/S4blc4o4qd9fWTVxZNe3ZhgUAAAAAAAAAvVXl9sJU4jMWCnSU3TXI+SRXDqslbdv9uKp0V6QmDqQSn3ANSke6KTXd1VUTuwZbRyebFgAAAAAAAABwWGriBy0W6Ci73hXDylpePzMfOZVu+f7XPsYh150U96USd6cS19c59tZ5+GSzAgAAAAAAAAAeztbRyanE2y0b6Cj6KRcMJ9qWbburuumGqcT+VOKDrjPpSB+uS3dNyjE6fcfSrGkBAAAAAAAAAEdpNrc7Uol7LB/okapy+zxXCyfCXBPn1U1cWeXuWq9tlh5QjhurJvbVeXjJYLC83rQAAAAAAAAAgOOUSrzWMoIeqdn5Pee7Ujguo9GGOg8vqZrYl3Lc6HqSjnRnKnFd1XRXbd7ZPd6wAAAAAAAAAIATZMu23VUqcZPlBD1Mtw0Gg3WuFI5WnYdnphyjunTXpBK3u4akw7+2WeK9qcT+uumGg/OXTjEtAAAAAAAAAGCFVE331anEIQsL+sLaN7tCeDSpGW6tc+xNJa5PJe513UhxXypxT93EDal0yzPzkU0KAAAAAAAAAFhFh3/NyQKDPr+m+yFXB19g52hz1cSu1HRXp9Le7FqRPvermqmJA1Xprpi7ME4zLAAAAAAAAABgjdQLl5+RSvybZQY9sLrEHlcHg8FgsGl7e27dxJWpiQOpxCddH9KRbkpNd3XVxK5BzieZFgAAAAAAAAAwJlKJr7XYoAc2s33POa6MnhqNNszMR06lW77/tY9eqywd7q5U4rqq6a7atL0917AAAAAAAAAAgDGWSvs7lh10uA+4Ivplduelp6cco1Rifypxq2tAOvL66A/Vpbsm5RidefGe2rQAAAAAAAAAgAkxs33POanExyxAKOV4gyti+s01cV7VdFelEtelEgedfSnuSyXurZu4oWpiX52HlwwGg3WmBQAAAAAAAABMqJS7b7UMobrpXulqmEKLixvrPLykamJfKvFOZ126v6rEHVXurq2buNLrogEAAAAAAABguqxLTfcWCxI9Xw5puq92KUyHtH3prKp0V6QmDqQSH3e+pSPdlErsr5tuONg6Otm0AAAAAAAAAIApVS+0F6QSn7Is0dsOnXrRs091JUyu1Ay31jn2phLXpxKHnGkp7ksl7kklrq9z7E07lp5qUgAAAAAAAABAj9S5fYXlib7WvcsVMGHycKZuumEqsT/luMUZlo70kdTEgap0V1j0BQAAAAAAAIA+W1zcWDdxg2WK/lWX7hoXwPibWxg+sW7iyip316YSn3Z2pcPluLFqYl/VxK7B4uJG0wIAAAAAAAAAGAwGg0G10D0tlThowaJ3yyTf4fSPodFow8x85FS6Zcuq0uf1qVTiuqrprtrcPOtLDAsAAAAAAAAA4GFVzf/f3v3/6n3WdRz/tNtaej7X1bPuCxtbnDhrGNTN9VzX1dKskZoctp37/bkL++E2MWhNJDQYNUUDmSGKRw2mBAjWL3GNRrQGCI0El2mUVIORSgI2GIUSA3SZA0z2hTHZN8bazR9WCsQx9qVfzrnP45E8/4H7vj7X55dX7jv2GlusrNbPLbzayV8a8pZbLk4lJrkOB1KNrzuf0rd/yTLuOvkXwZNLN02S2wIAAAAAAAAAeG42LqxNNT5vgLFi+la3bbLOwT93Zltc3bdhT6pxyC80Sqc68fQvIw6LM3NRuq5b5bYAAAAAAAAAAF6Q1MavSTWeNMhYEX3WiT/Ltk3WrS8RqY7+JNX4b2dQOlmLB1KND/VteEPecsvFLgsAAAAAAAAA4LRJNW4z0FgRfcRpPwvP03U3vrSvw67U4mCq8Q3nTjrVsdSGfX2L+W7TZI3bAgAAAAAAAAA4IzaU+dlU4ivGGtNdLvFup/1MWFydtwzbUo13phr/7qxJp/pmqqOPpRK/MtviancFAAAAAAAAAHDWPP23jgYc092w6KSfHpddd2Of2zBONfanGv/jbEmnujfX4UAqMblo68J6twUAAAAAAAAAcM6kEh825jCI45nNtrg6t9jdl+GOVONx50k6WYmjfYu9uYy3d93iarcFAAAAAAAAALAk9Ft3XpZq3G/gMaV/mdriPU7587BpsqZvMZ9qvC/V+KIzJJ3qoVTjI7nGG/s2utxlAQAAAAAAAAAsWX0ddhl7TG0fccKfXS7jS1KJSa7DgVTjQWdGerq+xp2pxv7chnG3cWGt2wIAAAAAAAAAWDZSi38wAJnKPut0/z+rZsp4LpX4zb7Gp1KNE86JFE+lGk+kGh/PdfS2NBevdFUAAAAAAAAAAMvWSzaPfvjkX+IZhUxXT6brbnzpij/g2ybr+hbzqQ37Uo0vOxfSqb6WWhzs67Br9trY4G0IAAAAAAAAAEyNvg17jEOm8W8PRz+3Es/zha+++eWpjn4p1/j7VOMxZ0H6dqP/6Mvo93JduKGbTM7z9gMAAAAAAAAAptTi6lTjsLHI1HVoRRzfyeS8mbkoqQ6LucWRVONJ370UT50chB7q27BnXRlf5V0HAAAAAAAAAKwYqY03pRrfNCCZsr9NnYtXTuN5Xb/tpov6OvqZ1IYPpBpf811Lp/pyqnFbbsO4K+MZbzcAAAAAAAAAYMVKdfRbxiRTVouD03I+Z1tcffLvfQ+lGt/y/UrxVKpxIrc40rfYm8t4e9d1q7zNAAAAAAAAAAC6rus2TdakGp81MJm2hh3L8jzu2PGSfi5uSjX+sK9xp+9ROtWDqcXBvsTPp80Ll3p5AQAAAAAAAAB8H+vrsCXVOG5wMj3lGnflLbdcvBzOX9q8cGlfh12pxcFU4399f9KpjqUa+3Mbxt2myRpvKwAAAAAAAACA5yjVeJ/xydR1e9ctrl56p21x9Uwbt1Tit3OLI6nGk74rKZ5KNR5PNf6xr6NfXb91+DFvJgAAAAAAAACAF6qMZ1KNLxmkTFd9Hf35khjFlfFMbsM41difSnzFdyOd6r7U4mBfh10XXv/6C72MAAAAAAAAAABOk76OXuvXuqZwFFfi/efi7xZny8KP9m3Yk2ocOvnLV74PqcaTqQ6fSW343fVltHVp/oojAAAAAAAAAMCU6Eu832BlKvvkum3DlWf08OzYcX4q8VO5xLtTHf7LZy6d6pFU4/bcYvcZfw4BAAAAAAAAAPiODWV+NtX4qgHLVPZg34Y93WRy3uk6L3nLLRenEpNchwOpxtd9xtLT5Rp3nfyL4MmlmybJ2wUAAAAAAAAA4BxJJSYGLVPd53ONN3YbF9a+kPPRbxl+Itd4e6rxr6nGcZ+nFE+dfBY+kcvo1/syutabBAAAAAAAAABgCUl19FEDlymvxQO5xl+lNvrp2RZXd1236pnOwmyLq/sWP5tq3Jbq6G6fnfSdZyjV+FDfhjfkLbdc7M0BAAAAAAAAALBEzWzeeUWq8aDRy4rqoVTjWG5xJLc40te4M9V4xOcifVcljvZ19K7Uxq/pduw439sCAAAAAAAAAGCZyG14kwGMpBXeE6nG4Vzi1lzG13gzAAAAAAAAAAAsX6tSjUMGMZJWWPfmOhxIJSYXbV1Y71UAAAAAAAAAADAlZreMf6Sv8bCBjKSp/yvUFntzGW/vusXVbn8AAAAAAAAAgCmV6+htBjOSpqxH+jLckVvsXrdtuNJNDwAAAAAAAACwUkwm5+Ua/2ZAI2k519e4M9XYn9sw7jYurHW5AwAAAAAAAACsUP3czutSjW8Z1UhaRh3PLY6kOizOzEVxkwMAAAAAAAAAcEqq8U4DG0lLvPtTi4N9HXbNXhsb3NwAAAAAAAAAADyzjQtrU4mjBjeSlljHUhv29S3mu1IucFkDAAAAAAAAAPCc5C3DtlTjhAGOpHPYY6nGob4Ne9aV8VVuZgAAAAAAAAAAXrBU4o8NciSd1dpwT67DgVRicskNO7ObGAAAAAAAAACA0+KSG3bmVEd3G+lIOoOdyC2O9C325jLe3nXdKrcvAAAAAAAAAABnxExdWDDYkXQ662s83Jfhjtxi98zmnVe4aQEAAAAAAAAAOGtSjQ8a8Uh6kR1LNfbnNoy7TZM1blYAAAAAAAAAAM6JXMaXpDbcY9Aj6Xl0PNU4nEvcmrYuvMpNCgAAAAAAAADAktG34Q0GPpJ+QPelFgf7OuzaUOZn3ZwAAAAAAAAAACxZqcbtBj+SvqcSR/sWe/sW892OHee7KQEAAAAAAAAAWBbWlfFVqcY3jICkFd2jqcahvg171rXX/ZCbEQAAAAAAAACAZSvV4ZcNgqSVVa5xV6qxP5WYXLppktyEAAAAAAAAAABMicXVqcYnjISkqe54bnEk1WFxZi5K13Wr3H0AAAAAAAAAAEylXG9+RarxmNGQNEW1eCC1OJhb7O7b6HI3HQAAAAAAAAAAK0Yqo98wIpKWfcdSG/b1Lea7Ui5wswEAAAAAAAAAsDLt2HF+qsNnDIqkZdUTqcbhXOLWXMbXuMgAAAAAAAAAAOCkvo2uPzmwMTSSlm735jocSCUmF21dWO/mAgAAAAAAAACA7yO3eI/BkbTEKnG0b7E3l/H2rutWuakAAAAAAAAAAOC5KOOZVOOLRkjSOe2Rvgx35Ba7120brnQxAQAAAAAAAADAC5TqsCPVeNIoSTp79TXuTDX25zaMu40La91EAAAAAAAAAABwmvQ1/sxISTqjHc8tjqQ6LM7MRXHrAAAAAAAAAADAGbKhzM+mEl8xWpJOa/enFgf7OuyavTY2uGkAAAAAAAAAAOAsyW0YGzBJL7pjqQ37+hbzXSkXuFkAAAAAAAAAAOAcSXX4a4Mm6Xn1WKpxqG/DnnVlfJVbBAAAAAAAAAAAloi+jS5PLR4wcpKepTbck+twIJWYXHLDzuzmAAAAAAAAAACAJSrX+AWjJ+l7OpFbHOlb7M1lvL3rulVuCgAAAAAAAAAAWB5WpTr6mBGUVnJ9jYf7MtyRW+yeKTe9zLUAAAAAAAAAAADL1IWvvvnlqcZDhlFaYR1LNfbnNoy7TZM1bgIAAAAAAAAAAJgSfRl+zUBKU97xVONwLnFr2rrwKk89AAAAAAAAAABMrcXVqcYnjaY0Zd2XWhzs67BrQ5mf9ZwDAAAAAAAAAMAK0ZfRtanG40ZUWtaVONq32JvLeHvXLa72ZAMAAAAAAAAAwAqVWvyOUZWWWY+mGof6NuxZ1173Q55iAAAAAAAAAADgaZsma1KNzxlZaSmXa9yVauxPJSaXbpokDy4AAAAAAAAAAPCM1pfR1lTjuOGVllDHc4sjqQ6LM3NRuq5b5UkFAAAAAAAAAACek1TjD4ywdE5r8UBqcTC32N230eWeSgAAAAAAAAAA4AW57Lob+1TjmGGWznLHUhv29S3mu1Iu8CQCAAAAAAAAAACnRd9GNxto6Qz3RKpxOJe4NZfxNZ46AAAAAAAAAADgjMl1OGC0pdPcvbkOB1KJyUVbF9Z7ygAAAAAAAAAAgLMil/ElqQ33GHHpRXQi19GnU4t3zMxF6bpulScLAAAAAAAAAAA4J3Idvc6oS8+zR/oy3JFb7F63bbjSUwQAAAAAAAAAACwZucVfGHnp2epr3Jlq7M9tGHcbF9Z6agAAAAAAAAAAgCVpQ5mfzTXuMvzSd/VEqvHxvsVbcxlf4ykBAAAAAAAAAACWjZm6sDnVeNQQbEV3f2pxsK/DrtlrY4OnAgAAAAAAAAAAWLb6OuwyCltxHUtt2Ne3mO9KucBTAAAAAAAAAAAATI1U4zYjsanu0b7G36YSv7iujK9y4gEAAAAAAAAAgOk1mZyX6uijhmNTVBvuyXU4kEpMLrlhZ3bIAQAAAAAAAACAlWPbZF2qcdiYbNl2Irc4kuqwODMXpeu6VQ41AAAAAAAAAACwYuUtt1ycavyncdmy6cFU4sN9HXalzQuXOsEAAAAAAAAAAADfZfba2NDX+JSx2ZLtWKqxP7dh3G2arHFiAQAAAAAAAAAAnoVR3JLq8VTjUF/jLevndm50OgEAAAAAAAAAAJ6ny667sU81bjdIOyfdl1oc7Ouwa0OZn3UaAQAAAAAAAAAAXqzJ5Ly+xV4DtbNQiaN9i725jLd33eJqhw8AAAAAAAAAAOAMyC12pxqPGa6dvvoaD6caf5Pb8KaZzTuvcMoAAAAAAAAAAADOkr6Nrk8lvmDM9sLLNe5KNfanEpNLN02SUwUAAAAAAAAAAHCOXLR1YX2uo780bnvOHU8t/iWXuDXV+HEnCAAAAAAAAAAAYInp2+jmVEd3G7w9Y19LLQ7mFrv7NrrcaQEAAAAAAAAAAFjiNpT52VSHP0o1njCCi8/1dfSu1EY/2U0m5zkdAAAAAAAAAAAAy1CuN78i1/i7FTaAeyLVOJxL3JrL+BqnAAAAAAAAAAAAYIo8/Teq8ckpHsF9NbXhT3MZv/6y627sfeMAAAAAAAAAAABTri/jG1Md/fMUDOBO5Dr6dGrxjpm5KF3XrfLtAgAAAAAAAAAArEC5jK9JbdjX13h4GY3gHunLcEdusXvdtuFK3yIAAAAAAAAAAACnXHj96y/MNd6Y2vBPqcaJJTiC+1Iqo9/v6+i13abJGt8YAAAAAAAAAAAAP9DM5p1XpDK8OdW4PdV46BwN4B5NNQ71Ld6ay/ga3woAAAAAAAAAAAAvzsaFtakOO3KNt6cat6c23HOGBnD3phqHUh0WUxu/ptu4sNaHDwAAAAAAAAAAwBnVt9HlqQ47UhnenOvovakNH0g1Pp5KHE01vppaPHDyF96e/qW3Fg+kOro7lfhCqvGJVOODuY7e29d4Sz8XN82Um17mUwUAAAAAAAAAYKX6P70Wg8sZRfpPAAAAAElFTkSuQmCC;" vertex="1" parent="vcuSbffxkNOAJa39J86u-49">
          <mxGeometry x="270" y="9.499999999999984" width="140" height="54.92" as="geometry" />
        </mxCell>
      </root>
    </mxGraphModel>
  </diagram>
</mxfile>
